<?xml version="1.0"?>
<svg xmlns="http://www.w3.org/2000/svg" xmlns:xlink="http://www.w3.org/1999/xlink" xmlns:svgjs="http://svgjs.com/svgjs" version="1.1" width="512" height="512" x="0" y="0" viewBox="0 0 512 512" style="enable-background:new 0 0 512 512" xml:space="preserve" class=""><g><defs xmlns="http://www.w3.org/2000/svg"><linearGradient id="linear-gradient" x1="104.102" y1="491.416" x2="516.481" y2="79.037" gradientUnits="userSpaceOnUse"><stop stop-opacity="1" stop-color="#124095" offset="0"/><stop stop-opacity="1" stop-color="#c00808" offset="1"/></linearGradient></defs><g xmlns="http://www.w3.org/2000/svg" id="gradient"><path d="M480.619,192.826a60.215,60.215,0,0,1-11.3-26.877L456.294,81.3l6.861-13.722a8,8,0,0,0,0-7.156l-2.844-5.69A7.988,7.988,0,0,0,464,48V34a18.021,18.021,0,0,0-18-18H402a18.021,18.021,0,0,0-18,18V48a7.988,7.988,0,0,0,3.689,6.732l-2.844,5.69a8,8,0,0,0,0,7.156L391.706,81.3l-13.023,84.649a60.2,60.2,0,0,1-11.3,26.868l-.188.249a76.482,76.482,0,0,0-15.2,45.6V460a36.04,36.04,0,0,0,36,36h72a36.04,36.04,0,0,0,36-36V238.667a76.483,76.483,0,0,0-15.206-45.609ZM400,34a2,2,0,0,1,2-2h44a2,2,0,0,1,2,2v6H400Zm47.056,30-4,8H404.944l-4-8,4-8h38.112ZM406.864,88h34.272l11.442,74.367L424,175.228l-28.578-12.861ZM480,448H440a8,8,0,0,0,0,16h39.6A20.032,20.032,0,0,1,460,480H388a20.023,20.023,0,0,1-20-20V416H480Zm0-48H368V272h8a48,48,0,0,0,96,0h8ZM392,272a32,32,0,1,1,32,32A32.036,32.036,0,0,1,392,272Zm88-16H469.248a47.99,47.99,0,0,0-90.5,0H368V238.667a60.375,60.375,0,0,1,11.993-35.992l.187-.249a76.275,76.275,0,0,0,12.039-23.955l28.5,12.825a8.007,8.007,0,0,0,6.566,0l28.5-12.825a76.3,76.3,0,0,0,12.045,23.964l.174.231a60.381,60.381,0,0,1,12,36ZM384,456a8,8,0,0,1,8-8h16a8,8,0,0,1,0,16H392A8,8,0,0,1,384,456ZM320,203.172A43.988,43.988,0,0,0,300,120a43.561,43.561,0,0,0-16,3.006,44.029,44.029,0,0,0-40,4.117,44.006,44.006,0,0,0-40.007-4.11,51.984,51.984,0,0,0-65.077.872A48,48,0,1,0,104,213.248V232H84a68.077,68.077,0,0,0-68,68v72a68.077,68.077,0,0,0,68,68h20v14.245a43.993,43.993,0,0,0,.845,37.333A8,8,0,0,0,112,496H312a8,8,0,0,0,7.155-4.422A43.993,43.993,0,0,0,320,454.245ZM104,384H84a12.013,12.013,0,0,1-12-12V300a12.013,12.013,0,0,1,12-12h20Zm200,64H120V248H304ZM88,168a32,32,0,0,1,48.217-27.583,8,8,0,0,0,9.831-1.349,35.962,35.962,0,0,1,51.032-.88,8,8,0,0,0,9.435,1.271,28,28,0,0,1,32.149,3.675,8,8,0,0,0,10.672,0,27.989,27.989,0,0,1,31.1-4.22,8,8,0,0,0,7.124,0A27.694,27.694,0,0,1,300,136a28,28,0,0,1,0,56,27.694,27.694,0,0,1-12.438-2.914,8,8,0,0,0-7.124,0,27.989,27.989,0,0,1-31.1-4.22,8,8,0,0,0-10.672,0,28,28,0,0,1-32.149,3.675,8,8,0,0,0-9.435,1.271,35.965,35.965,0,0,1-46.913,2.8,8,8,0,0,0-9.925.165A31.608,31.608,0,0,1,120,200,32.036,32.036,0,0,1,88,168Zm57.432,40.706a52,52,0,0,0,58.561-3.719A44.006,44.006,0,0,0,244,200.877a44.029,44.029,0,0,0,40,4.117A43.561,43.561,0,0,0,300,208c1.349,0,2.682-.071,4-.19V232H120V216A48.13,48.13,0,0,0,145.432,208.706ZM84,424a52.059,52.059,0,0,1-52-52V300a52.059,52.059,0,0,1,52-52h20v24H84a28.032,28.032,0,0,0-28,28v72a28.032,28.032,0,0,0,28,28h20v24Zm222.6,56H117.405a28.021,28.021,0,0,1,0-16H306.6A28.021,28.021,0,0,1,306.6,480ZM136,312V300a20,20,0,0,1,40,0V408a8,8,0,0,1-16,0V300a4,4,0,0,0-8,0v12a8,8,0,0,1-16,0Zm56,0V300a20,20,0,0,1,40,0V408a8,8,0,0,1-16,0V300a4,4,0,0,0-8,0v12a8,8,0,0,1-16,0Zm56,0V300a20,20,0,0,1,40,0V408a8,8,0,0,1-16,0V300a4,4,0,0,0-8,0v12a8,8,0,0,1-16,0Z" style="fill:url(#linear-gradient)" fill=""/></g></g></svg>
