<svg xmlns="http://www.w3.org/2000/svg" width="1446.003" height="1387.682" viewBox="0 0 1446.003 1387.682">
    <g id="Group_541" data-name="Group 541" opacity="0.07">
        <path id="Path_1" data-name="Path 1" d="M274.248,384.309c-70.223,52.76-116.737,99.644-115.381,156.82h0c4.273,31.8,11.032,74.106,17.566,105.56h0c6.162,21.655,14.011,50.685,21.243,72.01h0l1.069,3.02c-6.6-27.222-24.12-99.458,104.7-206.929h0C702.282,197.453,1531.682,89.14,1604.842,288.509h0l-1.067-4.068c-39.776-104.676-202.657-150.163-407.9-150.183h0c-300.717-.021-692.448,97.65-921.627,250.052Z" transform="translate(-158.839 211.268)" fill="#fff" fill-rule="evenodd"/>
        <g id="Group_1" data-name="Group 1" transform="translate(219.669 849.021)">
            <path id="Path_2" data-name="Path 2" d="M507.194,250.025c-22.909,7.848-53.109,19.5-75.688,28.331h0C211.3,373.871,124.07,470.6,192.157,543.736h0l2.794,2.486c52.861,43.391,58.408,47.931,100.464,74.681h0c24.243,13.888,57.053,31.619,82.118,43.987h0c-162.12-83.023,2.486-214.161,125.3-278.528h0c392.389-200.992,885.447-199.78,827.469-41.891h0c-1.726,4.726-5.055,10.6-7.232,15.141h0l3.8-6.737c62.354-130.605-84.419-194.089-303.305-194.11-152.567,0-340.122,30.838-516.377,91.261Z" transform="translate(-169.531 -158.764)" fill="#fff" fill-rule="evenodd"/>
            <path id="Path_3" data-name="Path 3" d="M853.814,250.429c-244.506,73.263-562.624,110.717-683.182,19.99h0l2.795,2.486c38.007,32.81,45.116,37.577,100.464,74.681h0c24.181,14.032,57.115,31.516,82.118,43.986h0c155.443,62.662,387.971,20.874,512.762-9.656h0c-6,17.031-6.7,18.572-15.635,37.432h0c51.609-25.681,80.844-44.028,130.892-77h0c69.052-46.617,116.121-89,153.964-123.023-43.206-5.527-86.535-10.273-129.8-15.656h0C915.1,191.526,876.7,184.459,813.052,172.748h0c18.429,34.536,18.429,34.536,40.762,77.68Z" transform="translate(-148.006 114.553)" fill="#fff" fill-rule="evenodd"/>
        </g>
        <path id="Path_4" data-name="Path 4" d="M429.437,227.684c-75.462,35.05-127.276,64.573-168.941,111.744h0l-29.873,39.488c-36.344,55.636-41.028,62.806-63.751,109.073h0L161.9,498.733c15.594-28.721,56.992-105.005,238.713-194.725h0c336.2-160.5,700.953-191.6,830.695-119.88l-39.139-23.545c-61.285-30.119-144.616-43.144-236.945-43.144h0c-172.331,0-375.994,45.446-525.787,110.244Z" transform="translate(-99.003 -117.439)" fill="#fff" fill-rule="evenodd"/>
        <path id="Path_5" data-name="Path 5" d="M1225.905,250.314C766.951,461.742,198.513,498.394,158.84,319.119h0c3.986,31.844,11.3,74.064,17.566,105.56h0c5.506,21.818,14.649,50.478,21.244,72.009h0l1.069,3.021c78.358,181.638,608.212,182.727,1090.341,2.219h0c-2.527,42.795-3.2,48.075-11.628,112.71h0c75.215-78.3,105.108-118.011,155.34-189.918h0c60.69-90.4,84.214-157.806,103.137-211.983-42.426-8.773-73.367-13.951-164.771-29.03h0c-112.524-18.593-143.4-24.695-211.038-38.09,26.093,39.488,26.812,40.7,65.806,104.7Z" transform="translate(-158.811 433.279)" fill="#fff" fill-rule="evenodd"/>
        <path id="Path_6" data-name="Path 6" d="M792.416,214.69c-30.242,9.614-101.06,32.091-192.239,46.945h0C372.7,298.657,185.559,260.258,269.567,144.056h0l-29.872,39.487c-28.947,42.158-32.235,48.507-63.75,109.073h0l-4.972,10.745c-70.059,173.194,254.387,238.979,694.3,140.794h0c3.7,42.9,4.047,48.836,8.095,121.647h0c70-75.195,97.835-113.018,140.712-175.824h0c49.492-75.462,66.73-128.94,79.3-168h0c-86.72-14.012-124.3-22.641-189.321-38.933h0C828.1,162.218,796.608,149.521,747.4,127.435c14.731,30.057,17.053,34.351,45.014,87.255Z" transform="translate(-108.076 77.932)" fill="#fff" fill-rule="evenodd"/>
    </g>
</svg>
