<?xml version="1.0"?>
<svg xmlns="http://www.w3.org/2000/svg" xmlns:xlink="http://www.w3.org/1999/xlink" xmlns:svgjs="http://svgjs.com/svgjs" version="1.1" width="512" height="512" x="0" y="0" viewBox="0 0 512 512" style="enable-background:new 0 0 512 512" xml:space="preserve" class=""><g><defs xmlns="http://www.w3.org/2000/svg"><linearGradient id="linear-gradient" x1="256" y1="496" x2="256" y2="16" gradientUnits="userSpaceOnUse"><stop stop-opacity="1" stop-color="#124095" offset="0"/><stop stop-opacity="1" stop-color="#c00808" offset="1"/><stop stop-opacity="1" stop-color="#c00808" offset="1"/></linearGradient></defs><path xmlns="http://www.w3.org/2000/svg" d="M152,221.188c-22.674,0-44.357,3.64-61.056,10.25a8,8,0,1,1-5.888-14.876c18.527-7.335,42.3-11.374,66.944-11.374s48.417,4.039,66.944,11.374a8,8,0,1,1-5.888,14.876C196.357,224.828,174.674,221.188,152,221.188ZM474.552,89.58C488.383,134.146,496,193.249,496,256s-7.617,121.854-21.448,166.42C459.613,470.556,439.366,496,416,496H384a34.1,34.1,0,0,1-19.195-6.229A28.681,28.681,0,0,1,346.953,496H53.047a28.79,28.79,0,0,1-22.282-10.575,29.684,29.684,0,0,1-6.2-24.659A65.688,65.688,0,0,1,48,422.049V274.883c-20.683-11.489-32-26.375-32-42.266,0-18.482,15.006-35.3,42.254-47.35,23.26-10.289,53.458-16.294,85.746-17.149V168H309.285c3.635-28.974,9.083-55.6,16.163-78.42C340.387,41.444,360.634,16,384,16h32C439.366,16,459.613,41.444,474.552,89.58ZM71.416,480a47.027,47.027,0,0,1-6.77-33.264,111.883,111.883,0,0,1,4.867-19.063,49.465,49.465,0,0,0-29.246,36.168,13.738,13.738,0,0,0,2.851,11.416A12.848,12.848,0,0,0,53.047,480Zm52.933,0a23.548,23.548,0,0,1-.886-3.067l-9.6-45.7a86.14,86.14,0,0,1,.505-38.033c-17.233,11.2-29.929,31.673-33.932,56.125-1.464,8.944.8,17.982,6.067,24.177,3.563,4.193,8.13,6.5,12.859,6.5h24.988Zm1.761-113.812a82.889,82.889,0,0,1,52.978-36.075,104.007,104.007,0,0,1,41.824,0A82.933,82.933,0,0,1,240,336.494V270.061a8,8,0,0,1,4.415-7.152C262.2,253.993,272,243.235,272,232.617c0-11.593-11.929-23.519-32.727-32.718C216.1,189.646,185.1,184,152,184s-64.095,5.646-87.273,15.9C43.929,209.1,32,221.024,32,232.617c0,10.618,9.8,21.376,27.585,30.292A8,8,0,0,1,64,270.061V412.654a63.07,63.07,0,0,1,14.364-3.941c10.7-17.9,26.33-31.276,44.576-37.26C123.938,369.673,124.979,367.91,126.11,366.188Zm134.407,8.786a66.994,66.994,0,0,0-42.8-29.184,88.1,88.1,0,0,0-35.426,0,66.994,66.994,0,0,0-42.8,29.184,69.688,69.688,0,0,0-9.962,52.964l9.6,45.707A8.037,8.037,0,0,0,146.95,480h106.1a8.037,8.037,0,0,0,7.829-6.355l9.6-45.707A69.688,69.688,0,0,0,260.517,374.974Zm59.048,74.347c-4-24.452-16.7-44.921-33.932-56.126a86.14,86.14,0,0,1,.5,38.033l-9.6,45.706a23.579,23.579,0,0,1-.886,3.066h24.988c4.729,0,9.3-2.31,12.859-6.5C318.761,467.3,321.029,458.265,319.565,449.321Zm1.837-41C310.13,365.782,304,312.555,304,256c0-24.795,1.194-49.016,3.486-72H242.741c1.007.419,2.023.832,3,1.267C272.994,197.319,288,214.135,288,232.617c0,15.891-11.317,30.777-32,42.266V346.53a84.568,84.568,0,0,1,17.89,19.658c1.131,1.722,2.172,3.485,3.17,5.265C295.172,377.393,310.705,390.619,321.4,408.319Zm38.331,55.523a49.463,49.463,0,0,0-29.246-36.169,111.965,111.965,0,0,1,4.867,19.062A47.028,47.028,0,0,1,328.584,480h18.369a12.848,12.848,0,0,0,9.929-4.743A13.737,13.737,0,0,0,359.733,463.842Zm67.538-46.164C440.639,374.605,448,317.188,448,256s-7.361-118.6-20.729-161.678C415.16,55.3,398.984,32,384,32s-31.16,23.3-43.271,62.322a393.693,393.693,0,0,0-10.918,45.292c14.528-3.41,40.124-6.019,72.517,4.733l.113.035.089.029v0a8,8,0,1,1-5.058,15.17v0c-35.305-11.768-61.43-5.54-70.549-2.541a669.018,669.018,0,0,0-6.836,87.643c14.229-3.874,40.568-7.519,74.241,3.655l.116.037.088.028v0a8,8,0,1,1-5.058,15.17v0c-34.371-11.457-59.669-5.5-69.448-2.176a677.754,677.754,0,0,0,7.164,94.85c13.94-3.678,40.707-7.346,75.142,4.084l.113.035.089.029v0a8,8,0,1,1-5.058,15.17v0c-32.091-10.7-56.594-6.524-67.641-3.423a401.074,401.074,0,0,0,9.879,42.129,65.552,65.552,0,0,1,35.727,46.471,29.809,29.809,0,0,1-1.249,16.016A18.245,18.245,0,0,0,384,480C398.984,480,415.16,456.7,427.271,417.678ZM480,256c0-61.188-7.361-118.6-20.729-161.678C447.16,55.3,430.984,32,416,32h-1.859c10.781,12.331,20.367,31.659,28.411,57.58C456.383,134.146,464,193.249,464,256s-7.617,121.854-21.448,166.42c-8.044,25.921-17.63,45.249-28.411,57.58H416c14.984,0,31.16-23.3,43.271-62.322C472.639,374.605,480,317.188,480,256Z" style="fill:url(#linear-gradient)" fill=""/></g></svg>
