<?xml version="1.0"?>
<svg xmlns="http://www.w3.org/2000/svg" xmlns:xlink="http://www.w3.org/1999/xlink" xmlns:svgjs="http://svgjs.com/svgjs" version="1.1" width="512" height="512" x="0" y="0" viewBox="0 0 480.00239 480" style="enable-background:new 0 0 512 512" xml:space="preserve" class=""><g><linearGradient xmlns="http://www.w3.org/2000/svg" id="a"><stop stop-opacity="1" stop-color="#c00808" offset="0"/><stop stop-opacity="1" stop-color="#c00808" offset="0"/><stop stop-opacity="1" stop-color="#124095" offset="1"/><stop stop-opacity="1" stop-color="#124095" offset="1"/></linearGradient><linearGradient xmlns="http://www.w3.org/2000/svg" xmlns:xlink="http://www.w3.org/1999/xlink" id="b" gradientUnits="userSpaceOnUse" x1="-7.998803" x2="476.249197" xlink:href="#a" y1="72.001195" y2="72.001195"/><linearGradient xmlns="http://www.w3.org/2000/svg" xmlns:xlink="http://www.w3.org/1999/xlink" id="c" gradientUnits="userSpaceOnUse" x1="-7.998803" x2="476.249197" xlink:href="#a" y1="328.001195" y2="328.001195"/><path xmlns="http://www.w3.org/2000/svg" d="m33.34375 51.5625-32 48c-1.636719 2.453125-1.789062 5.609375-.398438 8.210938 1.394532 2.605468 4.105469 4.226562 7.054688 4.226562h88.800781c3.785157 18.644531 20.175781 32.042969 39.199219 32.042969s35.414062-13.398438 39.203125-32.042969h25.597656c3.785157 18.644531 20.175781 32.042969 39.199219 32.042969s35.414062-13.398438 39.203125-32.042969h25.597656c3.785157 18.644531 20.175781 32.042969 39.199219 32.042969s35.414062-13.398438 39.203125-32.042969h88.796875c2.953125 0 5.664062-1.621094 7.054688-4.226562 1.394531-2.601563 1.242187-5.757813-.398438-8.210938l-32-48c-1.484375-2.226562-3.980469-3.5625-6.65625-3.5625h-8v-32h-80v-16h-16v16h-192v-16h-16v16h-80v32h-8c-2.671875 0-5.171875 1.335938-6.65625 3.5625zm102.65625 76.4375c-10.167969-.011719-19.226562-6.417969-22.628906-16h45.261718c-3.402343 9.582031-12.464843 15.988281-22.632812 16zm104 0c-10.167969-.011719-19.226562-6.417969-22.628906-16h45.261718c-3.402343 9.582031-12.464843 15.988281-22.632812 16zm104 0c-10.167969-.011719-19.226562-6.417969-22.628906-16h45.261718c-3.402343 9.582031-12.464843 15.988281-22.632812 16zm-280-96h352v16h-352zm371.722656 32 21.328125 32h-434.097656l21.328125-32zm0 0" fill="url(#b)" data-original="url(#b)" style=""/><path xmlns="http://www.w3.org/2000/svg" d="m424 288c13.257812 0 24-10.742188 24-24v-8h16v-16h-16v-8c0-13.253906-10.742188-24-24-24h-16v-8c0-13.253906-10.742188-24-24-24-13.253906 0-24 10.746094-24 24v8h-16c-13.253906 0-24 10.746094-24 24v8h-16v16h16v8c0 13.257812 10.746094 24 24 24l-12 16h-72l-12-16c13.257812 0 24-10.742188 24-24v-8h16v-16h-16v-8c0-13.253906-10.742188-24-24-24h-16v-8c0-13.253906-10.742188-24-24-24-13.253906 0-24 10.746094-24 24v8h-16c-13.253906 0-24 10.746094-24 24v8h-16v16h16v8c0 13.257812 10.746094 24 24 24l-12 16h-52.207031c5.292969-6.882812 8.179687-15.316406 8.207031-24v-8h-8.207031c5.292969-6.882812 8.179687-15.316406 8.207031-24v-8h-8.207031c5.292969-6.882812 8.179687-15.316406 8.207031-24v-8h-8.207031c5.292969-6.882812 8.179687-15.316406 8.207031-24v-8h-96v8c.03125 8.683594 2.914062 17.117188 8.210938 24h-8.210938v8c.03125 8.683594 2.914062 17.117188 8.210938 24h-8.210938v8c.03125 8.683594 2.914062 17.117188 8.210938 24h-8.210938v8c.03125 8.683594 2.914062 17.117188 8.210938 24h-24.210938v176h48v-64h384v64h48v-176h-44zm-368 32h368v32.800781c-6.121094 1.5625-11.746094 4.664063-16.335938 9.007813-3.640624 3.921875-8.753906 6.152344-14.105468 6.152344-5.355469 0-10.464844-2.230469-14.109375-6.152344-13.566407-13.128906-35.105469-13.128906-48.671875 0-3.632813 3.921875-8.738282 6.152344-14.085938 6.152344-5.34375 0-10.449218-2.230469-14.082031-6.152344-13.550781-13.128906-35.074219-13.128906-48.625 0-3.632813 3.917968-8.734375 6.144531-14.074219 6.144531-5.34375 0-10.445312-2.226563-14.078125-6.144531-13.550781-13.128906-35.078125-13.128906-48.628906 0-3.636719 3.917968-8.734375 6.144531-14.078125 6.144531s-10.441406-2.226563-14.074219-6.144531c-13.550781-13.128906-35.078125-13.128906-48.625 0-3.625 3.917968-8.722656 6.148437-14.0625 6.148437-5.335937 0-10.433593-2.230469-14.058593-6.148437-4.585938-4.324219-10.195313-7.410156-16.304688-8.96875zm320-120c0-4.417969 3.582031-8 8-8s8 3.582031 8 8v8h-16zm-40 32c0-4.417969 3.582031-8 8-8h80c4.417969 0 8 3.582031 8 8v8h-96zm0 32v-8h96v8c0 4.417969-3.582031 8-8 8h-80c-4.417969 0-8-3.582031-8-8zm28 24h40l12 16h-64zm-164-88c0-4.417969 3.582031-8 8-8s8 3.582031 8 8v8h-16zm-40 32c0-4.417969 3.582031-8 8-8h80c4.417969 0 8 3.582031 8 8v8h-96zm0 32v-8h96v8c0 4.417969-3.582031 8-8 8h-80c-4.417969 0-8-3.582031-8-8zm28 24h40l12 16h-64zm-132 16c-10.167969-.011719-19.226562-6.417969-22.628906-16h61.261718c-3.402343 9.582031-12.464843 15.988281-22.632812 16zm-22.628906-112h61.261718c-3.402343 9.582031-12.464843 15.988281-22.632812 16h-16c-10.167969-.011719-19.226562-6.417969-22.628906-16zm0 32h61.261718c-3.402343 9.582031-12.464843 15.988281-22.632812 16h-16c-10.167969-.011719-19.226562-6.417969-22.628906-16zm0 32h61.261718c-3.402343 9.582031-12.464843 15.988281-22.632812 16h-16c-10.167969-.011719-19.226562-6.417969-22.628906-16zm-1.371094 208h-16v-48h16zm432 0h-16v-48h16zm0-64h-448v-80h24v40c0 4.417969 3.582031 8 8 8 5.339844-.007812 10.4375 2.21875 14.058594 6.144531 13.539062 13.140625 35.074218 13.140625 48.613281 0 3.632813-3.910156 8.730469-6.132812 14.070313-6.132812 5.335937 0 10.433593 2.222656 14.066406 6.132812 13.554687 13.132813 35.085937 13.132813 48.640625 0 3.632812-3.914062 8.730469-6.136719 14.070312-6.136719 5.339844 0 10.441407 2.222657 14.074219 6.136719 13.550781 13.132813 35.078125 13.132813 48.632812 0 3.632813-3.914062 8.730469-6.136719 14.070313-6.136719s10.4375 2.222657 14.074219 6.136719c13.554687 13.136719 35.089844 13.136719 48.644531 0 3.636719-3.929687 8.746094-6.164062 14.097656-6.164062 5.351563 0 10.460938 2.234375 14.097657 6.164062 13.574218 13.128907 35.113281 13.128907 48.6875 0 3.632812-3.929687 8.75-6.160156 14.101562-6.144531 4.417969 0 8-3.582031 8-8v-40h24zm0 0" fill="url(#c)" data-original="url(#c)" style="" class=""/></g></svg>
