<?xml version="1.0"?>
<svg xmlns="http://www.w3.org/2000/svg" xmlns:xlink="http://www.w3.org/1999/xlink" xmlns:svgjs="http://svgjs.com/svgjs" version="1.1" width="512" height="512" x="0" y="0" viewBox="0 0 512 512" style="enable-background:new 0 0 512 512" xml:space="preserve" class=""><g transform="matrix(1,0,0,1,1.1368683772161603e-13,2.842170943040401e-14)"><linearGradient xmlns="http://www.w3.org/2000/svg" id="linear-gradient" gradientUnits="userSpaceOnUse" x1="301.674" x2="301.674" y1="436.774" y2="245.947"><stop stop-opacity="1" stop-color="#124095" offset="0"/><stop stop-opacity="1" stop-color="#124095" offset="0"/><stop stop-opacity="1" stop-color="#c00808" offset="1"/><stop stop-opacity="1" stop-color="#c00808" offset="1"/></linearGradient><linearGradient xmlns="http://www.w3.org/2000/svg" xmlns:xlink="http://www.w3.org/1999/xlink" id="linear-gradient-2" x1="404.187" x2="404.187" xlink:href="#linear-gradient" y1="436.774" y2="245.947"/><linearGradient xmlns="http://www.w3.org/2000/svg" xmlns:xlink="http://www.w3.org/1999/xlink" id="linear-gradient-3" x1="411.292" x2="411.292" xlink:href="#linear-gradient" y1="436.774" y2="245.947"/><linearGradient xmlns="http://www.w3.org/2000/svg" xmlns:xlink="http://www.w3.org/1999/xlink" id="linear-gradient-4" x1="381.857" x2="381.857" xlink:href="#linear-gradient" y1="436.774" y2="245.947"/><linearGradient xmlns="http://www.w3.org/2000/svg" xmlns:xlink="http://www.w3.org/1999/xlink" id="linear-gradient-5" x1="379.827" x2="379.827" xlink:href="#linear-gradient" y1="436.774" y2="245.947"/><linearGradient xmlns="http://www.w3.org/2000/svg" xmlns:xlink="http://www.w3.org/1999/xlink" id="linear-gradient-6" x1="346.333" x2="346.333" xlink:href="#linear-gradient" y1="436.774" y2="245.947"/><linearGradient xmlns="http://www.w3.org/2000/svg" xmlns:xlink="http://www.w3.org/1999/xlink" id="linear-gradient-7" x1="420.426" x2="420.426" xlink:href="#linear-gradient" y1="436.774" y2="245.947"/><linearGradient xmlns="http://www.w3.org/2000/svg" xmlns:xlink="http://www.w3.org/1999/xlink" id="linear-gradient-8" x1="219.461" x2="219.461" xlink:href="#linear-gradient" y1="436.774" y2="245.947"/><linearGradient xmlns="http://www.w3.org/2000/svg" xmlns:xlink="http://www.w3.org/1999/xlink" id="linear-gradient-9" x1="265.135" x2="265.135" xlink:href="#linear-gradient" y1="436.774" y2="245.947"/><linearGradient xmlns="http://www.w3.org/2000/svg" xmlns:xlink="http://www.w3.org/1999/xlink" id="linear-gradient-10" x1="172.772" x2="172.772" xlink:href="#linear-gradient" y1="436.774" y2="245.947"/><linearGradient xmlns="http://www.w3.org/2000/svg" xmlns:xlink="http://www.w3.org/1999/xlink" id="linear-gradient-11" x1="135.218" x2="135.218" xlink:href="#linear-gradient" y1="436.774" y2="245.947"/><linearGradient xmlns="http://www.w3.org/2000/svg" xmlns:xlink="http://www.w3.org/1999/xlink" id="linear-gradient-12" x1="214.386" x2="214.386" xlink:href="#linear-gradient" y1="436.774" y2="245.947"/><linearGradient xmlns="http://www.w3.org/2000/svg" xmlns:xlink="http://www.w3.org/1999/xlink" id="linear-gradient-13" x1="231.641" x2="231.641" xlink:href="#linear-gradient" y1="436.774" y2="245.947"/><linearGradient xmlns="http://www.w3.org/2000/svg" xmlns:xlink="http://www.w3.org/1999/xlink" id="linear-gradient-14" x1="296.685" x2="296.685" xlink:href="#linear-gradient" y1="436.774" y2="245.947"/><linearGradient xmlns="http://www.w3.org/2000/svg" xmlns:xlink="http://www.w3.org/1999/xlink" id="linear-gradient-15" x1="256" x2="256" xlink:href="#linear-gradient" y1="436.774" y2="245.947"/><path xmlns="http://www.w3.org/2000/svg" d="m301.674 206.377a7.015 7.015 0 1 0 7.014 7.015 7.023 7.023 0 0 0 -7.014-7.015z" fill="url(#linear-gradient)" data-original="url(#linear-gradient)" style=""/><path xmlns="http://www.w3.org/2000/svg" d="m411.2 187a7.015 7.015 0 1 0 -7.014 7.015 7.022 7.022 0 0 0 7.014-7.015z" fill="url(#linear-gradient-2)" data-original="url(#linear-gradient-2)" style="" class=""/><path xmlns="http://www.w3.org/2000/svg" d="m411.292 214.5a7.015 7.015 0 1 0 7.015 7.015 7.024 7.024 0 0 0 -7.015-7.015z" fill="url(#linear-gradient-3)" data-original="url(#linear-gradient-3)" style="" class=""/><path xmlns="http://www.w3.org/2000/svg" d="m381.857 250.021a7.015 7.015 0 1 0 7.015 7.015 7.022 7.022 0 0 0 -7.015-7.015z" fill="url(#linear-gradient-4)" data-original="url(#linear-gradient-4)" style="" class=""/><path xmlns="http://www.w3.org/2000/svg" d="m379.827 222.437a7.015 7.015 0 1 0 -7.015-7.015 7.023 7.023 0 0 0 7.015 7.015z" fill="url(#linear-gradient-5)" data-original="url(#linear-gradient-5)" style="" class=""/><circle xmlns="http://www.w3.org/2000/svg" cx="346.333" cy="192.077" fill="url(#linear-gradient-6)" r="7.015" data-original="url(#linear-gradient-6)" style="" class=""/><path xmlns="http://www.w3.org/2000/svg" d="m420.427 153.6a7.015 7.015 0 1 0 7.014 7.015 7.024 7.024 0 0 0 -7.014-7.015z" fill="url(#linear-gradient-7)" data-original="url(#linear-gradient-7)" style="" class=""/><path xmlns="http://www.w3.org/2000/svg" d="m219.461 193.182a7.015 7.015 0 1 0 7.015 7.015 7.023 7.023 0 0 0 -7.015-7.015z" fill="url(#linear-gradient-8)" data-original="url(#linear-gradient-8)" style=""/><path xmlns="http://www.w3.org/2000/svg" d="m265.135 171.868a7.015 7.015 0 1 0 7.014 7.014 7.023 7.023 0 0 0 -7.014-7.014z" fill="url(#linear-gradient-9)" data-original="url(#linear-gradient-9)" style=""/><path xmlns="http://www.w3.org/2000/svg" d="m172.771 215.512a7.015 7.015 0 1 0 7.016 7.014 7.022 7.022 0 0 0 -7.016-7.014z" fill="url(#linear-gradient-10)" data-original="url(#linear-gradient-10)" style=""/><path xmlns="http://www.w3.org/2000/svg" d="m135.218 255.1a7.015 7.015 0 1 0 7.014 7.015 7.023 7.023 0 0 0 -7.014-7.015z" fill="url(#linear-gradient-11)" data-original="url(#linear-gradient-11)" style=""/><path xmlns="http://www.w3.org/2000/svg" d="m214.386 234.8a7.015 7.015 0 1 0 7.015 7.015 7.023 7.023 0 0 0 -7.015-7.015z" fill="url(#linear-gradient-12)" data-original="url(#linear-gradient-12)" style=""/><circle xmlns="http://www.w3.org/2000/svg" cx="231.641" cy="139.298" fill="url(#linear-gradient-13)" r="7.015" data-original="url(#linear-gradient-13)" style="" class=""/><path xmlns="http://www.w3.org/2000/svg" d="m293.555 128.045a6 6 0 0 0 5.591-8.175c-5.359-13.782 5.776-23.178 6.3-23.611a6 6 0 0 0 -7.522-9.35c-6.456 5.165-16.847 19.609-9.964 37.309a6 6 0 0 0 5.595 3.827z" fill="url(#linear-gradient-14)" data-original="url(#linear-gradient-14)" style=""/><path xmlns="http://www.w3.org/2000/svg" d="m496.418 167.409a9.048 9.048 0 0 0 -2.584-7.046l-93.288-40.556a60.884 60.884 0 0 0 -7.946-32.436c-.428-.781-.9-1.585-1.532-2.618a64.514 64.514 0 0 0 -40.691-29.553 65.668 65.668 0 0 0 -12.589-1.577 30.064 30.064 0 0 1 -.527-10.648c1.483-12.215 9.439-23.143 16.667-28.555a6 6 0 0 0 -7.194-9.606c-11.311 8.471-19.706 22.882-21.385 36.714a42.469 42.469 0 0 0 .337 12.785 74.119 74.119 0 0 0 -29.315 11 82.3 82.3 0 0 0 -6.888 4.9c-1.556 1.227-3.051 2.546-4.485 3.926l-32.218-15.139a6 6 0 0 0 -7.23 1.676l-228.686 285.011a5.975 5.975 0 0 0 -1.31 3.757h-.014v150.171h.005a5.991 5.991 0 0 0 8.115 5.613l389.855-147.251a19.549 19.549 0 0 0 36.737-9.317v-4.56l42.324-15.987a6 6 0 0 0 3.885-5.609v-155.095zm-205.6-82.052a48.63 48.63 0 0 1 6.11-5.735 70.281 70.281 0 0 1 5.911-4.2 61.9 61.9 0 0 1 26.881-9.537 42.235 42.235 0 0 0 4.62 6.915 6 6 0 0 0 9.975-6.547c1.14.182 2.274.39 3.4.645 13.9 3.166 25.357 11.517 33.133 24.139.427.7.843 1.393 1.264 2.16a48.848 48.848 0 0 1 5.67 33.183c-3.55 19.245-18.053 33.868-38.8 39.116a65.425 65.425 0 0 1 -26.248.97l-2.827-.441c-17.77-2.776-32.029-14.711-38.144-31.924-6.079-17.116-2.615-35.789 9.054-48.744zm120.33 260.687-383.608 144.891v-48.262l103.645-40.513a6 6 0 0 0 -4.37-11.177l-99.275 38.806v-76.227l317.347-122.2a7.677 7.677 0 0 1 6.218.466 9.279 9.279 0 0 1 4.7 7.979v61.675l-188.989 73.866a6 6 0 1 0 4.369 11.177l184.9-72.264a19.567 19.567 0 0 0 19.033 16.393c10.885.132 19.792-9.145 19.792-20.031v-11.537l16.238-6.346zm-16.238-59.844v-.321a8.111 8.111 0 0 1 14.288-5.263zm43.342-82.3v144.76a7.552 7.552 0 1 1 -15.1 0v-62.779a20.119 20.119 0 0 0 -40.238 0v25.219a7.552 7.552 0 1 1 -15.1 0v-71.289a21.31 21.31 0 0 0 -10.71-18.376 19.723 19.723 0 0 0 -16.132-1.411c-.087.029-.173.06-.259.093l-300.572 115.734 211.812-263.978 25.019 11.75a60.805 60.805 0 0 0 -6.517 54.5c7.613 21.431 25.407 36.3 47.6 39.763l2.828.442a83.77 83.77 0 0 0 12.908 1.022 73.811 73.811 0 0 0 18.133-2.215c24.146-6.109 41.423-22.809 46.883-45.029l80.556 34.623-21.19 8.159a31.287 31.287 0 0 0 -19.921 29.017zm46.208 114.453-34.208 12.92v-53.818l34.208-13.37zm0-67.152-34.208 13.37v-60.666a19.212 19.212 0 0 1 12.235-17.822l21.973-8.461z" fill="url(#linear-gradient-15)" data-original="url(#linear-gradient-15)" style="" class=""/></g></svg>
