<?xml version="1.0"?>
<svg xmlns="http://www.w3.org/2000/svg" xmlns:xlink="http://www.w3.org/1999/xlink" xmlns:svgjs="http://svgjs.com/svgjs" version="1.1" width="512" height="512" x="0" y="0" viewBox="0 0 480 480" style="enable-background:new 0 0 512 512" xml:space="preserve" class=""><g><linearGradient xmlns="http://www.w3.org/2000/svg" id="a"><stop stop-opacity="1" stop-color="#124095" offset="0"/><stop stop-opacity="1" stop-color="#c00808" offset="1"/></linearGradient><linearGradient xmlns="http://www.w3.org/2000/svg" xmlns:xlink="http://www.w3.org/1999/xlink" id="b" gradientUnits="userSpaceOnUse" x1="240" x2="240" xlink:href="#a" y1="478.512" y2="-16.184"/><linearGradient xmlns="http://www.w3.org/2000/svg" xmlns:xlink="http://www.w3.org/1999/xlink" id="c" gradientUnits="userSpaceOnUse" x1="136" x2="136" xlink:href="#a" y1="478.512" y2="-16.184"/><linearGradient xmlns="http://www.w3.org/2000/svg" xmlns:xlink="http://www.w3.org/1999/xlink" id="d" gradientUnits="userSpaceOnUse" x1="96" x2="96" xlink:href="#a" y1="478.512" y2="-16.184"/><linearGradient xmlns="http://www.w3.org/2000/svg" xmlns:xlink="http://www.w3.org/1999/xlink" id="e" gradientUnits="userSpaceOnUse" x1="144" x2="144" xlink:href="#a" y1="478.512" y2="-16.184"/><linearGradient xmlns="http://www.w3.org/2000/svg" xmlns:xlink="http://www.w3.org/1999/xlink" id="f" gradientUnits="userSpaceOnUse" x1="184" x2="184" xlink:href="#a" y1="478.512" y2="-16.184"/><linearGradient xmlns="http://www.w3.org/2000/svg" xmlns:xlink="http://www.w3.org/1999/xlink" id="g" gradientUnits="userSpaceOnUse" x1="344" x2="344" xlink:href="#a" y1="478.512" y2="-16.184"/><linearGradient xmlns="http://www.w3.org/2000/svg" xmlns:xlink="http://www.w3.org/1999/xlink" id="h" gradientUnits="userSpaceOnUse" x1="304" x2="304" xlink:href="#a" y1="478.512" y2="-16.184"/><linearGradient xmlns="http://www.w3.org/2000/svg" xmlns:xlink="http://www.w3.org/1999/xlink" id="i" gradientUnits="userSpaceOnUse" x1="352" x2="352" xlink:href="#a" y1="478.512" y2="-16.184"/><linearGradient xmlns="http://www.w3.org/2000/svg" xmlns:xlink="http://www.w3.org/1999/xlink" id="j" gradientUnits="userSpaceOnUse" x1="392" x2="392" xlink:href="#a" y1="478.512" y2="-16.184"/><path xmlns="http://www.w3.org/2000/svg" d="m472 128c4.417969 0 8-3.582031 8-8v-48c-.042969-39.746094-32.253906-71.9570312-72-72h-336c-39.746094.0429688-71.9570312 32.253906-72 72v48c0 4.417969 3.582031 8 8 8h24v224h-8c-4.417969 0-8 3.582031-8 8v24h-8c-4.417969 0-8 3.582031-8 8v32c.0351562 30.914062 25.085938 55.964844 56 56h368c30.914062-.035156 55.964844-25.085938 56-56v-32c0-4.417969-3.582031-8-8-8h-8v-24c0-4.417969-3.582031-8-8-8h-8v-224zm-456-56c.035156-30.914062 25.085938-55.964844 56-56h336c30.914062.035156 55.964844 25.085938 56 56v40h-448zm304 88h16v16h-16zm-16-16c-10.167969-.011719-19.230469-6.417969-22.632812-16h93.265624c-3.402343 9.582031-12.464843 15.988281-22.632812 16zm-160 16h16v16h-16zm-16-16c-10.167969-.011719-19.230469-6.417969-22.632812-16h93.265624c-3.402343 9.582031-12.464843 15.988281-22.632812 16zm336 280c-.027344 22.082031-17.917969 39.972656-40 40h-368c-22.082031-.027344-39.972656-17.917969-40-40v-24h448zm-432-40v-16h416v16zm64-88v-30.457031l11.199219 2.25c13.878906 2.757812 28.214843 2.144531 41.808593-1.785157l15.800782-4.59375c12.082031-3.492187 24.867187-3.769531 37.085937-.796874l6.074219 1.472656v33.910156c0 30.929688-25.074219 56-56 56-30.929688 0-56-25.070312-56-56zm112-50.398438-2.289062-.5625c-14.941407-3.621093-30.566407-3.273437-45.335938 1l-15.800781 4.59375c-11.117188 3.214844-22.84375 3.71875-34.199219 1.464844l-14.398438-2.882812v-25.214844h112.023438zm64 50.398438v-30.457031l11.199219 2.25c13.878906 2.757812 28.214843 2.144531 41.808593-1.785157l15.800782-4.59375c12.082031-3.492187 24.867187-3.769531 37.085937-.796874l6.074219 1.472656v33.910156c0 30.929688-25.074219 56-56 56-30.929688 0-56-25.070312-56-56zm112-50.398438-2.289062-.5625c-14.941407-3.621093-30.566407-3.273437-45.335938 1l-15.800781 4.59375c-11.117188 3.214844-22.84375 3.71875-34.199219 1.464844l-14.398438-2.882812v-25.214844h112.023438zm48 106.398438h-58.847656c16.96875-13.636719 26.84375-34.230469 26.847656-56v-80c0-4.417969-3.582031-8-8-8h-128c-4.417969 0-8 3.582031-8 8v80c.003906 21.769531 9.878906 42.363281 26.847656 56h-85.695312c16.96875-13.636719 26.84375-34.230469 26.847656-56v-80c0-4.417969-3.582031-8-8-8h-128c-4.417969 0-8 3.582031-8 8v80c.003906 21.769531 9.878906 42.363281 26.847656 56h-58.847656v-224h40.800781c3.828125 18.613281 20.199219 31.976562 39.199219 32v24c0 4.417969 3.582031 8 8 8h32c4.417969 0 8-3.582031 8-8v-24c19-.023438 35.371094-13.386719 39.199219-32h49.601562c3.828125 18.613281 20.199219 31.976562 39.199219 32v24c0 4.417969 3.582031 8 8 8h32c4.417969 0 8-3.582031 8-8v-24c19-.023438 35.371094-13.386719 39.199219-32h40.800781zm0 0" fill="url(#b)" data-original="url(#b)" style="" class=""/><path xmlns="http://www.w3.org/2000/svg" d="m440 416c-4.417969 0-8 3.582031-8 8s-3.582031 8-8 8h-368c-4.417969 0-8-3.582031-8-8s-3.582031-8-8-8-8 3.582031-8 8c0 13.253906 10.746094 24 24 24h368c13.253906 0 24-10.746094 24-24 0-4.417969-3.582031-8-8-8zm0 0" fill="url(#b)" data-original="url(#b)" style="" class=""/><path xmlns="http://www.w3.org/2000/svg" d="m72 104h128c13.253906 0 24-10.746094 24-24v-32c0-13.253906-10.746094-24-24-24h-128c-13.253906 0-24 10.746094-24 24v32c0 13.253906 10.746094 24 24 24zm-8-56c0-4.417969 3.582031-8 8-8h128c4.417969 0 8 3.582031 8 8v32c0 4.417969-3.582031 8-8 8h-128c-4.417969 0-8-3.582031-8-8zm0 0" fill="url(#c)" data-original="url(#c)" style=""/><path xmlns="http://www.w3.org/2000/svg" d="m72 64c0 13.253906 10.746094 24 24 24s24-10.746094 24-24-10.746094-24-24-24-24 10.746094-24 24zm24-8c4.417969 0 8 3.582031 8 8s-3.582031 8-8 8-8-3.582031-8-8 3.582031-8 8-8zm0 0" fill="url(#d)" data-original="url(#d)" style=""/><path xmlns="http://www.w3.org/2000/svg" d="m136 72h16c4.417969 0 8-3.582031 8-8s-3.582031-8-8-8h-16c-4.417969 0-8 3.582031-8 8s3.582031 8 8 8zm0 0" fill="url(#e)" data-original="url(#e)" style=""/><path xmlns="http://www.w3.org/2000/svg" d="m176 72h16c4.417969 0 8-3.582031 8-8s-3.582031-8-8-8h-16c-4.417969 0-8 3.582031-8 8s3.582031 8 8 8zm0 0" fill="url(#f)" data-original="url(#f)" style=""/><path xmlns="http://www.w3.org/2000/svg" d="m280 104h128c13.253906 0 24-10.746094 24-24v-32c0-13.253906-10.746094-24-24-24h-128c-13.253906 0-24 10.746094-24 24v32c0 13.253906 10.746094 24 24 24zm-8-56c0-4.417969 3.582031-8 8-8h128c4.417969 0 8 3.582031 8 8v32c0 4.417969-3.582031 8-8 8h-128c-4.417969 0-8-3.582031-8-8zm0 0" fill="url(#g)" data-original="url(#g)" style=""/><path xmlns="http://www.w3.org/2000/svg" d="m280 64c0 13.253906 10.746094 24 24 24s24-10.746094 24-24-10.746094-24-24-24-24 10.746094-24 24zm24-8c4.417969 0 8 3.582031 8 8s-3.582031 8-8 8-8-3.582031-8-8 3.582031-8 8-8zm0 0" fill="url(#h)" data-original="url(#h)" style=""/><path xmlns="http://www.w3.org/2000/svg" d="m344 72h16c4.417969 0 8-3.582031 8-8s-3.582031-8-8-8h-16c-4.417969 0-8 3.582031-8 8s3.582031 8 8 8zm0 0" fill="url(#i)" data-original="url(#i)" style=""/><path xmlns="http://www.w3.org/2000/svg" d="m384 72h16c4.417969 0 8-3.582031 8-8s-3.582031-8-8-8h-16c-4.417969 0-8 3.582031-8 8s3.582031 8 8 8zm0 0" fill="url(#j)" data-original="url(#j)" style=""/></g></svg>
