<?xml version="1.0"?>
<svg xmlns="http://www.w3.org/2000/svg" xmlns:xlink="http://www.w3.org/1999/xlink" xmlns:svgjs="http://svgjs.com/svgjs" version="1.1" width="512" height="512" x="0" y="0" viewBox="0 0 512 512" style="enable-background:new 0 0 512 512" xml:space="preserve" class=""><g><defs xmlns="http://www.w3.org/2000/svg"><linearGradient id="linear-gradient" x1="46.771" y1="490.084" x2="374.084" y2="162.771" gradientUnits="userSpaceOnUse"><stop stop-opacity="1" stop-color="#124095" offset="0"/><stop stop-opacity="1" stop-color="#c00808" offset="1"/></linearGradient></defs><g xmlns="http://www.w3.org/2000/svg" id="gradient"><path d="M457.994,288H427.919l.635-7.307a8,8,0,0,0-7.97-8.693H267.24l4.72-47.2A8,8,0,0,0,264,216h-3.053l2.461-32H264a8,8,0,0,0,8-8V144a8,8,0,0,0-8-8h-1.754l-6.485-25.94A8,8,0,0,0,248,104H210.474l21.244-77.9A8,8,0,0,0,224,16H192a8,8,0,0,0-7.718,5.9L161.89,104H40a8,8,0,0,0-7.761,6.06L25.754,136H24a8,8,0,0,0-8,8v32a8,8,0,0,0,8,8h.592l2.461,32H24a8,8,0,0,0-7.96,8.8l16,160A8,8,0,0,0,40,392h.592l7.431,96.613A8,8,0,0,0,56,496H418a46.053,46.053,0,0,0,46-46V440a8,8,0,0,0-8-8H404.209a90.255,90.255,0,0,0,8.511-16h37.846a38.187,38.187,0,0,0,37.618-32.626l7.428-52A38,38,0,0,0,457.994,288Zm-34.249,48h19.4l-5.333,32H420.962ZM32,152H256v16H32ZM198.11,32h15.416L193.89,104H178.474ZM46.246,120H241.754l4,16H42.246Zm-5.607,64H247.361L244.9,216H43.1Zm-7.8,48H255.16l-4,40h-69.2a55.941,55.941,0,1,0-4.073,69.269L180.9,376H47.24Zm140.569,57.823,1.883,21.662a39.986,39.986,0,1,1-1.883-21.662ZM56.639,392h125.7a90.373,90.373,0,0,0,14.6,40H152a8,8,0,0,0-8,8v8H128a8,8,0,0,0,0,16h18.186a45.978,45.978,0,0,0,8.987,16H63.408ZM448,450a30.034,30.034,0,0,1-30,30H190a30.034,30.034,0,0,1-30-30v-2H448ZM217.232,432a74.237,74.237,0,0,1-19.19-43.59L189.31,288H411.859l-8.732,100.41A74.111,74.111,0,0,1,383.956,432ZM479.773,329.11l-7.428,52A22.109,22.109,0,0,1,450.566,400h-33a89.646,89.646,0,0,0,1.5-10.2l.5-5.8H441.2a11.963,11.963,0,0,0,11.837-10.027l6.667-40A12,12,0,0,0,447.863,320H425.136l1.392-16h31.466a22,22,0,0,1,21.779,25.11ZM297.926,233.46c1.745-2.037,2.074-2.473,2.074-4.128s-.329-2.091-2.074-4.127c-2.36-2.753-5.926-6.914-5.926-14.54a21.709,21.709,0,0,1,.4-4.228,8,8,0,1,1,15.691,3.126,5.769,5.769,0,0,0-.094,1.1c0,1.655.329,2.091,2.074,4.128,2.36,2.753,5.926,6.913,5.926,14.539s-3.566,11.787-5.926,14.54C308.329,245.909,308,246.345,308,248a8,8,0,0,1-16,0C292,240.374,295.566,236.213,297.926,233.46Zm40,0c1.745-2.037,2.074-2.473,2.074-4.128s-.329-2.091-2.074-4.127c-2.36-2.753-5.926-6.914-5.926-14.54a21.709,21.709,0,0,1,.4-4.228,8,8,0,1,1,15.691,3.126,5.769,5.769,0,0,0-.094,1.1c0,1.655.329,2.091,2.074,4.128,2.36,2.753,5.926,6.913,5.926,14.539s-3.566,11.787-5.926,14.54C348.329,245.909,348,246.345,348,248a8,8,0,0,1-16,0C332,240.374,335.566,236.213,337.926,233.46Zm49.632,135.716-.582,7.447A8,8,0,0,1,379.009,384c-.21,0-.42-.008-.633-.024a8,8,0,0,1-7.352-8.6l.582-7.447a8,8,0,1,1,15.952,1.246Zm4.418-56.553-2.408,30.815a8,8,0,0,1-7.966,7.377c-.21,0-.42-.007-.632-.024a8,8,0,0,1-7.353-8.6l2.407-30.815a8,8,0,1,1,15.952,1.246ZM104,456a8,8,0,0,1-8,8H88a8,8,0,0,1,0-16h8A8,8,0,0,1,104,456Z" style="fill:url(#linear-gradient)" fill=""/></g></g></svg>
