<?xml version="1.0" encoding="UTF-8"?>
<svg xmlns="http://www.w3.org/2000/svg" xmlns:xlink="http://www.w3.org/1999/xlink" xmlns:svgjs="http://svgjs.com/svgjs" version="1.1" width="512" height="512" x="0" y="0" viewBox="0 0 512 512" style="enable-background:new 0 0 512 512" xml:space="preserve" class="">
  <g transform="matrix(-1,0,0,1,511.9999923706056,0)">
    <linearGradient xmlns="http://www.w3.org/2000/svg" id="a" gradientUnits="userSpaceOnUse" x1="2.315" x2="512.548" y1="517.685" y2="7.452" data-name="New Gradient Swatch 1">
      <stop stop-opacity="1" stop-color="#124095" offset="0"/>
      <stop stop-opacity="1" stop-color="#c00808" offset="0.5154440154440154"/>
      <stop stop-opacity="1" stop-color="#124095" offset="1"/>
    </linearGradient>
    <linearGradient xmlns="http://www.w3.org/2000/svg" xmlns:xlink="http://www.w3.org/1999/xlink" id="b" x1="166.315" x2="676.548" xlink:href="#a" y1="681.685" y2="171.452"/>
    <linearGradient xmlns="http://www.w3.org/2000/svg" xmlns:xlink="http://www.w3.org/1999/xlink" id="c" x1="-23.685" x2="486.548" xlink:href="#a" y1="491.685" y2="-18.548"/>
    <linearGradient xmlns="http://www.w3.org/2000/svg" xmlns:xlink="http://www.w3.org/1999/xlink" id="d" x1="42.315" x2="552.548" xlink:href="#a" y1="557.685" y2="47.452"/>
    <linearGradient xmlns="http://www.w3.org/2000/svg" xmlns:xlink="http://www.w3.org/1999/xlink" id="e" x1="22.316" x2="532.548" xlink:href="#a" y1="537.686" y2="27.453"/>
    <linearGradient xmlns="http://www.w3.org/2000/svg" xmlns:xlink="http://www.w3.org/1999/xlink" id="f" x1="68.315" x2="578.548" xlink:href="#a" y1="583.685" y2="73.452"/>
    <g xmlns="http://www.w3.org/2000/svg">
      <path d="m96 400a24 24 0 1 0 24 24 24.027 24.027 0 0 0 -24-24zm0 32a8 8 0 1 1 8-8 8.009 8.009 0 0 1 -8 8z" fill="url(#a)" data-original="url(#a)" style="" class=""/>
      <path d="m424 400a24 24 0 1 0 24 24 24.027 24.027 0 0 0 -24-24zm0 32a8 8 0 1 1 8-8 8.009 8.009 0 0 1 -8 8z" fill="url(#b)" data-original="url(#b)" style=""/>
      <path d="m120 344h24a8 8 0 0 0 0-16h-24a8 8 0 0 0 0 16z" fill="url(#c)" data-original="url(#c)" style="" class=""/>
      <path d="m476 96h-280a28.031 28.031 0 0 0 -28 28v84h-88a8.033 8.033 0 0 0 -6.66 3.56l-64 96a8.066 8.066 0 0 0 -1.34 4.44v92a28.031 28.031 0 0 0 28 28h12.68a47.99 47.99 0 0 0 94.64 0h233.36a47.99 47.99 0 0 0 94.64 0h4.68a28.031 28.031 0 0 0 28-28v-280a28.031 28.031 0 0 0 -28-28zm-407.72 152h67.72v56h-105.05zm-44.28 104h16a8 8 0 0 1 0 16h-16zm72 104a32 32 0 1 1 32-32 32.036 32.036 0 0 1 -32 32zm72-40h-24.68a47.99 47.99 0 0 0 -94.64 0h-12.68a12.01 12.01 0 0 1 -12-12v-20h16a24 24 0 0 0 0-48h-16v-16h120a8 8 0 0 0 8-8v-72a8 8 0 0 0 -8-8h-65.05l5.33-8h83.72zm256 40a32 32 0 1 1 32-32 32.036 32.036 0 0 1 -32 32zm64-52a12.01 12.01 0 0 1 -12 12h-4.68a47.99 47.99 0 0 0 -94.64 0h-192.68v-64h304zm0-68h-304v-212a12.01 12.01 0 0 1 12-12h280a12.01 12.01 0 0 1 12 12z" fill="url(#d)" data-original="url(#d)" style="" class=""/>
      <path d="m456 240h-104v-8h48a8 8 0 0 0 0-16h-48v-16a7.987 7.987 0 0 0 -3.76-6.78l-64-40a7.964 7.964 0 0 0 -8.48 0l-64 40a7.987 7.987 0 0 0 -3.76 6.78v88a8 8 0 0 0 8 8h128a8 8 0 0 0 8-8v-8h32a8 8 0 0 0 0-16h-32v-8h104a8 8 0 0 0 0-16zm-168 40h-16v-32h16zm48 0h-32v-40a8 8 0 0 0 -8-8h-32a8 8 0 0 0 -8 8v40h-32v-75.57l56-35 56 35z" fill="url(#e)" data-original="url(#e)" style="" class=""/>
      <path d="m424 232h8a8 8 0 0 0 0-16h-8a8 8 0 0 0 0 16z" fill="url(#f)" data-original="url(#f)" style=""/>
    </g>
  </g>
</svg>
