<?xml version="1.0"?>
<svg xmlns="http://www.w3.org/2000/svg" xmlns:xlink="http://www.w3.org/1999/xlink" xmlns:svgjs="http://svgjs.com/svgjs" version="1.1" width="512" height="512" x="0" y="0" viewBox="0 0 64 64" style="enable-background:new 0 0 512 512" xml:space="preserve" class=""><g><linearGradient xmlns="http://www.w3.org/2000/svg" id="New_Gradient_Swatch_1" gradientUnits="userSpaceOnUse" x1="32" x2="32" y1="-2.571" y2="63.154"><stop stop-opacity="1" stop-color="#c00808" offset="0"/><stop stop-opacity="1" stop-color="#c00808" offset="0"/><stop stop-opacity="1" stop-color="#c00808" offset="0"/><stop stop-opacity="1" stop-color="#c00808" offset="0"/><stop stop-opacity="1" stop-color="#c00808" offset="0"/><stop stop-opacity="1" stop-color="#c00808" offset="0"/><stop stop-opacity="1" stop-color="#124095" offset="1"/><stop stop-opacity="1" stop-color="#124095" offset="1"/></linearGradient><g xmlns="http://www.w3.org/2000/svg" id="dish-knife-fork-food-restaurant"><path d="m32 2a29.992 29.992 0 0 0 -10 58.27v.73a1 1 0 0 0 1 1h4a.952.952 0 0 0 .72-.32 29.051 29.051 0 0 0 4.28.32 30.011 30.011 0 0 0 6.08-.63.981.981 0 0 0 .92.63h4a1 1 0 0 0 1-1v-1.53a29.985 29.985 0 0 0 -12-57.47zm-5 30a1 1 0 0 0 -1 1v27h-2v-27a1 1 0 0 0 -1-1h-3v-9.86l2.04 7.13a1 1 0 0 0 1.95-.13l1.01-7.07 1.01 7.07a1 1 0 0 0 1.95.13l2.04-7.13v9.86zm11 27.35a28 28 0 0 1 -10 .35v-2.01a25.385 25.385 0 0 0 4 .31 26.253 26.253 0 0 0 6-.71zm4 .65h-2v-19a1 1 0 0 0 -1-1h-3v-17a7.013 7.013 0 0 1 6-6.93zm1-46a9.014 9.014 0 0 0 -9 9v18a1 1 0 0 0 1 1h3v13.23a24.278 24.278 0 0 1 -10 .43v-21.66h3a1 1 0 0 0 1-1v-18a1 1 0 0 0 -1.96-.27l-2.71 9.49-1.34-9.36a1 1 0 0 0 -1.98 0l-1.34 9.36-2.71-9.49a1 1 0 0 0 -1.96.27v18a1 1 0 0 0 1 1h3v19.8a23.993 23.993 0 1 1 34-21.8 23.823 23.823 0 0 1 -12 20.77v-37.77a1 1 0 0 0 -1-1zm1 43.28v-2.24a25.991 25.991 0 1 0 -38-23.04 26.188 26.188 0 0 0 16 23.98v2.15a27.994 27.994 0 1 1 22-.85z" fill="url(#New_Gradient_Swatch_1)" data-original="url(#New_Gradient_Swatch_1)" style=""/></g></g></svg>
