<?xml version="1.0"?>
<svg xmlns="http://www.w3.org/2000/svg" xmlns:xlink="http://www.w3.org/1999/xlink" xmlns:svgjs="http://svgjs.com/svgjs" version="1.1" width="512" height="512" x="0" y="0" viewBox="0 0 64 64" style="enable-background:new 0 0 512 512" xml:space="preserve" class=""><g><linearGradient xmlns="http://www.w3.org/2000/svg" id="gradient_ice" gradientUnits="userSpaceOnUse" x1="-8.028" x2="69.569" y1="68.394" y2="-4.931"><stop stop-opacity="1" stop-color="#124095" offset="0"/><stop stop-opacity="1" stop-color="#c00808" offset="1"/></linearGradient><linearGradient xmlns="http://www.w3.org/2000/svg" xmlns:xlink="http://www.w3.org/1999/xlink" id="gradient_ice-2" x1="-31.587" x2="46.01" xlink:href="#gradient_ice" y1="43.463" y2="-29.862"/><linearGradient xmlns="http://www.w3.org/2000/svg" xmlns:xlink="http://www.w3.org/1999/xlink" id="gradient_ice-3" x1="-29.7" x2="47.897" xlink:href="#gradient_ice" y1="45.46" y2="-27.866"/><linearGradient xmlns="http://www.w3.org/2000/svg" xmlns:xlink="http://www.w3.org/1999/xlink" id="gradient_ice-4" x1="-27.813" x2="49.783" xlink:href="#gradient_ice" y1="47.456" y2="-25.869"/><linearGradient xmlns="http://www.w3.org/2000/svg" xmlns:xlink="http://www.w3.org/1999/xlink" id="gradient_ice-5" x1="-2.27" x2="75.326" xlink:href="#gradient_ice" y1="74.487" y2="1.162"/><path xmlns="http://www.w3.org/2000/svg" d="m59 2h-54a3 3 0 0 0 -3 3v52a1 1 0 0 0 1 1h5v3a1 1 0 0 0 1 1h6a1 1 0 0 0 1-1v-3h32v3a1 1 0 0 0 1 1h6a1 1 0 0 0 1-1v-3h5a1 1 0 0 0 1-1v-52a3 3 0 0 0 -3-3zm1 31h-56v-2h56zm-36.1-8a5 5 0 0 0 -9.8 0h-4.041a9 9 0 0 1 17.882 0zm-2.083 0h-5.633a2.982 2.982 0 0 1 5.632 0zm35.183 2v2h-50v-2zm-7.1-2a5 5 0 0 0 -9.8 0h-4.041a9 9 0 0 1 17.882 0zm-2.083 0h-5.633a2.982 2.982 0 0 1 5.632 0zm11.183 4v-3a1 1 0 0 0 -1-1h-2.051a10.994 10.994 0 0 0 -21.9 0h-4.1a10.994 10.994 0 0 0 -21.9 0h-2.049a1 1 0 0 0 -1 1v3h-1v-17h56v17zm-54-25h54a1 1 0 0 1 1 1v5h-56v-5a1 1 0 0 1 1-1zm9 56h-4v-2h4zm40 0h-4v-2h4zm-47-4v-17h50v17zm52 0v-18a1 1 0 0 0 -1-1h-52a1 1 0 0 0 -1 1v18h-1v-21h56v21z" fill="url(#gradient_ice)" data-original="url(#gradient_ice)" style="" class=""/><path xmlns="http://www.w3.org/2000/svg" d="m6 6h2v2h-2z" fill="url(#gradient_ice-2)" data-original="url(#gradient_ice-2)" style=""/><path xmlns="http://www.w3.org/2000/svg" d="m10 6h2v2h-2z" fill="url(#gradient_ice-3)" data-original="url(#gradient_ice-3)" style=""/><path xmlns="http://www.w3.org/2000/svg" d="m14 6h2v2h-2z" fill="url(#gradient_ice-4)" data-original="url(#gradient_ice-4)" style=""/><path xmlns="http://www.w3.org/2000/svg" d="m26 43h1.1a5 5 0 0 0 9.8 0h1.1v-2h-12zm6 2a3 3 0 0 1 -2.816-2h5.632a3 3 0 0 1 -2.816 2z" fill="url(#gradient_ice-5)" data-original="url(#gradient_ice-5)" style=""/></g></svg>
