<?xml version="1.0"?>
<svg xmlns="http://www.w3.org/2000/svg" xmlns:xlink="http://www.w3.org/1999/xlink" xmlns:svgjs="http://svgjs.com/svgjs" version="1.1" width="512" height="512" x="0" y="0" viewBox="0 0 496.808 496" style="enable-background:new 0 0 512 512" xml:space="preserve" class=""><g transform="matrix(1,0,0,1,0,0)"><linearGradient xmlns="http://www.w3.org/2000/svg" id="a" gradientUnits="userSpaceOnUse" x1="248.404" x2="248.404" y1="496.404" y2=".404"><stop stop-opacity="1" stop-color="#124095" offset="0"/><stop stop-opacity="1" stop-color="#c00808" offset="1"/></linearGradient><path xmlns="http://www.w3.org/2000/svg" d="m112 328.402344h-16v-16h16zm40-24h-16v16h16zm32 0h-16v16h16zm40 8h-16v16h16zm272.808594-222.398438-16.402344 139.441406 16.179688 5.390626-25.320313 261.566406h-415.265625c-22.054688 0-40-17.941406-40-40v-16h.246094c-9.796875-7.292969-16.246094-18.871094-16.246094-32 0-13.125 6.449219-24.703125 16.246094-32h-.246094c0-57.34375 46.65625-104 104-104h80c3.9375 0 7.808594.265625 11.625.699218l-4.304688-38.234374 8.40625-2.800782-33.3125-149.902344 44.433594-8.886718-4.085937-23.183594 55.511719-11.105469 3.238281 16.191407 30.488281-12.191407v-42.585937h64v33.226562l29.03125 4.839844 4.648438-23.226562 63.34375 10.554687-8.253907 57.800781zm-42.28125 7.871094-13.40625 80.472656c11.664062 8.566406 20.445312 18.894532 25.605468 30.382813l12.464844-105.925781zm-45.566406 63.855469c6.167968 2.175781 12.015624 4.664062 17.453124 7.496093l15.050782-90.285156 7.582031 1.519532 5.921875-41.441407-32.65625-5.449219-1.503906 7.53125 4.136718.6875zm-32.960938-7.773438c6.007812.78125 11.792969 1.910157 17.425781 3.253907l13.621094-102.191407-31.046875-5.175781zm-48 0c7.734375-1.007812 15.753906-1.554687 24-1.554687 2.703125 0 5.34375.136718 8 .25v-136.25h-32zm-43.296875-82.816406 17.648437 88.261719c3.144532-.925782 6.351563-1.765625 9.640626-2.519532v-96.664062zm-43.464844-8.425781 20.546875 116.417968c7.359375-5.554687 15.871094-10.410156 25.328125-14.394531l-21.394531-106.917969zm-10.253906 164.257812 1.320313-.441406c1.304687-12.527344 6.824218-24.144531 15.535156-34.328125l-18.207032-103.175781-28.058593 5.609375zm-198.617187 142.199219c2.472656-.480469 5.015624-.769531 7.632812-.769531h240c2.617188 0 5.160156.289062 7.632812.769531-3.695312-45.144531-41.554687-80.769531-87.632812-80.769531h-80c-46.078125 0-83.9375 35.625-87.632812 80.769531zm287.632812 39.230469c0 .394531-.105469.753906-.113281 1.144531 10.113281 4.464844 20.867187 6.855469 32.113281 6.855469 44.113281 0 80-35.886719 80-80 0-44.109375-35.886719-80-80-80-33.199219 0-62.558594 20.289062-74.488281 50.90625 16.417969 18.390625 26.488281 42.558594 26.488281 69.09375h-.246094c9.796875 7.296875 16.246094 18.875 16.246094 32zm-270.527344-24c3.3125 9.289062 12.113282 16 22.527344 16 4.128906 0 8.160156-1.125 11.976562-3.351563l4.023438-2.34375 4.023438 2.34375c7.632812 4.457031 16.3125 4.457031 23.945312 0l4.03125-2.34375 4.023438 2.34375c7.632812 4.457031 16.3125 4.457031 23.945312 0l4.03125-2.34375 4.023438 2.34375c3.816406 2.226563 7.847656 3.351563 11.976562 3.351563 10.414062 0 19.214844-6.710938 22.527344-16zm-9.472656 48h240c13.230469 0 24-10.765625 24-24 0-13.230469-10.769531-24-24-24h-72.808594c-3.71875 18.234375-19.871094 32-39.191406 32-5.519531 0-10.886719-1.160156-16-3.453125-10.222656 4.589843-21.777344 4.589843-32 0-10.222656 4.589843-21.777344 4.589843-32 0-5.113281 2.292969-10.480469 3.453125-16 3.453125-18.902344 0-34.703125-13.222656-38.855469-30.878906-9.878906 2.96875-17.144531 12.039062-17.144531 22.878906 0 13.234375 10.769531 24 24 24zm248 15.195312c-2.585938.527344-5.265625.804688-8 .804688h-240c-2.734375 0-5.414062-.277344-8-.804688v8.804688c0 13.234375 10.769531 24 24 24h208c13.230469 0 24-10.765625 24-24zm191.425781-201.625-23.425781-7.800781v-5.769531c0-35.886719-45.679688-64-104-64s-104 28.113281-104 64v5.769531l-23.328125 7.777344 3.417969 30.421875c13.71875 3.855468 26.300781 10.410156 37.101562 19.128906 15.679688-33.359375 49.183594-55.097656 86.808594-55.097656 52.9375 0 96 43.066406 96 96 0 52.9375-43.0625 96-96 96-12.503906 0-24.519531-2.453125-35.894531-7.0625-2.824219 6-7.082031 11.144531-12.351563 15.0625h.246094v16c0 9.042968-3.128906 17.296875-8.207031 24h160.941406zm0 0" fill="url(#a)" data-original="url(#a)" style="" class=""/></g></svg>
