<?xml version="1.0"?>
<svg xmlns="http://www.w3.org/2000/svg" xmlns:xlink="http://www.w3.org/1999/xlink" xmlns:svgjs="http://svgjs.com/svgjs" version="1.1" width="512" height="512" x="0" y="0" viewBox="0 0 496 496" style="enable-background:new 0 0 512 512" xml:space="preserve" class=""><g><linearGradient xmlns="http://www.w3.org/2000/svg" id="a"><stop stop-opacity="1" stop-color="#124095" offset="0"/><stop stop-opacity="1" stop-color="#124095" offset="0.11196911196911197"/><stop stop-opacity="1" stop-color="#c00808" offset="0.7915057915057915"/></linearGradient><linearGradient xmlns="http://www.w3.org/2000/svg" xmlns:xlink="http://www.w3.org/1999/xlink" id="b" gradientUnits="userSpaceOnUse" x1="25.048" x2="502.512" xlink:href="#a" y1="510.72" y2="33.264"/><linearGradient xmlns="http://www.w3.org/2000/svg" xmlns:xlink="http://www.w3.org/1999/xlink" id="c" gradientUnits="userSpaceOnUse" x1="33.16" x2="510.624" xlink:href="#a" y1="518.84" y2="41.376"/><linearGradient xmlns="http://www.w3.org/2000/svg" xmlns:xlink="http://www.w3.org/1999/xlink" id="d" gradientUnits="userSpaceOnUse" x1="173.144" x2="650.608" xlink:href="#a" y1="658.824" y2="181.36"/><linearGradient xmlns="http://www.w3.org/2000/svg" xmlns:xlink="http://www.w3.org/1999/xlink" id="e" gradientUnits="userSpaceOnUse" x1="141.16" x2="618.624" xlink:href="#a" y1="626.84" y2="149.376"/><linearGradient xmlns="http://www.w3.org/2000/svg" xmlns:xlink="http://www.w3.org/1999/xlink" id="f" gradientUnits="userSpaceOnUse" x1="-138.84" x2="338.624" xlink:href="#a" y1="346.84" y2="-130.624"/><linearGradient xmlns="http://www.w3.org/2000/svg" xmlns:xlink="http://www.w3.org/1999/xlink" id="g" gradientUnits="userSpaceOnUse" x1="-134.84" x2="342.624" xlink:href="#a" y1="350.84" y2="-126.624"/><linearGradient xmlns="http://www.w3.org/2000/svg" xmlns:xlink="http://www.w3.org/1999/xlink" id="h" gradientUnits="userSpaceOnUse" x1="-154.84" x2="322.624" xlink:href="#a" y1="330.84" y2="-146.624"/><linearGradient xmlns="http://www.w3.org/2000/svg" xmlns:xlink="http://www.w3.org/1999/xlink" id="i" gradientUnits="userSpaceOnUse" x1="-106.84" x2="370.624" xlink:href="#a" y1="378.84" y2="-98.624"/><linearGradient xmlns="http://www.w3.org/2000/svg" xmlns:xlink="http://www.w3.org/1999/xlink" id="j" gradientUnits="userSpaceOnUse" x1="-114.84" x2="362.624" xlink:href="#a" y1="370.84" y2="-106.624"/><path xmlns="http://www.w3.org/2000/svg" d="m488 394.222656v-130.222656c0-13.253906-10.746094-24-24-24h-42.398438l-22.402343-61.671875c-5.777344-15.789063-20.785157-26.300781-37.597657-26.328125h-91.953124c10.144531-8.296875 16.582031-20.273438 17.902343-33.3125 3.519531-1.113281 6.714844-3.0625 9.3125-5.679688 4.59375-4.464843 7.167969-10.605468 7.136719-17.007812 0-9.660156-5.792969-18.375-14.695312-22.121094 1.230468-5.679687.710937-11.601562-1.488282-16.984375.082032-.292969.140625-.59375.183594-.894531 0-33.496094-25.71875-56-64-56h-64c-38.28125 0-64 22.503906-64 56 .039062.300781.101562.601562.183594.894531-2.199219 5.375-2.71875 11.289063-1.488282 16.960938-2.839843 1.183593-5.414062 2.929687-7.558593 5.136719-4.59375 4.464843-7.167969 10.605468-7.136719 17.007812.050781 10.300781 6.664062 19.417969 16.441406 22.664062 1.320313 13.046876 7.761719 25.035157 17.910156 33.335938h-98.351562c-4.417969 0-8 3.582031-8 8v234.222656c-4.933594 2.835938-7.984375 8.085938-8 13.777344v32c0 8.835938 7.164062 16 16 16h42.398438c7.105468 23.691406 28.910156 39.914062 53.640624 39.914062 24.734376 0 46.535157-16.222656 53.640626-39.914062h172.71875c7.046874 23.726562 28.851562 40 53.601562 40s46.554688-16.273438 53.601562-40h34.398438c8.835938 0 16-7.164062 16-16v-32c-.015625-5.691406-3.066406-10.941406-8-13.777344zm-202.449219-292.519531c-1.464843 1.484375-3.464843 2.3125-5.550781 2.296875h-176c-4.417969 0-8-3.582031-8-8-.003906-2.15625.878906-4.222656 2.449219-5.703125 1.175781-1.125 2.679687-1.84375 4.292969-2.050781 5.203124 5.105468 12.40625 7.636718 19.65625 6.90625 5.15625-.449219 10.144531-2.054688 14.59375-4.695313.246093-.152343.503906-.304687.742187-.480469 4.320313-2.402343 9.640625-2.089843 13.648437.800782 10.109376 6.558594 23.125 6.558594 33.234376 0 4.566406-2.640625 10.199218-2.640625 14.765624 0 10.105469 6.570312 23.128907 6.570312 33.234376 0 4.007812-2.890625 9.328124-3.203125 13.648437-.800782l.054687.039063c4.609376 2.96875 9.886719 4.734375 15.351563 5.136719 7.214844.683594 14.367187-1.839844 19.550781-6.90625 3.863282.5625 6.738282 3.851562 6.777344 7.753906.003906 2.15625-.878906 4.222656-2.449219 5.703125zm-12.253906-37.703125c1.160156 3.730469.570313 7.785156-1.601563 11.03125-1.890624 2.800781-5.125 4.386719-8.496093 4.167969-2.667969-.160157-5.265625-.925781-7.589844-2.238281-.203125-.152344-.402344-.289063-.609375-.417969-9.816406-5.960938-22.238281-5.515625-31.609375 1.128906-4.566406 2.640625-10.199219 2.640625-14.765625 0-10.105469-6.558594-23.125-6.558594-33.234375 0-4.566406 2.640625-10.199219 2.640625-14.765625 0-9.332031-6.621094-21.699219-7.09375-31.503906-1.199219-.167969.101563-.328125.214844-.488282.335938h-.058593c-2.375 1.371094-5.03125 2.175781-7.765625 2.359375-3.363282.273437-6.605469-1.320313-8.441406-4.152344-2.183594-3.234375-2.796876-7.28125-1.664063-11.015625zm-113.296875-48h64c20 0 43.054688 8.550781 47.3125 32h-158.625c4.257812-23.449219 27.3125-32 47.3125-32zm111.199219 104c-1.363281 12.699219-11.429688 22.707031-24.136719 24h-110.132812c-12.703126-1.296875-22.765626-11.304688-24.128907-24zm90.402343 48c10.085938.023438 19.089844 6.328125 22.558594 15.800781l24.335938 66.933594c1.148437 3.15625 4.144531 5.261719 7.503906 5.265625h48c4.417969 0 8 3.582031 8 8v128h-51.480469c-8.632812-5.121094-18.484375-7.824219-28.519531-7.824219v-136.175781c0-.097656-.054688-.183594-.054688-.28125-.015624-.863281-.167968-1.71875-.449218-2.535156l-24-64c-1.175782-3.121094-4.160156-5.1875-7.496094-5.183594h-72c-4.417969 0-8 3.582031-8 8v208h-8v-208c0-4.417969-3.582031-8-8-8h-224c-4.417969 0-8 3.582031-8 8v208h-8v-224zm.964844 224.511719c-.820312-.308594-1.6875-.484375-2.566406-.511719h-64v-136h80v130.398438c-4.746094 1.40625-9.269531 3.460937-13.449219 6.113281zm-66.566406-152.511719v-48h58.457031l18 48zm-152 152c-.847656.03125-1.6875.203125-2.480469.503906-17.75-11.152344-40.273437-11.347656-58.214843-.503906h-35.304688v-64h208v64zm-72-168c11.710938-.03125 22.460938-6.480469 28-16.800781 4.902344 9.253906 14.0625 15.484375 24.472656 16.640625 10.40625 1.15625 20.714844-2.910156 27.527344-10.863282 6.8125 7.953126 17.121094 12.019532 27.527344 10.863282 10.410156-1.15625 19.570312-7.386719 24.472656-16.640625 4.902344 9.253906 14.0625 15.484375 24.472656 16.640625 10.40625 1.15625 20.714844-2.910156 27.527344-10.863282v75.023438h-208v-75.054688c6.019531 6.992188 14.773438 11.023438 24 11.054688zm-24 80h208v8h-208zm184-96c-8.835938 0-16-7.164062-16-16h32c0 8.835938-7.164062 16-16 16zm-56 0c-8.835938 0-16-7.164062-16-16h32c0 8.835938-7.164062 16-16 16zm-48 0c-8.835938 0-16-7.164062-16-16h32c0 8.835938-7.164062 16-16 16zm-56 0c-8.835938 0-16-7.164062-16-16h32c0 8.835938-7.164062 16-16 16zm-56 232v-32h50.113281c-6.585937 9.371094-10.117187 20.546875-10.113281 32zm96 40c-22.089844 0-40-17.910156-40-40s17.910156-40 40-40 40 17.910156 40 40c-.027344 22.082031-17.917969 39.972656-40 40zm56-40c.003906-11.453125-3.527344-22.628906-10.113281-32h188.265625c-.886719 1.289062-1.792969 2.574219-2.558594 3.929688-4.996094 8.507812-7.617188 18.203124-7.59375 28.070312zm224 40c-19.585938.066406-36.304688-14.128906-39.414062-33.464844-.398438-2.15625-.59375-4.34375-.585938-6.535156-.042969-7.054688 1.835938-13.984375 5.441406-20.046875 7.136719-12.335937 20.308594-19.933594 34.558594-19.933594s27.421875 7.597657 34.558594 19.933594l.074218.117187c3.5625 6.035157 5.417969 12.921876 5.367188 19.929688.003906 2.246094-.199219 4.488281-.609375 6.695312-3.167969 19.269532-19.863281 33.386719-39.390625 33.304688zm88-40h-32c.019531-9.839844-2.589844-19.507812-7.558594-28-.800781-1.375-1.699218-2.6875-2.601562-4h42.160156zm0 0" fill="url(#b)" data-original="url(#b)" style="" class=""/><path xmlns="http://www.w3.org/2000/svg" d="m112 416c-13.253906 0-24 10.746094-24 24s10.746094 24 24 24 24-10.746094 24-24-10.746094-24-24-24zm0 32c-4.417969 0-8-3.582031-8-8s3.582031-8 8-8 8 3.582031 8 8-3.582031 8-8 8zm0 0" fill="url(#c)" data-original="url(#c)" style=""/><path xmlns="http://www.w3.org/2000/svg" d="m392 416c-13.253906 0-24 10.746094-24 24 0 4.21875 1.121094 8.359375 3.246094 12 4.242187 7.320312 12.039062 11.851562 20.5 11.917969 8.457031.066406 16.324218-4.34375 20.679687-11.597657.085938-.128906.199219-.214843.277344-.351562 2.140625-3.628906 3.277344-7.757812 3.296875-11.96875 0-13.253906-10.746094-24-24-24zm-6.929688 28c-.707031-1.214844-1.078124-2.59375-1.070312-4 0-4.417969 3.582031-8 8-8s8 3.582031 8 8c0 1.386719-.367188 2.75-1.0625 3.953125-1.507812 2.367187-4.113281 3.804687-6.921875 3.816406-2.804687.007813-5.421875-1.410156-6.945313-3.769531zm0 0" fill="url(#d)" data-original="url(#d)" style=""/><path xmlns="http://www.w3.org/2000/svg" d="m444 352c11.398438 0 20-12 20-28s-8.601562-28-20-28-20 12.039062-20 28 8.601562 28 20 28zm-.167969-40c3.121094 3.171875 4.648438 7.578125 4.167969 12 .351562 4.347656-1.027344 8.660156-3.832031 12-3.121094-3.171875-4.648438-7.578125-4.167969-12-.351562-4.347656 1.027344-8.660156 3.832031-12zm0 0" fill="url(#e)" data-original="url(#e)" style=""/><path xmlns="http://www.w3.org/2000/svg" d="m172 40c0 2.210938-1.789062 4-4 4s-4-1.789062-4-4 1.789062-4 4-4 4 1.789062 4 4zm0 0" fill="url(#f)" data-original="url(#f)" style=""/><path xmlns="http://www.w3.org/2000/svg" d="m196 24c0 2.210938-1.789062 4-4 4s-4-1.789062-4-4 1.789062-4 4-4 4 1.789062 4 4zm0 0" fill="url(#g)" data-original="url(#g)" style=""/><path xmlns="http://www.w3.org/2000/svg" d="m148 32c0 2.210938-1.789062 4-4 4s-4-1.789062-4-4 1.789062-4 4-4 4 1.789062 4 4zm0 0" fill="url(#h)" data-original="url(#h)" style=""/><path xmlns="http://www.w3.org/2000/svg" d="m244 32c0 2.210938-1.789062 4-4 4s-4-1.789062-4-4 1.789062-4 4-4 4 1.789062 4 4zm0 0" fill="url(#i)" data-original="url(#i)" style=""/><path xmlns="http://www.w3.org/2000/svg" d="m220 40c0 2.210938-1.789062 4-4 4s-4-1.789062-4-4 1.789062-4 4-4 4 1.789062 4 4zm0 0" fill="url(#j)" data-original="url(#j)" style=""/></g></svg>
