<?xml version="1.0" encoding="UTF-8"?>
<svg xmlns="http://www.w3.org/2000/svg" xmlns:xlink="http://www.w3.org/1999/xlink" xmlns:svgjs="http://svgjs.com/svgjs" version="1.1" width="512" height="512" x="0" y="0" viewBox="0 0 512 512" style="enable-background:new 0 0 512 512" xml:space="preserve" class="">
  <g transform="matrix(-1,0,0,1,512,0)">
    <linearGradient xmlns="http://www.w3.org/2000/svg" id="lg1">
      <stop stop-opacity="1" stop-color="#124095" offset="0"/>
      <stop stop-opacity="1" stop-color="#c00808" offset="0.518"/>
      <stop stop-opacity="1" stop-color="#124095" offset="1"/>
    </linearGradient>
    <linearGradient xmlns="http://www.w3.org/2000/svg" xmlns:xlink="http://www.w3.org/1999/xlink" id="SVGID_1_" gradientTransform="matrix(1 0 0 -1 0 514)" gradientUnits="userSpaceOnUse" x1="69.401" x2="580.504" xlink:href="#lg1" y1="-84.599" y2="426.504"/>
    <linearGradient xmlns="http://www.w3.org/2000/svg" xmlns:xlink="http://www.w3.org/1999/xlink" id="SVGID_2_" gradientTransform="matrix(1 0 0 -1 0 514)" gradientUnits="userSpaceOnUse" x1="179.401" x2="690.504" xlink:href="#lg1" y1="-194.599" y2="316.504"/>
    <linearGradient xmlns="http://www.w3.org/2000/svg" xmlns:xlink="http://www.w3.org/1999/xlink" id="SVGID_3_" gradientTransform="matrix(1 0 0 -1 0 514)" gradientUnits="userSpaceOnUse" x1="59.401" x2="570.504" xlink:href="#lg1" y1="-74.599" y2="436.504"/>
    <linearGradient xmlns="http://www.w3.org/2000/svg" xmlns:xlink="http://www.w3.org/1999/xlink" id="SVGID_4_" gradientTransform="matrix(1 0 0 -1 0 514)" gradientUnits="userSpaceOnUse" x1="35.401" x2="546.504" xlink:href="#lg1" y1="-50.599" y2="460.504"/>
    <linearGradient xmlns="http://www.w3.org/2000/svg" xmlns:xlink="http://www.w3.org/1999/xlink" id="SVGID_5_" gradientTransform="matrix(1 0 0 -1 0 514)" gradientUnits="userSpaceOnUse" x1="-72.599" x2="438.504" xlink:href="#lg1" y1="57.401" y2="568.504"/>
    <linearGradient xmlns="http://www.w3.org/2000/svg" xmlns:xlink="http://www.w3.org/1999/xlink" id="SVGID_6_" gradientTransform="matrix(1 0 0 -1 0 514)" gradientUnits="userSpaceOnUse" x1="-96.599" x2="414.504" xlink:href="#lg1" y1="81.401" y2="592.504"/>
    <linearGradient xmlns="http://www.w3.org/2000/svg" xmlns:xlink="http://www.w3.org/1999/xlink" id="SVGID_7_" gradientTransform="matrix(1 0 0 -1 0 514)" gradientUnits="userSpaceOnUse" x1="-76.599" x2="434.504" xlink:href="#lg1" y1="61.401" y2="572.504"/>
    <g xmlns="http://www.w3.org/2000/svg">
      <path d="m496 328h-480c-4.418 0-8 3.582-8 8v152c0 4.418 3.582 8 8 8h480c4.418 0 8-3.582 8-8v-152c0-4.418-3.582-8-8-8zm-120 152h-168v-112h168zm-352-136h352v8h-352zm0 24h168v112h-168zm464 112h-96v-136h96z" fill="url(#SVGID_1_)" data-original="url(#SVGID_1_)" style=""/>
      <path d="m472 448c4.418 0 8-3.582 8-8v-48c0-4.418-3.582-8-8-8s-8 3.582-8 8v48c0 4.418 3.582 8 8 8z" fill="url(#SVGID_2_)" data-original="url(#SVGID_2_)" style=""/>
      <path d="m224 440c4.418 0 8-3.582 8-8v-16c0-4.418-3.582-8-8-8s-8 3.582-8 8v16c0 4.418 3.582 8 8 8z" fill="url(#SVGID_3_)" data-original="url(#SVGID_3_)" style=""/>
      <path d="m176 408c-4.418 0-8 3.582-8 8v16c0 4.418 3.582 8 8 8s8-3.582 8-8v-16c0-4.418-3.582-8-8-8z" fill="url(#SVGID_4_)" data-original="url(#SVGID_4_)" style=""/>
      <path d="m280 120c4.418 0 8-3.582 8-8v-16c0-4.418-3.582-8-8-8s-8 3.582-8 8v16c0 4.418 3.582 8 8 8z" fill="url(#SVGID_5_)" data-original="url(#SVGID_5_)" style=""/>
      <path d="m232 88c-4.418 0-8 3.582-8 8v16c0 4.418 3.582 8 8 8s8-3.582 8-8v-16c0-4.418-3.582-8-8-8z" fill="url(#SVGID_6_)" data-original="url(#SVGID_6_)" style=""/>
      <path d="m453.66 234.34-32-32c-1.502-1.499-3.538-2.341-5.66-2.34h-8v-32h88c4.418 0 8-3.582 8-8v-136c0-4.418-3.582-8-8-8h-480c-4.418 0-8 3.582-8 8v136c0 4.418 3.582 8 8 8h344v32h-8c-2.122-.001-4.158.841-5.66 2.34l-32 32c-.474.498-1.161 1.34-1.672 2.549-.538 1.273-.651 2.409-.668 3.111v24c0 4.418 3.582 8 8 8h128c4.418 0 8-3.582 8-8v-24c-.007-.714-.112-1.919-.708-3.257-.503-1.132-1.164-1.924-1.632-2.403zm-277.66-82.34h-152v-96h152zm72 0h-56v-96h56zm72 0h-56v-96h56zm120 104h-112v-8h112zm-27.31-40 16 16h-89.38l16-16zm-36.69-16v-32h16v32zm112-48h-152v-96h152zm0-112h-464v-8h464z" fill="url(#SVGID_7_)" data-original="url(#SVGID_7_)" style=""/>
    </g>
  </g>
</svg>
