<svg xmlns="http://www.w3.org/2000/svg" width="254" height="58" viewBox="0 0 254 58"><g><g><g/><g><g><g><path fill="#bf0808" d="M4.826 24.909C1.89 27.115-.056 29.076.001 31.467c.179 1.33.461 3.1.735 4.415.257.906.586 2.12.888 3.012l.045.126C1.393 37.88.66 34.86 6.047 30.366c16.68-13.272 51.368-17.802 54.428-9.464l-.044-.17c-1.664-4.378-8.476-6.28-17.06-6.281-12.577-.001-28.96 4.084-38.545 10.458z"/></g><g><g><path fill="#124095" d="M23.309 39.325c-.958.328-2.221.815-3.166 1.185-9.21 3.994-12.857 8.04-10.01 11.099l.117.104c2.21 1.814 2.443 2.004 4.202 3.123a70.034 70.034 0 0 0 3.434 1.84c-6.78-3.473.104-8.957 5.24-11.65 16.411-8.405 37.032-8.354 34.607-1.751-.072.197-.211.443-.302.633l.159-.282c2.608-5.462-3.53-8.117-12.685-8.118-6.38 0-14.225 1.29-21.596 3.817z"/></g><g><path fill="#124095" d="M38.705 50.773c-10.225 3.064-23.53 4.63-28.572.836l.117.104c1.59 1.372 1.887 1.571 4.202 3.123a68.583 68.583 0 0 0 3.434 1.84c6.501 2.62 16.226.873 21.445-.404-.25.712-.28.776-.654 1.565 2.158-1.074 3.381-1.841 5.474-3.22 2.888-1.95 4.857-3.722 6.44-5.145-1.808-.231-3.62-.43-5.43-.655-3.892-.508-5.498-.803-8.16-1.293.77 1.444.77 1.444 1.704 3.249z"/></g></g><g><path fill="#ffec00" d="M13.82 4.61c-3.157 1.467-5.324 2.701-7.066 4.674l-1.25 1.652c-1.52 2.326-1.716 2.626-2.666 4.561l-.208.45c.652-1.202 2.384-4.392 9.984-8.144C26.674 1.09 41.929-.21 47.355 2.789l-1.636-.985C43.155.544 39.67 0 35.809 0c-7.207 0-15.725 1.9-21.99 4.61z"/></g><g><path fill="#c00808" d="M44.628 28.59C25.434 37.432 1.66 38.965.001 31.467c.167 1.332.473 3.098.735 4.415.23.912.612 2.111.888 3.012l.045.126c3.277 7.596 25.437 7.642 45.6.093-.105 1.79-.134 2.01-.486 4.713 3.146-3.274 4.396-4.935 6.497-7.942 2.538-3.781 3.522-6.6 4.313-8.866-1.774-.367-3.068-.583-6.89-1.214-4.707-.778-5.998-1.033-8.827-1.593 1.091 1.651 1.121 1.702 2.752 4.379z"/></g><g><path fill="#fd0" d="M28.62 12.238c-1.264.402-4.226 1.342-8.04 1.964-9.513 1.548-17.34-.058-13.826-4.918l-1.25 1.652c-1.21 1.763-1.348 2.028-2.666 4.561l-.208.45C-.3 23.19 13.27 25.94 31.667 21.835c.155 1.794.17 2.042.339 5.088 2.927-3.145 4.092-4.727 5.885-7.354 2.07-3.156 2.79-5.392 3.317-7.026-3.627-.586-5.199-.947-7.918-1.628-3.177-.871-4.494-1.402-6.552-2.326.616 1.257.713 1.437 1.883 3.65z"/></g></g><g><path fill="#c00808" d="M251.993 34.252c-.852.412-2.228.687-3.822.687-3.328 0-5.665-2.007-5.665-5.5 0-4.784 3.658-8.524 8.772-8.524 1.155 0 2.145.22 2.722.467l-.962 3.026c-.468-.193-1.017-.33-1.815-.33-2.832 0-4.565 2.392-4.565 4.921 0 1.843 1.156 2.777 2.64 2.777 1.155 0 1.98-.274 2.667-.55zm-15.948-10.45c-1.843 0-2.888 1.513-3.163 2.778 3.08.027 4.62-.413 4.62-1.622 0-.688-.55-1.155-1.457-1.155zm3.217 7.232l.275 2.86c-1.568.798-3.52 1.045-5.005 1.045-3.85 0-5.83-2.172-5.83-5.665 0-4.097 2.97-8.36 7.838-8.36 2.722 0 4.674 1.514 4.674 4.016 0 3.437-3.328 4.675-8.717 4.537 0 .386.138.99.412 1.375.524.688 1.43 1.044 2.585 1.044 1.457 0 2.695-.329 3.768-.852zm-19.936-9.817l-.935 4.95h4.097l.934-4.95h3.96l-2.556 13.447h-3.96l1.044-5.445h-4.097l-1.018 5.445h-3.96l2.53-13.447zM202.497 29l.385-2.557h1.567c1.32 0 2.805-.385 2.805-1.402 0-.88-.852-1.292-1.925-1.292-1.044 0-2.364.357-3.327.852l-.66-2.42c1.347-.715 3.163-1.238 4.894-1.238 2.2 0 5.197.688 5.197 3.493 0 1.87-1.73 2.86-3.436 3.19v.027c1.457.248 3.025 1.237 3.025 3.107 0 3.246-3.74 4.153-6.407 4.153-1.98 0-3.85-.385-5.335-1.375l1.017-2.64c1.072.66 2.53 1.127 3.878 1.127 1.264 0 2.666-.467 2.666-1.54 0-1.127-1.293-1.485-2.75-1.485zm-7.264-7.782h3.959l-1.732 9.075c-.33 1.705-.522 3.162-.715 4.372h-3.497l.247-2.2h-.054c-1.37 1.76-3.02 2.503-4.638 2.503-2.146 0-3.438-1.21-3.438-3.768 0-.742.083-1.54.276-2.475l1.401-7.507h3.956l-1.344 7.205c-.109.605-.191 1.265-.191 1.76 0 .88.325 1.568 1.342 1.568 1.344 0 2.718-1.622 3.24-4.318l1.188-6.215zm-20.647 4.593l-1.1 5.911c.44.084.852.084 1.43.084 1.924 0 4.097-1.156 4.097-3.383 0-1.815-1.237-2.777-2.97-2.777-.466 0-1.017.082-1.457.165zm9.185-9.68l-.605 3.41h-7.342l-.633 3.327c.55-.137 1.375-.192 2.063-.192 3.244 0 5.939 1.733 5.939 5.307 0 2.2-.99 3.823-2.392 4.895-1.843 1.457-4.538 1.98-7.094 1.98-1.953 0-3.823-.138-4.676-.276l3.465-18.45zm-15.813 9.927l-.521 2.777h-7.122l.522-2.777zm-13.886 1.073l.633-3.108a6.228 6.228 0 0 0-1.072-.11c-2.558 0-4.428 3.135-4.428 5.637 0 1.32.523 2.227 1.623 2.227 1.182 0 2.64-1.346 3.244-4.646zm3.136 7.534zm0 0h-3.658c.027-.797.11-1.705.193-2.667h-.082c-1.238 2.227-2.943 2.97-4.51 2.97-2.42 0-4.07-1.87-4.07-4.675 0-4.537 2.997-9.377 9.624-9.377 1.595 0 3.328.302 4.455.66l-1.43 7.04c-.33 1.732-.578 4.372-.522 6.05zm-18.974-10.559c-.633 0-1.155.358-1.54.963-.247.604-.413 1.182-.577 1.98-.194.962-.385 1.951-.578 2.969-.083.467-.055.88.11 1.073.138.33.522.796 1.238.715 1.484-.193 2.64-3.19 2.64-5.473 0-1.154-.387-2.227-1.293-2.227zm-9.542 5.472c0 1.375.55 2.2 1.375 2.2 1.017 0 1.623-.935 1.842-1.898l.743-3.657c.11-.467.138-.825.138-1.21-.028-.494-.385-1.073-1.018-1.073-1.843 0-3.08 3.41-3.08 5.638zm1.237 10.532l1.238-6.434h-.028c-.66.77-1.622 1.292-2.914 1.292-1.98 0-3.493-1.677-3.493-4.95 0-4.4 2.613-9.102 6.517-9.102 1.127 0 1.842.66 2.118 1.293h.054l1.32-7.067h3.548l-1.402 7.149h.054c.605-.715 1.678-1.375 2.888-1.375 2.558 0 3.63 2.338 3.63 4.977 0 4.565-2.558 9.075-6.38 9.075-1.018 0-1.925-.523-2.282-1.238h-.056l-1.154 6.38zm-13.777-8.003c1.376 0 2.888-.962 2.888-2.53 0-1.017-.605-1.594-1.595-1.594-1.32 0-2.255 1.072-2.558 1.815a2.544 2.544 0 0 0-.192 1.045c0 .77.523 1.264 1.457 1.264zm-3.244-10.889h3.85l-1.293 5.17h.027c.854-.77 2.31-1.21 3.548-1.21 2.172 0 3.878 1.32 3.878 3.685 0 3.053-2.53 6.05-7.508 6.05-2.145 0-4.647-.495-4.647-3.382 0-.716.22-1.816.413-2.613l1.732-7.7zm-14.079 0h10.587l-2.557 13.447h-3.96l1.98-10.421h-2.998l-.495 2.584c-.687 3.41-1.54 5.307-2.942 6.545-.99.935-2.228 1.485-4.18 1.512l-.248-3.134c.825-.084 1.485-.358 1.953-.826.825-.742 1.43-2.227 1.815-4.18l1.045-5.527zm-10.78 5.61l-.357-3.987a527.523 527.523 0 0 1-.274-3.63h-.055c-.468 1.127-.991 2.558-1.486 3.63l-1.842 3.987zm-5.17 3.026l-2.199 4.811h-4.207l9.019-18.533h5.088l2.172 18.533H88.6l-.385-4.811z"/></g></g></g></g></svg>