<svg xmlns="http://www.w3.org/2000/svg" width="47.908" height="45.975" viewBox="0 0 47.908 45.975"><path d="M319.777,278.123c-2.328,1.749-3.868,3.3-3.823,5.2h0c.141,1.054.365,2.455.582,3.5h0c.2.717.464,1.68.7,2.386h0l.035.1c-.218-.9-.8-3.294,3.469-6.856h0c13.214-10.513,40.693-14.1,43.117-7.5h0l-.036-.135c-1.317-3.467-6.714-4.975-13.513-4.975h0c-9.964,0-22.942,3.235-30.534,8.284Z" transform="translate(-315.954 -258.391)" fill="#fff" fill-rule="evenodd"/><g transform="translate(7.278 28.13)"><path d="M337.833,297.37c-.76.26-1.76.646-2.508.939h0c-7.295,3.164-10.185,6.369-7.93,8.792h0l.093.083a24.824,24.824,0,0,0,3.328,2.474h0c.8.46,1.891,1.048,2.721,1.457h0c-5.371-2.75.083-7.095,4.151-9.227h0c13-6.66,29.337-6.62,27.415-1.389h0c-.057.157-.167.351-.239.5h0l.125-.223c2.067-4.328-2.8-6.43-10.048-6.431a55.03,55.03,0,0,0-17.108,3.024Z" transform="translate(-326.645 -294.346)" fill="#fff" fill-rule="evenodd"/><path d="M350.381,310.9c-8.1,2.427-18.641,3.668-22.635.662h0l.093.083a24.936,24.936,0,0,0,3.328,2.474h0c.8.465,1.893,1.044,2.721,1.457h0c5.151,2.076,12.854.692,16.988-.32h0a9.068,9.068,0,0,1-.518,1.24h0a36,36,0,0,0,4.337-2.551h0a43.954,43.954,0,0,0,5.1-4.076c-1.432-.183-2.867-.341-4.3-.519h0c-3.085-.4-4.357-.637-6.465-1.024h0c.61,1.143.61,1.143,1.35,2.573Z" transform="translate(-326.997 -298.812)" fill="#fff" fill-rule="evenodd"/></g><path d="M327.879,256.673a15.839,15.839,0,0,0-5.6,3.7h0l-.99,1.308a24.932,24.932,0,0,0-2.111,3.613h0l-.165.356c.516-.951,1.888-3.478,7.909-6.451h0c11.138-5.318,23.223-6.348,27.521-3.972l-1.3-.78a18.306,18.306,0,0,0-7.85-1.43h0a47.255,47.255,0,0,0-17.42,3.653Z" transform="translate(-316.931 -253.02)" fill="#fff" fill-rule="evenodd"/><path d="M351.308,284.666c-15.206,7-34.039,8.219-35.353,2.28h0c.131,1.055.374,2.454.582,3.5h0c.182.724.485,1.672.7,2.386h0l.035.1c2.6,6.018,20.152,6.054,36.125.074h0c-.084,1.417-.107,1.593-.386,3.733h0a43.274,43.274,0,0,0,5.147-6.292h0a27.656,27.656,0,0,0,3.417-7.023c-1.4-.291-2.431-.462-5.458-.962h0c-3.729-.617-4.753-.818-6.993-1.263.864,1.308.888,1.349,2.181,3.469Z" transform="translate(-315.954 -262.018)" fill="#fff" fill-rule="evenodd"/><path d="M339.456,265.907a43.754,43.754,0,0,1-6.369,1.555h0c-7.537,1.227-13.737-.046-10.954-3.895h0l-.99,1.308a24.739,24.739,0,0,0-2.111,3.613h0l-.165.356c-2.322,5.739,8.427,7.918,23,4.665h0c.123,1.421.133,1.618.268,4.03h0a41.539,41.539,0,0,0,4.662-5.825h0a20.634,20.634,0,0,0,2.627-5.567h0a62.127,62.127,0,0,1-6.272-1.289h0a29.889,29.889,0,0,1-5.19-1.843c.489,1,.564,1.138,1.492,2.89Z" transform="translate(-316.783 -256.212)" fill="#fff" fill-rule="evenodd"/></svg>