<svg xmlns="http://www.w3.org/2000/svg" width="61" height="58" viewBox="0 0 61 58"><g><g><g><path fill="#bf0808" d="M4.826 24.909C1.89 27.115-.056 29.076.001 31.467c.179 1.33.461 3.1.735 4.415.257.906.586 2.12.888 3.012l.045.126C1.393 37.88.66 34.86 6.047 30.366c16.68-13.272 51.368-17.802 54.428-9.464l-.044-.17c-1.664-4.378-8.476-6.28-17.06-6.281-12.577-.001-28.96 4.084-38.545 10.458z"/></g><g><g><path fill="#124095" d="M23.309 39.325c-.958.328-2.221.815-3.166 1.185-9.21 3.994-12.857 8.04-10.01 11.099l.117.104c2.21 1.814 2.443 2.004 4.202 3.123a70.034 70.034 0 0 0 3.434 1.84c-6.78-3.473.104-8.957 5.24-11.65 16.411-8.405 37.032-8.354 34.607-1.751-.072.197-.211.443-.302.633l.159-.282c2.608-5.462-3.53-8.117-12.685-8.118-6.38 0-14.225 1.29-21.596 3.817z"/></g><g><path fill="#124095" d="M38.705 50.773c-10.225 3.064-23.53 4.63-28.572.836l.117.104c1.59 1.372 1.887 1.571 4.202 3.123a68.583 68.583 0 0 0 3.434 1.84c6.501 2.62 16.226.873 21.445-.404-.25.712-.28.776-.654 1.565 2.158-1.074 3.381-1.841 5.474-3.22 2.888-1.95 4.857-3.722 6.44-5.145-1.808-.231-3.62-.43-5.43-.655-3.892-.508-5.498-.803-8.16-1.293.77 1.444.77 1.444 1.704 3.249z"/></g></g><g><path fill="#ffec00" d="M13.82 4.61c-3.157 1.467-5.324 2.701-7.066 4.674l-1.25 1.652c-1.52 2.326-1.716 2.626-2.666 4.561l-.208.45c.652-1.202 2.384-4.392 9.984-8.144C26.674 1.09 41.929-.21 47.355 2.789l-1.636-.985C43.155.544 39.67 0 35.809 0c-7.207 0-15.725 1.9-21.99 4.61z"/></g><g><path fill="#c00808" d="M44.628 28.59C25.434 37.432 1.66 38.965.001 31.467c.167 1.332.473 3.098.735 4.415.23.912.612 2.111.888 3.012l.045.126c3.277 7.596 25.437 7.642 45.6.093-.105 1.79-.134 2.01-.486 4.713 3.146-3.274 4.396-4.935 6.497-7.942 2.538-3.781 3.522-6.6 4.313-8.866-1.774-.367-3.068-.583-6.89-1.214-4.707-.778-5.998-1.033-8.827-1.593 1.091 1.651 1.121 1.702 2.752 4.379z"/></g><g><path fill="#fd0" d="M28.62 12.238c-1.264.402-4.226 1.342-8.04 1.964-9.513 1.548-17.34-.058-13.826-4.918l-1.25 1.652c-1.21 1.763-1.348 2.028-2.666 4.561l-.208.45C-.3 23.19 13.27 25.94 31.667 21.835c.155 1.794.17 2.042.339 5.088 2.927-3.145 4.092-4.727 5.885-7.354 2.07-3.156 2.79-5.392 3.317-7.026-3.627-.586-5.199-.947-7.918-1.628-3.177-.871-4.494-1.402-6.552-2.326.616 1.257.713 1.437 1.883 3.65z"/></g></g></g></svg>