<?xml version="1.0" encoding="UTF-8"?>
<!DOCTYPE svg PUBLIC "-//W3C//DTD SVG 1.1//EN" "http://www.w3.org/Graphics/SVG/1.1/DTD/svg11.dtd">
<!-- Creator: CorelDRAW 2019 (64-Bit) -->
<svg xmlns="http://www.w3.org/2000/svg" xml:space="preserve" width="74mm" height="41mm" version="1.1" style="shape-rendering:geometricPrecision; text-rendering:geometricPrecision; image-rendering:optimizeQuality; fill-rule:evenodd; clip-rule:evenodd"
viewBox="0 0 7400 4100"
 xmlns:xlink="http://www.w3.org/1999/xlink">
 <defs>
  <style type="text/css">
   <![CDATA[
    .fil2 {fill:#FFED00}
    .fil4 {fill:#FFDD00}
    .fil3 {fill:#C02222}
    .fil0 {fill:#AE2220}
    .fil1 {fill:#264796}
    .fil5 {fill:#C02222;fill-rule:nonzero}
   ]]>
  </style>
 </defs>
 <g id="Слой_x0020_1">
  <metadata id="CorelCorpID_0Corel-Layer"/>
  <g id="_2370670714192">
   <g>
    <path class="fil0" d="M2622.44 1086.29c-120.62,90.62 -200.45,171.1 -198.12,269.31l0 0c7.32,54.61 18.93,127.23 30.15,181.22l0 0c10.57,37.19 24.07,87.04 36.49,123.65l0 0 1.82 5.18c-11.31,-46.73 -41.42,-170.75 179.77,-355.3l0 0c684.83,-544.88 2109.02,-730.88 2234.65,-388.56l0 0 -1.85 -6.98c-68.29,-179.72 -347.99,-257.85 -700.41,-257.87l0 0c-516.36,-0.03 -1189,167.67 -1582.5,429.35l0 0z"/>
    <g>
     <path class="fil1" d="M3381.25 1678.2c-39.36,13.49 -91.2,33.47 -129.98,48.65l0 0c-378.07,164.02 -527.88,330.11 -410.97,455.66l0 0 4.8 4.28c90.78,74.53 100.29,82.31 172.49,128.24l0 0c41.64,23.84 97.98,54.31 141.02,75.52l0 0c-278.37,-142.53 4.28,-367.72 215.16,-478.25l0 0c673.76,-345.14 1520.41,-343.06 1420.85,-71.94l0 0c-2.95,8.12 -8.69,18.2 -12.42,25.99l0 0 6.54 -11.54c107.07,-224.29 -144.97,-333.29 -520.82,-333.32 -261.96,0 -584.03,52.94 -886.67,156.71l0 0z"/>
     <path class="fil1" d="M4013.4 2148.21c-419.85,125.78 -966.09,190.11 -1173.1,34.3l0 0 4.8 4.28c65.26,56.35 77.48,64.51 172.49,128.24l0 0c41.54,24.09 98.08,54.12 141.02,75.52l0 0c266.92,107.6 666.19,35.83 880.46,-16.58l0 0c-10.3,29.25 -11.52,31.91 -26.85,64.26l0 0c88.62,-44.07 138.81,-75.57 224.77,-132.19l0 0c118.57,-80.06 199.39,-152.82 264.38,-211.24 -74.22,-9.49 -148.59,-17.66 -222.89,-26.87l0 0c-159.86,-20.88 -225.79,-33.01 -335.07,-53.09l0 0c31.63,59.27 31.63,59.27 69.99,133.37l0 0z"/>
    </g>
    <path class="fil2" d="M2991.65 252.94c-129.57,60.17 -218.53,110.88 -290.1,191.88l0 0 -51.31 67.79c-62.38,95.55 -70.44,107.85 -109.45,187.28l0 0 -8.54 18.45c26.76,-49.3 97.86,-180.29 409.89,-334.34l0 0c577.29,-275.62 1203.6,-328.99 1426.39,-205.86l-67.21 -40.42c-105.22,-51.71 -248.31,-74.09 -406.84,-74.09l0 0c-295.93,0 -645.62,78.05 -902.83,189.31l0 0z"/>
    <path class="fil3" d="M4256.57 1237.43c-788.08,363.04 -1764.14,425.97 -1832.25,118.17l0 0c6.84,54.66 19.39,127.15 30.15,181.22l0 0c9.44,37.48 25.14,86.69 36.49,123.65l0 0 1.82 5.18c134.53,311.91 1044.37,313.76 1872.24,3.83l0 0c-4.33,73.47 -5.51,82.56 -20,193.52l0 0c129.18,-134.42 180.49,-202.61 266.75,-326.11l0 0c104.2,-155.2 144.61,-270.94 177.09,-363.96 -72.84,-15.08 -125.98,-23.97 -282.91,-49.86l0 0c-193.24,-31.95 -246.27,-42.42 -362.38,-65.43 44.79,67.81 46.02,69.91 113,179.79l0 0z"/>
    <path class="fil4" d="M3599.35 566.09c-51.96,16.51 -173.53,55.12 -330.1,80.61l0 0c-390.61,63.58 -711.96,-2.36 -567.7,-201.88l0 0 -51.31 67.79c-49.68,72.41 -55.34,83.31 -109.45,187.28l0 0 -8.54 18.45c-120.29,297.41 436.81,410.36 1192.18,241.77l0 0c6.36,73.66 6.94,83.86 13.92,208.88l0 0c120.18,-129.1 167.97,-194.06 241.6,-301.89l0 0c84.98,-129.6 114.58,-221.43 136.17,-288.49l0 0c-148.92,-24.06 -213.42,-38.86 -325.08,-66.85l0 0c-130.44,-35.76 -184.5,-57.55 -268.99,-95.49 25.29,51.59 29.25,59 77.3,149.82l0 0z"/>
   </g>
   <path class="fil5" d="M503.44 3674.44l15.8 197.57 170.48 0 -89.19 -760.94 -208.86 0 -370.31 760.94 172.73 0 90.32 -197.57 219.03 0zm-171.61 -124.19l75.64 -163.71c20.32,-44.03 41.78,-102.73 60.97,-149.02l2.26 0c3.38,46.29 7.9,107.25 11.29,149.02l14.67 163.71 -164.83 0zm607.39 -230.32l-42.9 226.93c-15.8,80.16 -40.64,141.12 -74.51,171.61 -19.2,19.19 -46.29,30.48 -80.16,33.87l10.16 128.7c80.16,-1.13 130.96,-23.71 171.61,-62.09 57.58,-50.81 92.57,-128.71 120.8,-268.7l20.32 -106.13 123.06 0 -81.29 427.89 162.58 0 104.99 -552.08 -434.66 0zm578.05 0l-71.13 316.12c-7.9,32.74 -16.94,77.9 -16.94,107.26 0,118.54 102.74,138.86 190.8,138.86 204.35,0 308.22,-123.06 308.22,-248.38 0,-97.09 -70,-151.28 -159.19,-151.28 -50.8,0 -110.64,18.06 -145.64,49.67l-1.13 0 53.06 -212.25 -158.05 0zm133.22 447.08c-38.39,0 -59.84,-20.32 -59.84,-51.93 0,-18.06 2.26,-28.22 7.9,-42.9 12.42,-30.48 50.81,-74.51 105,-74.51 40.64,0 65.48,23.7 65.48,65.48 0,64.35 -62.09,103.86 -118.54,103.86zm565.62 328.54l150.16 0 47.42 -261.93 2.25 0c14.68,29.36 51.94,50.81 93.71,50.81 156.93,0 261.93,-185.16 261.93,-372.57 0,-108.38 -44.03,-204.35 -149.03,-204.35 -49.68,0 -93.71,27.1 -118.54,56.45l-2.26 0 57.58 -293.53 -145.64 0 -54.2 290.15 -2.25 0c-11.29,-25.97 -40.65,-53.07 -86.94,-53.07 -160.31,0 -267.57,193.06 -267.57,373.7 0,134.35 62.1,203.22 143.39,203.22 53.06,0 92.57,-21.45 119.67,-53.06l1.13 0 -50.81 264.18zm75.65 -663.85c25.96,0 40.64,23.71 41.77,44.03 0,15.81 -1.13,30.49 -5.65,49.68l-30.48 150.16c-9.03,39.51 -33.87,77.9 -75.64,77.9 -33.87,0 -56.45,-33.87 -56.45,-90.32 0,-91.45 50.8,-231.45 126.45,-231.45zm265.31 6.78c37.25,0 53.06,44.03 53.06,91.45 0,93.7 -47.42,216.76 -108.38,224.67 -29.36,3.38 -45.16,-15.81 -50.81,-29.36 -6.77,-7.9 -7.9,-24.84 -4.51,-44.03 7.9,-41.77 15.8,-82.42 23.71,-121.93 6.77,-32.74 13.54,-56.45 23.7,-81.29 15.81,-24.84 37.26,-39.51 63.23,-39.51zm779 433.53c-2.26,-68.87 7.9,-177.25 21.45,-248.38l58.71 -289.02c-46.29,-14.68 -117.42,-27.1 -182.9,-27.1 -272.09,0 -395.15,198.71 -395.15,384.99 0,115.16 67.74,191.93 167.1,191.93 64.35,0 134.35,-30.48 185.15,-121.93l3.39 0c-3.39,39.51 -6.78,76.77 -7.91,109.51l150.16 0zm-128.71 -309.34c-24.83,135.48 -84.67,190.8 -133.22,190.8 -45.16,0 -66.61,-37.26 -66.61,-91.45 0,-102.74 76.77,-231.45 181.77,-231.45 15.81,0 31.61,2.26 44.03,4.52l-25.97 127.58zm277.74 -44.03l-21.46 114.02 292.41 0 21.45 -114.02 -292.4 0zm478.68 -407.57l-142.25 757.55c35,5.65 111.77,11.29 191.93,11.29 104.99,0 215.64,-21.45 291.28,-81.28 57.58,-44.03 98.22,-110.65 98.22,-200.96 0,-146.77 -110.64,-217.9 -243.86,-217.9 -28.23,0 -62.1,2.26 -84.68,7.9l25.97 -136.6 301.44 0 24.84 -140 -462.89 0zm85.81 397.41c18.06,-3.39 40.64,-6.78 59.83,-6.78 71.13,0 121.93,39.52 121.93,114.03 0,91.45 -89.19,138.87 -168.22,138.87 -23.71,0 -40.64,0 -58.7,-3.39l45.16 -242.73zm847.68 -188.55l-48.74 255.16c-21.45,110.64 -77.9,177.25 -133.03,177.25 -41.77,0 -55.13,-28.23 -55.13,-64.36 0,-20.32 3.39,-47.41 7.9,-72.25l55.13 -295.8 -162.38 0 -57.58 308.22c-7.9,38.38 -11.29,71.12 -11.29,101.61 0,104.99 53.06,154.67 141.12,154.67 66.42,0 134.16,-30.48 190.43,-102.74l2.25 0 -10.16 90.32 143.57 0c7.91,-49.68 15.81,-109.51 29.36,-179.51l71.12 -372.57 -162.57 0zm298.24 319.51l65.48 0c59.84,0 112.9,14.67 112.9,60.96 0,44.03 -57.58,63.23 -109.51,63.23 -55.32,0 -115.16,-19.2 -159.19,-46.29l-41.77 108.38c60.96,40.65 137.74,56.45 219.02,56.45 109.52,0 263.06,-37.26 263.06,-170.48 0,-76.77 -64.35,-117.41 -124.19,-127.57l0 -1.13c70,-13.55 141.12,-54.19 141.12,-130.96 0,-115.16 -123.06,-143.39 -213.38,-143.39 -71.12,0 -145.64,21.45 -200.96,50.81l27.1 99.35c39.51,-20.32 93.71,-35 136.61,-35 44.03,0 79.03,16.94 79.03,53.06 0,41.78 -60.97,57.58 -115.16,57.58l-64.35 0 -15.81 105zm528.36 -319.51l-103.86 552.08 162.57 0 41.77 -223.54 168.22 0 -42.9 223.54 162.58 0 104.99 -552.08 -162.57 0 -38.39 203.22 -168.22 0 38.39 -203.22 -162.58 0zm981.09 403.05c-44.03,21.45 -94.83,35 -154.67,35 -47.42,0 -84.67,-14.67 -106.12,-42.9 -11.29,-15.81 -16.94,-40.64 -16.94,-56.45 221.28,5.65 357.89,-45.16 357.89,-186.28 0,-102.74 -80.16,-164.84 -191.93,-164.84 -199.83,0 -321.76,175 -321.76,343.22 0,143.38 81.29,232.57 239.35,232.57 60.96,0 141.12,-10.16 205.47,-42.9l-11.29 -117.42zm-72.25 -249.5c0,49.67 -63.22,67.74 -189.67,66.61 11.29,-51.94 54.19,-114.03 129.83,-114.03 37.26,0 59.84,19.19 59.84,47.42zm593.84 257.41c-28.22,11.29 -62.09,22.58 -109.51,22.58 -60.96,0 -108.38,-38.39 -108.38,-114.03 0,-103.87 71.12,-202.09 187.41,-202.09 32.74,0 55.32,5.64 74.51,13.55l39.52 -124.19c-23.71,-10.16 -64.35,-19.2 -111.77,-19.2 -209.99,0 -360.15,153.55 -360.15,349.99 0,143.38 95.96,225.8 232.57,225.8 65.48,0 121.93,-11.29 156.93,-28.22l-1.13 -124.19z"/>
  </g>
 </g>
</svg>
