<?xml version="1.0"?>
<svg xmlns="http://www.w3.org/2000/svg" xmlns:xlink="http://www.w3.org/1999/xlink" xmlns:svgjs="http://svgjs.com/svgjs" version="1.1" width="512" height="512" x="0" y="0" viewBox="0 0 512 512" style="enable-background:new 0 0 512 512" xml:space="preserve" class=""><g><linearGradient xmlns="http://www.w3.org/2000/svg" id="linear-gradient" gradientUnits="userSpaceOnUse" x1="256" x2="256" y1="488" y2="27.983"><stop stop-opacity="1" stop-color="#124095" offset="0"/><stop stop-opacity="1" stop-color="#124095" offset="0"/><stop stop-opacity="1" stop-color="#c00808" offset="1"/><stop stop-opacity="1" stop-color="#c00808" offset="1"/></linearGradient><linearGradient xmlns="http://www.w3.org/2000/svg" xmlns:xlink="http://www.w3.org/1999/xlink" id="linear-gradient-2" x1="216" x2="216" xlink:href="#linear-gradient" y1="488" y2="27.983"/><linearGradient xmlns="http://www.w3.org/2000/svg" xmlns:xlink="http://www.w3.org/1999/xlink" id="linear-gradient-3" x1="411" x2="411" xlink:href="#linear-gradient" y1="488" y2="27.983"/><linearGradient xmlns="http://www.w3.org/2000/svg" xmlns:xlink="http://www.w3.org/1999/xlink" id="linear-gradient-4" x1="461" x2="461" xlink:href="#linear-gradient" y1="488" y2="27.983"/><linearGradient xmlns="http://www.w3.org/2000/svg" xmlns:xlink="http://www.w3.org/1999/xlink" id="linear-gradient-7" x1="436" x2="436" xlink:href="#linear-gradient" y1="488" y2="27.983"/><path xmlns="http://www.w3.org/2000/svg" d="m476 80h-440a26.029 26.029 0 0 0 -26 26v300a26.029 26.029 0 0 0 26 26h440a26.029 26.029 0 0 0 26-26v-300a26.029 26.029 0 0 0 -26-26zm14 326a14.015 14.015 0 0 1 -14 14h-440a14.015 14.015 0 0 1 -14-14v-300a14.015 14.015 0 0 1 14-14h440a14.015 14.015 0 0 1 14 14z" fill="url(#linear-gradient)" data-original="url(#linear-gradient)" style=""/><path xmlns="http://www.w3.org/2000/svg" d="m356 123.75h-280a26.029 26.029 0 0 0 -26 26v212.5a26.029 26.029 0 0 0 26 26h280a26.029 26.029 0 0 0 26-26v-212.5a26.029 26.029 0 0 0 -26-26zm-294 104.191c3.8 1.341 6.461 4.006 9.756 7.3 5.238 5.239 11.757 11.759 24.244 11.759s19-6.52 24.24-11.758c4.784-4.785 8.241-8.242 15.754-8.242s10.971 3.457 15.756 8.242c5.236 5.238 11.755 11.758 24.24 11.758s19-6.52 24.242-11.758c4.785-4.785 8.243-8.242 15.757-8.242s10.973 3.457 15.758 8.242c5.238 5.238 11.758 11.758 24.243 11.758s19-6.52 24.242-11.758c4.786-4.785 8.243-8.242 15.758-8.242s10.974 3.457 15.76 8.243c5.239 5.238 11.759 11.757 24.25 11.757s19-6.519 24.24-11.757c3.3-3.3 5.963-5.962 9.76-7.3v37.622c-8.71 1.681-13.919 6.869-18.245 11.194-4.786 4.784-8.244 8.241-15.755 8.241s-10.974-3.458-15.76-8.243c-5.24-5.238-11.764-11.757-24.25-11.757s-19 6.52-24.243 11.758c-4.785 4.785-8.242 8.242-15.757 8.242s-10.972-3.457-15.758-8.242c-5.238-5.238-11.757-11.758-24.243-11.758s-19 6.52-24.242 11.758c-4.785 4.785-8.247 8.242-15.757 8.242s-10.971-3.457-15.757-8.242c-5.233-5.238-11.756-11.758-24.241-11.758s-19 6.52-24.24 11.758c-4.784 4.785-8.241 8.242-15.752 8.242s-10.971-3.457-15.756-8.242c-4.325-4.325-9.534-9.514-18.242-11.195zm14-92.191h280a14.015 14.015 0 0 1 14 14v65.813c-8.71 1.681-13.919 6.869-18.245 11.194-4.786 4.786-8.244 8.243-15.755 8.243s-10.974-3.458-15.76-8.243c-5.24-5.238-11.764-11.757-24.25-11.757s-19 6.52-24.243 11.758c-4.785 4.785-8.242 8.242-15.757 8.242s-10.972-3.457-15.758-8.242c-5.238-5.238-11.757-11.758-24.243-11.758s-19 6.52-24.242 11.758c-4.785 4.785-8.247 8.242-15.757 8.242s-10.971-3.457-15.757-8.242c-5.233-5.238-11.756-11.758-24.241-11.758s-19 6.52-24.24 11.758c-4.784 4.785-8.241 8.242-15.752 8.242s-10.971-3.457-15.756-8.242c-4.325-4.325-9.534-9.514-18.242-11.2v-65.808a14.015 14.015 0 0 1 13.998-14zm280 240.5h-280a14.015 14.015 0 0 1 -14-14v-84.309c3.8 1.341 6.461 4.006 9.756 7.3 5.238 5.239 11.757 11.759 24.244 11.759s19-6.52 24.24-11.758c4.784-4.785 8.241-8.242 15.754-8.242s10.971 3.457 15.756 8.242c5.236 5.238 11.755 11.758 24.24 11.758s19-6.52 24.242-11.758c4.785-4.785 8.243-8.242 15.757-8.242s10.973 3.457 15.758 8.242c5.238 5.238 11.758 11.758 24.243 11.758s19-6.52 24.242-11.758c4.786-4.785 8.243-8.242 15.758-8.242s10.974 3.457 15.76 8.243c5.239 5.238 11.759 11.757 24.25 11.757s19-6.519 24.24-11.757c3.3-3.3 5.963-5.962 9.76-7.3v84.307a14.015 14.015 0 0 1 -14 14z" fill="url(#linear-gradient-2)" data-original="url(#linear-gradient-2)" style="" class=""/><path xmlns="http://www.w3.org/2000/svg" d="m411 306.146a11 11 0 1 0 11 11 11.013 11.013 0 0 0 -11-11z" fill="url(#linear-gradient-3)" data-original="url(#linear-gradient-3)" style=""/><path xmlns="http://www.w3.org/2000/svg" d="m461 306.146a11 11 0 1 0 11 11 11.013 11.013 0 0 0 -11-11z" fill="url(#linear-gradient-4)" data-original="url(#linear-gradient-4)" style=""/><path xmlns="http://www.w3.org/2000/svg" d="m411 346.146a11 11 0 1 0 11 11 11.013 11.013 0 0 0 -11-11z" fill="url(#linear-gradient-3)" data-original="url(#linear-gradient-3)" style=""/><path xmlns="http://www.w3.org/2000/svg" d="m461 346.146a11 11 0 1 0 11 11 11.013 11.013 0 0 0 -11-11z" fill="url(#linear-gradient-4)" data-original="url(#linear-gradient-4)" style=""/><g xmlns="http://www.w3.org/2000/svg" fill="url(#linear-gradient-7)"><path d="m466 143.854h-60a6 6 0 0 0 -6 6v40a6 6 0 0 0 6 6h60a6 6 0 0 0 6-6v-40a6 6 0 0 0 -6-6zm-6 40h-48v-28h48z" fill=""/><path d="m466 203.854h-60a6 6 0 0 0 -6 6v40a6 6 0 0 0 6 6h60a6 6 0 0 0 6-6v-40a6 6 0 0 0 -6-6zm-6 40h-48v-28h48z" fill=""/></g></g></svg>
