<?xml version="1.0"?>
<svg xmlns="http://www.w3.org/2000/svg" xmlns:xlink="http://www.w3.org/1999/xlink" xmlns:svgjs="http://svgjs.com/svgjs" version="1.1" width="512" height="512" x="0" y="0" viewBox="0 0 512 512" style="enable-background:new 0 0 512 512" xml:space="preserve" class=""><g><linearGradient xmlns="http://www.w3.org/2000/svg" id="a" gradientUnits="userSpaceOnUse" x1="42.904" x2="513.797" y1="500.096" y2="29.203" data-name="New Gradient Swatch 1"><stop stop-opacity="1" stop-color="#124095" offset="0"/><stop stop-opacity="1" stop-color="#124095" offset="0"/><stop stop-opacity="1" stop-color="#c00808" offset="1"/><stop stop-opacity="1" stop-color="#c00808" offset="1"/></linearGradient><path xmlns="http://www.w3.org/2000/svg" d="m501.27 280.98-73-64c-.89-.78-60.03-23.2-108.18-41.38l22.06-26.48a8 8 0 0 0 -6.15-13.12h-32v-120a8 8 0 0 0 -8-8h-80a8 8 0 0 0 -8 8v120h-32a8 8 0 0 0 -6.15 13.12l22.06 26.48c-48.15 18.18-107.29 40.6-108.18 41.38l-73 64a8.009 8.009 0 0 0 2.42 13.5l67 25.52h-.15v110a8 8 0 0 0 5.11 7.46l168 65a8 8 0 0 0 5.78 0l168-65a8 8 0 0 0 5.11-7.46v-110h-.15l67-25.52a8.009 8.009 0 0 0 2.42-13.5zm-285.27-128.98a8 8 0 0 0 8-8v-120h64v120a8 8 0 0 0 8 8h22.92l-14.68 17.62-10.96 13.14-37.28 44.74-37.28-44.74-10.96-13.14-14.68-17.62zm-184.73 132.25 59.37-52.05 150.21 57.56-58.54 52.04zm216.73 199.08-152-58.81v-98.48l85.15 32.44a8.065 8.065 0 0 0 2.85.52 7.98 7.98 0 0 0 5.31-2.02l58.69-52.16zm8-204.9-143.78-55.1 90.68-34.54 46.95 56.33a8.006 8.006 0 0 0 12.3 0l46.95-56.33 90.68 34.54zm160 146.09-152 58.81v-178.51l58.69 52.16a7.98 7.98 0 0 0 5.31 2.02 8.065 8.065 0 0 0 2.85-.52l85.15-32.44zm-86.31-82.72-58.54-52.04 150.21-57.56 59.37 52.05z" fill="url(#a)" data-original="url(#a)" style="" class=""/></g></svg>
