<?xml version="1.0"?>
<svg xmlns="http://www.w3.org/2000/svg" xmlns:xlink="http://www.w3.org/1999/xlink" xmlns:svgjs="http://svgjs.com/svgjs" version="1.1" width="512" height="512" x="0" y="0" viewBox="0 0 512 512" style="enable-background:new 0 0 512 512" xml:space="preserve" class=""><g transform="matrix(-1,0,0,1,511.9997501373291,0)"><linearGradient xmlns="http://www.w3.org/2000/svg" id="linear-gradient" gradientUnits="userSpaceOnUse" x1="390.137" x2="390.137" y1="462.84" y2="138.127"><stop stop-opacity="1" stop-color="#124095" offset="0"/><stop stop-opacity="1" stop-color="#124095" offset="0"/><stop stop-opacity="1" stop-color="#c00808" offset="1"/><stop stop-opacity="1" stop-color="#c00808" offset="1"/></linearGradient><linearGradient xmlns="http://www.w3.org/2000/svg" xmlns:xlink="http://www.w3.org/1999/xlink" id="linear-gradient-2" x1="374.7" x2="374.7" xlink:href="#linear-gradient" y1="462.839" y2="138.127"/><linearGradient xmlns="http://www.w3.org/2000/svg" xmlns:xlink="http://www.w3.org/1999/xlink" id="linear-gradient-3" x1="453.394" x2="453.394" xlink:href="#linear-gradient" y1="462.84" y2="138.126"/><linearGradient xmlns="http://www.w3.org/2000/svg" xmlns:xlink="http://www.w3.org/1999/xlink" id="linear-gradient-4" x1="422.533" x2="422.533" xlink:href="#linear-gradient" y1="462.84" y2="138.128"/><linearGradient xmlns="http://www.w3.org/2000/svg" xmlns:xlink="http://www.w3.org/1999/xlink" id="linear-gradient-5" x1="435.733" x2="435.733" xlink:href="#linear-gradient" y1="462.84" y2="138.127"/><linearGradient xmlns="http://www.w3.org/2000/svg" xmlns:xlink="http://www.w3.org/1999/xlink" id="linear-gradient-6" x1="363.807" x2="363.807" xlink:href="#linear-gradient" y1="462.84" y2="138.127"/><linearGradient xmlns="http://www.w3.org/2000/svg" xmlns:xlink="http://www.w3.org/1999/xlink" id="linear-gradient-7" x1="332.283" x2="332.283" xlink:href="#linear-gradient" y1="462.84" y2="138.128"/><linearGradient xmlns="http://www.w3.org/2000/svg" xmlns:xlink="http://www.w3.org/1999/xlink" id="linear-gradient-8" x1="419.311" x2="419.311" xlink:href="#linear-gradient" y1="462.84" y2="138.127"/><linearGradient xmlns="http://www.w3.org/2000/svg" xmlns:xlink="http://www.w3.org/1999/xlink" id="linear-gradient-9" x1="385.538" x2="385.538" xlink:href="#linear-gradient" y1="462.84" y2="138.127"/><linearGradient xmlns="http://www.w3.org/2000/svg" xmlns:xlink="http://www.w3.org/1999/xlink" id="linear-gradient-10" x1="367.844" x2="367.844" xlink:href="#linear-gradient" y1="462.84" y2="138.127"/><linearGradient xmlns="http://www.w3.org/2000/svg" xmlns:xlink="http://www.w3.org/1999/xlink" id="linear-gradient-11" x1="421.064" x2="421.064" xlink:href="#linear-gradient" y1="462.84" y2="138.128"/><linearGradient xmlns="http://www.w3.org/2000/svg" xmlns:xlink="http://www.w3.org/1999/xlink" id="linear-gradient-12" x1="415.079" x2="415.079" xlink:href="#linear-gradient" y1="462.839" y2="138.128"/><linearGradient xmlns="http://www.w3.org/2000/svg" xmlns:xlink="http://www.w3.org/1999/xlink" id="linear-gradient-13" x1="380.437" x2="380.437" xlink:href="#linear-gradient" y1="462.84" y2="138.126"/><linearGradient xmlns="http://www.w3.org/2000/svg" xmlns:xlink="http://www.w3.org/1999/xlink" id="linear-gradient-14" x1="331.947" x2="331.947" xlink:href="#linear-gradient" y1="462.84" y2="138.127"/><linearGradient xmlns="http://www.w3.org/2000/svg" xmlns:xlink="http://www.w3.org/1999/xlink" id="linear-gradient-15" x1="324.438" x2="324.438" xlink:href="#linear-gradient" y1="462.839" y2="138.128"/><linearGradient xmlns="http://www.w3.org/2000/svg" xmlns:xlink="http://www.w3.org/1999/xlink" id="linear-gradient-16" x1="386.329" x2="386.329" xlink:href="#linear-gradient" y1="462.84" y2="138.129"/><linearGradient xmlns="http://www.w3.org/2000/svg" xmlns:xlink="http://www.w3.org/1999/xlink" id="linear-gradient-17" x1="367.488" x2="367.488" xlink:href="#linear-gradient" y1="462.839" y2="138.127"/><linearGradient xmlns="http://www.w3.org/2000/svg" xmlns:xlink="http://www.w3.org/1999/xlink" id="linear-gradient-18" x1="321.827" x2="321.827" xlink:href="#linear-gradient" y1="462.84" y2="138.128"/><linearGradient xmlns="http://www.w3.org/2000/svg" xmlns:xlink="http://www.w3.org/1999/xlink" id="linear-gradient-19" x1="379.899" x2="379.899" xlink:href="#linear-gradient" y1="462.84" y2="138.127"/><linearGradient xmlns="http://www.w3.org/2000/svg" xmlns:xlink="http://www.w3.org/1999/xlink" id="linear-gradient-20" x1="342.231" x2="342.231" xlink:href="#linear-gradient" y1="462.841" y2="138.129"/><linearGradient xmlns="http://www.w3.org/2000/svg" xmlns:xlink="http://www.w3.org/1999/xlink" id="linear-gradient-21" x1="400.87" x2="400.87" xlink:href="#linear-gradient" y1="462.839" y2="138.128"/><linearGradient xmlns="http://www.w3.org/2000/svg" xmlns:xlink="http://www.w3.org/1999/xlink" id="linear-gradient-22" x1="342.319" x2="342.319" xlink:href="#linear-gradient" y1="462.84" y2="138.127"/><linearGradient xmlns="http://www.w3.org/2000/svg" xmlns:xlink="http://www.w3.org/1999/xlink" id="linear-gradient-23" x1="305.189" x2="305.189" xlink:href="#linear-gradient" y1="462.839" y2="138.127"/><linearGradient xmlns="http://www.w3.org/2000/svg" xmlns:xlink="http://www.w3.org/1999/xlink" id="linear-gradient-24" x1="365.798" x2="365.798" xlink:href="#linear-gradient" y1="462.84" y2="138.128"/><linearGradient xmlns="http://www.w3.org/2000/svg" xmlns:xlink="http://www.w3.org/1999/xlink" id="linear-gradient-25" x1="276.77" x2="276.77" xlink:href="#linear-gradient" y1="462.84" y2="138.127"/><linearGradient xmlns="http://www.w3.org/2000/svg" xmlns:xlink="http://www.w3.org/1999/xlink" id="linear-gradient-26" x1="252.958" x2="252.958" xlink:href="#linear-gradient" y1="462.839" y2="138.129"/><linearGradient xmlns="http://www.w3.org/2000/svg" xmlns:xlink="http://www.w3.org/1999/xlink" id="linear-gradient-27" x1="266.03" x2="266.03" xlink:href="#linear-gradient" y1="462.84" y2="138.126"/><linearGradient xmlns="http://www.w3.org/2000/svg" xmlns:xlink="http://www.w3.org/1999/xlink" id="linear-gradient-28" x1="240.324" x2="240.324" xlink:href="#linear-gradient" y1="462.84" y2="138.127"/><linearGradient xmlns="http://www.w3.org/2000/svg" xmlns:xlink="http://www.w3.org/1999/xlink" id="linear-gradient-29" x1="306.184" x2="306.184" xlink:href="#linear-gradient" y1="462.84" y2="138.127"/><linearGradient xmlns="http://www.w3.org/2000/svg" xmlns:xlink="http://www.w3.org/1999/xlink" id="linear-gradient-30" x1="291.192" x2="291.192" xlink:href="#linear-gradient" y1="462.839" y2="138.128"/><linearGradient xmlns="http://www.w3.org/2000/svg" xmlns:xlink="http://www.w3.org/1999/xlink" id="linear-gradient-31" x1="265.641" x2="265.641" xlink:href="#linear-gradient" y1="462.84" y2="138.129"/><linearGradient xmlns="http://www.w3.org/2000/svg" xmlns:xlink="http://www.w3.org/1999/xlink" id="linear-gradient-32" x1="275.141" x2="275.141" xlink:href="#linear-gradient" y1="462.84" y2="138.127"/><linearGradient xmlns="http://www.w3.org/2000/svg" xmlns:xlink="http://www.w3.org/1999/xlink" id="linear-gradient-33" x1="152.81" x2="152.81" xlink:href="#linear-gradient" y1="462.84" y2="138.127"/><linearGradient xmlns="http://www.w3.org/2000/svg" xmlns:xlink="http://www.w3.org/1999/xlink" id="linear-gradient-34" x1="171.5" x2="171.5" xlink:href="#linear-gradient" y1="462.84" y2="138.127"/><linearGradient xmlns="http://www.w3.org/2000/svg" xmlns:xlink="http://www.w3.org/1999/xlink" id="linear-gradient-35" x1="125.817" x2="125.817" xlink:href="#linear-gradient" y1="462.84" y2="138.128"/><linearGradient xmlns="http://www.w3.org/2000/svg" xmlns:xlink="http://www.w3.org/1999/xlink" id="linear-gradient-36" x1="127.13" x2="127.13" xlink:href="#linear-gradient" y1="462.84" y2="138.127"/><linearGradient xmlns="http://www.w3.org/2000/svg" xmlns:xlink="http://www.w3.org/1999/xlink" id="linear-gradient-37" x1="168.186" x2="168.186" xlink:href="#linear-gradient" y1="462.84" y2="138.129"/><linearGradient xmlns="http://www.w3.org/2000/svg" xmlns:xlink="http://www.w3.org/1999/xlink" id="linear-gradient-38" x1="209.643" x2="209.643" xlink:href="#linear-gradient" y1="462.839" y2="138.128"/><linearGradient xmlns="http://www.w3.org/2000/svg" xmlns:xlink="http://www.w3.org/1999/xlink" id="linear-gradient-39" x1="209.987" x2="209.987" xlink:href="#linear-gradient" y1="462.84" y2="138.127"/><linearGradient xmlns="http://www.w3.org/2000/svg" xmlns:xlink="http://www.w3.org/1999/xlink" id="linear-gradient-40" x1="159.442" x2="159.442" xlink:href="#linear-gradient" y1="462.84" y2="138.127"/><linearGradient xmlns="http://www.w3.org/2000/svg" xmlns:xlink="http://www.w3.org/1999/xlink" id="linear-gradient-41" x1="242.654" x2="242.654" xlink:href="#linear-gradient" y1="462.84" y2="138.128"/><linearGradient xmlns="http://www.w3.org/2000/svg" xmlns:xlink="http://www.w3.org/1999/xlink" id="linear-gradient-42" x1="230.805" x2="230.805" xlink:href="#linear-gradient" y1="462.839" y2="138.127"/><linearGradient xmlns="http://www.w3.org/2000/svg" xmlns:xlink="http://www.w3.org/1999/xlink" id="linear-gradient-43" x1="234.239" x2="234.239" xlink:href="#linear-gradient" y1="462.839" y2="138.127"/><linearGradient xmlns="http://www.w3.org/2000/svg" xmlns:xlink="http://www.w3.org/1999/xlink" id="linear-gradient-44" x1="212.203" x2="212.203" xlink:href="#linear-gradient" y1="462.84" y2="138.129"/><linearGradient xmlns="http://www.w3.org/2000/svg" xmlns:xlink="http://www.w3.org/1999/xlink" id="linear-gradient-45" x1="276.353" x2="276.353" xlink:href="#linear-gradient" y1="462.84" y2="138.127"/><linearGradient xmlns="http://www.w3.org/2000/svg" xmlns:xlink="http://www.w3.org/1999/xlink" id="linear-gradient-46" x1="270.679" x2="270.679" xlink:href="#linear-gradient" y1="462.841" y2="138.128"/><linearGradient xmlns="http://www.w3.org/2000/svg" xmlns:xlink="http://www.w3.org/1999/xlink" id="linear-gradient-47" x1="249.703" x2="249.703" xlink:href="#linear-gradient" y1="462.839" y2="138.127"/><linearGradient xmlns="http://www.w3.org/2000/svg" xmlns:xlink="http://www.w3.org/1999/xlink" id="linear-gradient-48" x1="248.394" x2="248.394" xlink:href="#linear-gradient" y1="462.838" y2="138.126"/><linearGradient xmlns="http://www.w3.org/2000/svg" xmlns:xlink="http://www.w3.org/1999/xlink" id="linear-gradient-49" x1="115.244" x2="115.244" xlink:href="#linear-gradient" y1="462.84" y2="138.127"/><linearGradient xmlns="http://www.w3.org/2000/svg" xmlns:xlink="http://www.w3.org/1999/xlink" id="linear-gradient-50" x1="132.937" x2="132.937" xlink:href="#linear-gradient" y1="462.84" y2="138.128"/><linearGradient xmlns="http://www.w3.org/2000/svg" xmlns:xlink="http://www.w3.org/1999/xlink" id="linear-gradient-51" x1="79.72" x2="79.72" xlink:href="#linear-gradient" y1="462.839" y2="138.127"/><linearGradient xmlns="http://www.w3.org/2000/svg" xmlns:xlink="http://www.w3.org/1999/xlink" id="linear-gradient-52" x1="85.703" x2="85.703" xlink:href="#linear-gradient" y1="462.84" y2="138.128"/><linearGradient xmlns="http://www.w3.org/2000/svg" xmlns:xlink="http://www.w3.org/1999/xlink" id="linear-gradient-53" x1="120.344" x2="120.344" xlink:href="#linear-gradient" y1="462.841" y2="138.127"/><linearGradient xmlns="http://www.w3.org/2000/svg" xmlns:xlink="http://www.w3.org/1999/xlink" id="linear-gradient-54" x1="168.833" x2="168.833" xlink:href="#linear-gradient" y1="462.838" y2="138.127"/><linearGradient xmlns="http://www.w3.org/2000/svg" xmlns:xlink="http://www.w3.org/1999/xlink" id="linear-gradient-55" x1="176.41" x2="176.41" xlink:href="#linear-gradient" y1="462.838" y2="138.127"/><linearGradient xmlns="http://www.w3.org/2000/svg" xmlns:xlink="http://www.w3.org/1999/xlink" id="linear-gradient-56" x1="114.453" x2="114.453" xlink:href="#linear-gradient" y1="462.841" y2="138.128"/><linearGradient xmlns="http://www.w3.org/2000/svg" xmlns:xlink="http://www.w3.org/1999/xlink" id="linear-gradient-57" x1="128.641" x2="128.641" xlink:href="#linear-gradient" y1="462.84" y2="138.128"/><linearGradient xmlns="http://www.w3.org/2000/svg" xmlns:xlink="http://www.w3.org/1999/xlink" id="linear-gradient-58" x1="141.668" x2="141.668" xlink:href="#linear-gradient" y1="462.841" y2="138.127"/><linearGradient xmlns="http://www.w3.org/2000/svg" xmlns:xlink="http://www.w3.org/1999/xlink" id="linear-gradient-59" x1="63.992" x2="63.992" xlink:href="#linear-gradient" y1="462.839" y2="138.129"/><linearGradient xmlns="http://www.w3.org/2000/svg" xmlns:xlink="http://www.w3.org/1999/xlink" id="linear-gradient-60" x1="91.868" x2="91.868" xlink:href="#linear-gradient" y1="462.84" y2="138.127"/><linearGradient xmlns="http://www.w3.org/2000/svg" xmlns:xlink="http://www.w3.org/1999/xlink" id="linear-gradient-61" x1="86.396" x2="86.396" xlink:href="#linear-gradient" y1="462.84" y2="138.127"/><linearGradient xmlns="http://www.w3.org/2000/svg" xmlns:xlink="http://www.w3.org/1999/xlink" id="linear-gradient-62" x1="157.376" x2="157.376" xlink:href="#linear-gradient" y1="462.84" y2="138.126"/><linearGradient xmlns="http://www.w3.org/2000/svg" xmlns:xlink="http://www.w3.org/1999/xlink" id="linear-gradient-63" x1="185.924" x2="185.924" xlink:href="#linear-gradient" y1="462.84" y2="138.127"/><linearGradient xmlns="http://www.w3.org/2000/svg" xmlns:xlink="http://www.w3.org/1999/xlink" id="linear-gradient-64" x1="102.539" x2="102.539" xlink:href="#linear-gradient" y1="462.839" y2="138.128"/><path xmlns="http://www.w3.org/2000/svg" d="m462.363 158.928-177.825 85.372a11.013 11.013 0 0 0 1.249 20.365l186.007 62.76 6 1.1a16.977 16.977 0 0 0 16.333-12.291c18.833-65.815-.9-125.141-10.26-147.593a17.34 17.34 0 0 0 -21.504-9.713zm-80.563 125.465-29.181-9.846a15.669 15.669 0 0 1 28.433-6.669 6.709 6.709 0 1 0 2.712 9.975 15.559 15.559 0 0 1 -1.964 6.54zm79.68 22.426a16.983 16.983 0 0 0 -.681 4.229l-67.5-22.776a27.679 27.679 0 1 0 -52.171-17.6l-49.212-16.6 158.893-76.332a17.2 17.2 0 0 0 1.084 4.092c8.135 19.92 25.357 71.978 9.589 124.987zm21.107 6.107a4.987 4.987 0 0 1 -9.605-2.685c16.855-56.664-1.366-111.85-9.982-132.946a5.217 5.217 0 0 1 1.916-6.332l1.5-.72a5.246 5.246 0 0 1 6.373 3.009c8.873 21.286 27.59 77.505 9.8 139.674z" fill="url(#linear-gradient)" data-original="url(#linear-gradient)" style=""/><path xmlns="http://www.w3.org/2000/svg" d="m374.7 223.523a7.905 7.905 0 1 0 7.907 7.905 7.915 7.915 0 0 0 -7.907-7.905z" fill="url(#linear-gradient-2)" data-original="url(#linear-gradient-2)" style=""/><path xmlns="http://www.w3.org/2000/svg" d="m445.486 234.858a7.908 7.908 0 1 0 7.908-7.905 7.915 7.915 0 0 0 -7.908 7.905z" fill="url(#linear-gradient-3)" data-original="url(#linear-gradient-3)" style=""/><path xmlns="http://www.w3.org/2000/svg" d="m413.47 225.557 10.617 3.324a8.2 8.2 0 0 0 6.651-.776 8.122 8.122 0 0 0 3.809-5.427l2.684-13.882a8.231 8.231 0 0 0 -6.717-9.651l-11.787-2.66a8.119 8.119 0 0 0 -8.6 5.271l-2.187 13.944a8.218 8.218 0 0 0 5.53 9.861zm7.547-16.274 3.732.853-1.162 6.014-3.425-1.072z" fill="url(#linear-gradient-4)" data-original="url(#linear-gradient-4)" style=""/><path xmlns="http://www.w3.org/2000/svg" d="m452.652 258.081c-4.43-2.328-8.293-2.927-11.8-1.831-5.287 1.649-7.771 6.393-10.173 10.98-2.583 4.934-5.254 10.035-11.428 12.637a6.1 6.1 0 0 0 -3.528 7.262c1.217 4.574 10.773 11.016 19.655 11.016a17.239 17.239 0 0 0 2.075-.124c14.826-1.807 18.247-19.669 18.506-34.336a6.244 6.244 0 0 0 -3.307-5.604zm-15.552 27.764a7.44 7.44 0 0 1 -4.843-.229c4.47-4.07 7.011-8.924 9.051-12.818a44.518 44.518 0 0 1 2.417-4.247c-.745 9.649-3.125 15.979-6.625 17.294z" fill="url(#linear-gradient-5)" data-original="url(#linear-gradient-5)" style=""/><path xmlns="http://www.w3.org/2000/svg" d="m363.807 264.732a6.532 6.532 0 1 0 6.532 6.533 6.541 6.541 0 0 0 -6.532-6.533z" fill="url(#linear-gradient-6)" data-original="url(#linear-gradient-6)" style=""/><path xmlns="http://www.w3.org/2000/svg" d="m331.749 240.922a21.024 21.024 0 0 0 -8.179 12.478 6.173 6.173 0 0 0 4.1 7.435 6.078 6.078 0 0 0 1.676.237 6 6 0 0 0 5.853-4.711 9.827 9.827 0 0 1 3.553-5.831 6.056 6.056 0 0 0 2.357-5.632 5.947 5.947 0 0 0 -9.36-3.976z" fill="url(#linear-gradient-7)" data-original="url(#linear-gradient-7)" style=""/><path xmlns="http://www.w3.org/2000/svg" d="m426.692 259.443a6 6 0 1 0 -1.789-11.865c-.04.009-3.912.3-6.624-5.616a6 6 0 0 0 -10.91 5c5.191 11.327 14.025 12.582 17.68 12.582a11.469 11.469 0 0 0 1.643-.101z" fill="url(#linear-gradient-8)" data-original="url(#linear-gradient-8)" style=""/><path xmlns="http://www.w3.org/2000/svg" d="m481.141 338.376a17.189 17.189 0 0 0 -3.469-1.262l-182.7-64a11.017 11.017 0 0 0 -13.52 15.285l87.106 175.781h.007a16.979 16.979 0 0 0 23.7 7.87c59.9-33.234 87.933-89.122 97.206-111.608a17.32 17.32 0 0 0 -8.33-22.066zm-159.429 4.238a15.654 15.654 0 0 1 24.833 15.386 6.709 6.709 0 1 0 -11.028 7.095l.006.008a6.658 6.658 0 0 0 5.863 1.855 15.6 15.6 0 0 1 -6.012 3.229zm54.137 99.713a16.933 16.933 0 0 0 -3.479 2.514l-31.609-63.786a27.667 27.667 0 1 0 -24.434-49.308l-23.046-46.507 166.377 58.28a17.238 17.238 0 0 0 -2.123 3.65c-8.346 19.83-33.015 68.81-81.686 95.157zm102.535-86.461c-8.791 21.319-35.347 74.294-91.934 105.69a4.979 4.979 0 0 1 -4.889-8.676c52.021-28.159 78.2-80.052 87.035-101.056a5.244 5.244 0 0 1 3.027-2.905 5.3 5.3 0 0 1 1.856-.338 5.134 5.134 0 0 1 .856.08l1.668.584a5.275 5.275 0 0 1 2.381 6.621z" fill="url(#linear-gradient-9)" data-original="url(#linear-gradient-9)" style=""/><path xmlns="http://www.w3.org/2000/svg" d="m367.845 335.617a7.9 7.9 0 1 0 -5.588-2.308 7.885 7.885 0 0 0 5.588 2.308z" fill="url(#linear-gradient-10)" data-original="url(#linear-gradient-10)" style=""/><path xmlns="http://www.w3.org/2000/svg" d="m415.471 380.144a7.912 7.912 0 0 0 0 11.179 7.906 7.906 0 1 0 0-11.182z" fill="url(#linear-gradient-11)" data-original="url(#linear-gradient-11)" style=""/><path xmlns="http://www.w3.org/2000/svg" d="m416.356 363.811 11.725-7.921a8.229 8.229 0 0 0 2.074-11.575l-6.454-10.21a8.125 8.125 0 0 0 -9.805-2.349l-11.411 8.313a8.217 8.217 0 0 0 -3.066 10.882l5.154 9.852a8.206 8.206 0 0 0 5.253 4.153 8.124 8.124 0 0 0 6.53-1.145zm-.081-19.034 2.032 3.235-5.085 3.435-1.66-3.172z" fill="url(#linear-gradient-12)" data-original="url(#linear-gradient-12)" style=""/><path xmlns="http://www.w3.org/2000/svg" d="m397.052 392c-4.906-2.572-10.023-.973-14.967.575-5.317 1.663-10.817 3.384-17.03.862a6.1 6.1 0 0 0 -7.626 2.645c-2.557 4.416.2 17.219 7.656 23.051a16.274 16.274 0 0 0 10.283 3.594c9.417 0 19.443-7.4 27.1-14.791a6.236 6.236 0 0 0 1.626-6.3c-1.482-4.779-3.786-7.929-7.042-9.636zm-23.609 18.273a7.41 7.41 0 0 1 -3.254-3.576c6.048.283 11.279-1.356 15.478-2.67a45.541 45.541 0 0 1 4.7-1.293c-7.355 6.29-13.523 9.081-16.924 7.538z" fill="url(#linear-gradient-13)" data-original="url(#linear-gradient-13)" style=""/><path xmlns="http://www.w3.org/2000/svg" d="m338.48 348.2a6.531 6.531 0 1 0 -1.924 4.621 6.49 6.49 0 0 0 1.924-4.621z" fill="url(#linear-gradient-14)" data-original="url(#linear-gradient-14)" style=""/><path xmlns="http://www.w3.org/2000/svg" d="m330.731 303.948a21.966 21.966 0 0 0 -14.569 3.167 6.181 6.181 0 0 0 -2.612 7.715 6 6 0 0 0 8.716 2.621 9.856 9.856 0 0 1 6.622-1.619 5.984 5.984 0 0 0 5.63-2.363l.186-.256a5.867 5.867 0 0 0 -3.973-9.265z" fill="url(#linear-gradient-15)" data-original="url(#linear-gradient-15)" style=""/><path xmlns="http://www.w3.org/2000/svg" d="m384.788 384.258a6 6 0 1 0 7.119-9.66c-.031-.023-2.976-2.542-.706-8.64a6 6 0 1 0 -11.246-4.187c-5.467 14.682 4.41 22.175 4.833 22.487z" fill="url(#linear-gradient-16)" data-original="url(#linear-gradient-16)" style=""/><path xmlns="http://www.w3.org/2000/svg" d="m270.277 240.652a10.982 10.982 0 0 0 12.193 1.625l175.948-87.024v-.007a16.951 16.951 0 0 0 7.875-23.694c-33.268-59.842-89.209-87.852-111.716-97.113a17.341 17.341 0 0 0 -22.077 8.331l-65.315 185.988a10.969 10.969 0 0 0 3.092 11.894zm66.457-38.6a15.615 15.615 0 0 1 1.426-20.484 15.69 15.69 0 0 1 13.95-4.317 6.707 6.707 0 1 0 7.116 11.023l.01-.012a6.7 6.7 0 0 0 1.855-5.877 15.572 15.572 0 0 1 3.246 6.014zm6.087-152.577.555-1.579a5.309 5.309 0 0 1 4.643-2.753 5.221 5.221 0 0 1 1.99.394c21.341 8.783 74.369 35.316 105.793 91.846a4.974 4.974 0 0 1 -2.405 6.977 4.963 4.963 0 0 1 -6.293-2.106c-28.187-51.972-80.128-78.122-101.152-86.954a5.218 5.218 0 0 1 -3.131-5.827zm-5.18 14.761a17.2 17.2 0 0 0 3.665 2.13c19.853 8.339 68.878 32.985 95.249 81.609a16.95 16.95 0 0 0 2.5 3.469l-63.844 31.576a27.682 27.682 0 1 0 -49.355 24.411l-46.549 23.023z" fill="url(#linear-gradient-17)" data-original="url(#linear-gradient-17)" style="" class=""/><path xmlns="http://www.w3.org/2000/svg" d="m327.416 161.556a7.921 7.921 0 1 0 -5.592 2.311 7.915 7.915 0 0 0 5.594-2.314z" fill="url(#linear-gradient-18)" data-original="url(#linear-gradient-18)" style=""/><path xmlns="http://www.w3.org/2000/svg" d="m379.9 110.7a7.9 7.9 0 1 0 -5.589-2.308 7.888 7.888 0 0 0 5.589 2.308z" fill="url(#linear-gradient-19)" data-original="url(#linear-gradient-19)" style=""/><path xmlns="http://www.w3.org/2000/svg" d="m334.2 121.364a8.241 8.241 0 0 0 10.879 3.062l9.86-5.149a8.143 8.143 0 0 0 3.011-11.786l-7.928-11.713a8.236 8.236 0 0 0 -11.573-2.078l-10.213 6.445a8.117 8.117 0 0 0 -2.36 9.813zm7.946-15.814 3.436 5.076-3.179 1.66-3.5-4.7z" fill="url(#linear-gradient-20)" data-original="url(#linear-gradient-20)" style=""/><path xmlns="http://www.w3.org/2000/svg" d="m386.753 141.742c1.664 5.311 3.386 10.8.864 17a6.1 6.1 0 0 0 2.64 7.63 9.253 9.253 0 0 0 4.516.935c5.749 0 14.15-2.956 18.562-8.6 9.194-11.754-1.021-26.794-11.215-37.344a6.249 6.249 0 0 0 -6.3-1.63c-4.781 1.485-7.936 3.79-9.643 7.047-2.577 4.909-.977 10.02.576 14.962zm17.718 8.617a7.42 7.42 0 0 1 -3.594 3.263c.281-6.04-1.358-11.272-2.674-15.469a45.288 45.288 0 0 1 -1.295-4.7c6.301 7.347 9.103 13.511 7.563 16.906z" fill="url(#linear-gradient-21)" data-original="url(#linear-gradient-21)" style=""/><path xmlns="http://www.w3.org/2000/svg" d="m337.705 187.2a6.533 6.533 0 1 0 9.233 0 6.488 6.488 0 0 0 -9.233 0z" fill="url(#linear-gradient-22)" data-original="url(#linear-gradient-22)" style=""/><path xmlns="http://www.w3.org/2000/svg" d="m309.959 194.642a5.922 5.922 0 0 0 -11.7-1.817 20.818 20.818 0 0 0 3.18 15.134 6 6 0 0 0 8.866 1.4 6.131 6.131 0 0 0 1.171-7.982 9.754 9.754 0 0 1 -1.517-6.735z" fill="url(#linear-gradient-23)" data-original="url(#linear-gradient-23)" style=""/><path xmlns="http://www.w3.org/2000/svg" d="m352.386 136.156a6 6 0 0 0 3.534 7.715 24.343 24.343 0 0 0 8.5 1.642 17.846 17.846 0 0 0 13.994-6.469 6 6 0 0 0 -9.654-7.127c-.022.03-2.545 2.977-8.661.706a6 6 0 0 0 -7.713 3.533z" fill="url(#linear-gradient-24)" data-original="url(#linear-gradient-24)" style=""/><path xmlns="http://www.w3.org/2000/svg" d="m360.233 461.945-85.187-176.716a11.022 11.022 0 0 0 -20.37 1.261l-61.829 183.287a17.118 17.118 0 0 0 -1.137 3.51 17.323 17.323 0 0 0 12.283 20.139 243.821 243.821 0 0 0 64.029 8.553c25.082 0 54.275-3.964 83.835-16.5a16.951 16.951 0 0 0 8.368-23.525zm-53.787-83.945a15.593 15.593 0 0 1 -6.241 2.746 6.774 6.774 0 0 0 .765-.82 6.715 6.715 0 1 0 -11.022-.634 15.636 15.636 0 0 1 3.138-29.008zm-41.168-85.4 22.538 46.752a27.663 27.663 0 0 0 9.325 53.707 28.049 28.049 0 0 0 3.419-.21 27.658 27.658 0 0 0 11.154-3.92l30.913 64.125a16.962 16.962 0 0 0 -4.114 1.193c-50.729 22.146-104.559 11.462-125.349 5.842a17.114 17.114 0 0 0 -4.192-.572zm84.641 178.88a4.9 4.9 0 0 1 -2.747 2.947c-59.579 25.273-117.73 13.621-139.964 7.438a5.279 5.279 0 0 1 -3.767-5.949l.529-1.57a5.224 5.224 0 0 1 4.662-2.858 5.338 5.338 0 0 1 1.4.188c22.014 5.952 79.069 17.239 133.282-6.428a4.98 4.98 0 0 1 6.6 6.232z" fill="url(#linear-gradient-25)" data-original="url(#linear-gradient-25)" style=""/><path xmlns="http://www.w3.org/2000/svg" d="m252.956 385.378a7.914 7.914 0 0 0 7.851-8.875v-.003a7.908 7.908 0 1 0 -7.85 8.882z" fill="url(#linear-gradient-26)" data-original="url(#linear-gradient-26)" style=""/><path xmlns="http://www.w3.org/2000/svg" d="m273.877 454.1a7.907 7.907 0 1 0 -7.854 8.879 8.033 8.033 0 0 0 .975-.059 7.905 7.905 0 0 0 6.88-8.815z" fill="url(#linear-gradient-27)" data-original="url(#linear-gradient-27)" style=""/><path xmlns="http://www.w3.org/2000/svg" d="m227.749 436.777a8.239 8.239 0 0 0 7.892 5.874 8.125 8.125 0 0 0 2.509-.4l13.46-4.365a8.115 8.115 0 0 0 4.923-4.447 8.2 8.2 0 0 0 -.047-6.7l-4.6-10.114a8.22 8.22 0 0 0 -10.464-4.277l-13.581 3.877a8.123 8.123 0 0 0 -4.177 9.187zm14.556-12.22 1.482 3.255-5.84 1.894-1.3-3.587z" fill="url(#linear-gradient-28)" data-original="url(#linear-gradient-28)" style=""/><path xmlns="http://www.w3.org/2000/svg" d="m289.039 451.528a6.166 6.166 0 0 0 5.054 2.618 6.437 6.437 0 0 0 .883-.062c14.535-2.057 31.856-7.641 31.831-22.567-.007-9.467-8.418-19.517-13.479-20.217a6.1 6.1 0 0 0 -6.774 4.39c-1.826 6.437-6.566 9.711-11.149 12.878-4.264 2.947-8.674 5.993-9.661 11.444-.656 3.618.414 7.374 3.295 11.516zm13.188-13.087c3.621-2.5 8.135-5.622 11.631-10.561a7.4 7.4 0 0 1 .827 4.77c-.873 3.626-6.874 6.768-16.364 8.694a45.3 45.3 0 0 1 3.906-2.903z" fill="url(#linear-gradient-29)" data-original="url(#linear-gradient-29)" style=""/><path xmlns="http://www.w3.org/2000/svg" d="m286.048 357.754a6.532 6.532 0 0 0 5.131 10.557 6.607 6.607 0 0 0 .816-.05 6.529 6.529 0 0 0 5.68-7.285 6.533 6.533 0 0 0 -11.627-3.22z" fill="url(#linear-gradient-30)" data-original="url(#linear-gradient-30)" style=""/><path xmlns="http://www.w3.org/2000/svg" d="m259.837 347.908c.192.018.384.027.573.027a6 6 0 0 0 5.967-5.434 9.466 9.466 0 0 1 6.5-7.246 6 6 0 0 0 -3.994-11.316 21.392 21.392 0 0 0 -14.451 17.429 6 6 0 0 0 5.405 6.54z" fill="url(#linear-gradient-31)" data-original="url(#linear-gradient-31)" style=""/><path xmlns="http://www.w3.org/2000/svg" d="m264.781 412.156a6.168 6.168 0 0 0 4.179 7.294c3.117 1.021 4.671 2.5 5.445 3.754a5.981 5.981 0 0 0 4 2.821l.48.085a5.748 5.748 0 0 0 6.193-8.179c-1.926-3.806-5.615-7.751-12.68-9.982a6 6 0 0 0 -7.617 4.207z" fill="url(#linear-gradient-32)" data-original="url(#linear-gradient-32)" style=""/><path xmlns="http://www.w3.org/2000/svg" d="m249.3 272.81a10.975 10.975 0 0 0 -12.195-1.619l-173.436 85.922a17.243 17.243 0 0 0 -8.859 24.6c11.967 21.187 46.659 73.207 110.19 98.841a16.97 16.97 0 0 0 22.557-10.72h.007l64.836-185.134a10.969 10.969 0 0 0 -3.1-11.89zm-73.163 193.375a4.992 4.992 0 0 1 -6.649 3.24c-60.015-24.216-92.884-73.532-104.23-93.611a5.274 5.274 0 0 1 1.551-6.865l1.6-.793a5.231 5.231 0 0 1 1.461-.212 5.39 5.39 0 0 1 1.243.147 5.247 5.247 0 0 1 3.364 2.513c11.353 19.759 43.708 68.047 98.8 89.612a4.949 4.949 0 0 1 2.86 5.969zm32.81-93.709a15.59 15.59 0 0 1 -6.386-2.482c.1 0 .21.026.315.026a6.708 6.708 0 0 0 5.3-2.572l.007-.009a6.711 6.711 0 1 0 -10.587-8.249 6.654 6.654 0 0 0 -1.228 2.572 15.794 15.794 0 0 1 -.627-2.835 15.544 15.544 0 0 1 3.195-11.552 15.706 15.706 0 0 1 20.183-3.932zm14.177-40.476a27.662 27.662 0 1 0 -18.185 51.922l-23.533 67.19a16.893 16.893 0 0 0 -3.76-2.066c-51.546-20.181-82.046-65.761-92.766-84.421a17.144 17.144 0 0 0 -2.556-3.362l157.956-78.251z" fill="url(#linear-gradient-33)" data-original="url(#linear-gradient-33)" style=""/><path xmlns="http://www.w3.org/2000/svg" d="m166.641 340.552a7.9 7.9 0 1 0 -2.989-5.264 7.867 7.867 0 0 0 2.989 5.264z" fill="url(#linear-gradient-34)" data-original="url(#linear-gradient-34)" style=""/><path xmlns="http://www.w3.org/2000/svg" d="m130.678 392.186a7.906 7.906 0 1 0 2.987 5.268 7.917 7.917 0 0 0 -2.987-5.268z" fill="url(#linear-gradient-35)" data-original="url(#linear-gradient-35)" style=""/><path xmlns="http://www.w3.org/2000/svg" d="m115.183 369.667 12.609 6.423a8.133 8.133 0 0 0 6.623.334 8.208 8.208 0 0 0 4.7-4.767l3.9-10.407a8.219 8.219 0 0 0 -4.379-10.426l-12.345-6.85a8.122 8.122 0 0 0 -9.445 3.539l-5.146 10.922a8.229 8.229 0 0 0 3.482 11.232zm10.35-12.477 5.109 2.894-1.257 3.35-5.47-2.787z" fill="url(#linear-gradient-36)" data-original="url(#linear-gradient-36)" style=""/><path xmlns="http://www.w3.org/2000/svg" d="m147 418.175c7.808 5.865 17.589 11.5 26.367 11.5a16.483 16.483 0 0 0 12.116-4.972c6.678-6.7 7.843-19.748 4.763-23.815a6.1 6.1 0 0 0 -7.894-1.686c-5.852 3.265-11.521 2.231-17 1.233-5.1-.931-10.373-1.889-14.926 1.266-3.021 2.095-4.922 5.5-5.809 10.426a6.245 6.245 0 0 0 2.383 6.048zm16.2-5.94c4.33.788 9.726 1.771 15.692.75a7.415 7.415 0 0 1 -2.79 3.949c-3.183 1.948-9.65-.066-17.722-5.405a45.591 45.591 0 0 1 4.811.706z" fill="url(#linear-gradient-37)" data-original="url(#linear-gradient-37)" style=""/><path xmlns="http://www.w3.org/2000/svg" d="m204.494 346.21a6.532 6.532 0 1 0 9.159-1.138 6.542 6.542 0 0 0 -9.159 1.138z" fill="url(#linear-gradient-38)" data-original="url(#linear-gradient-38)" style=""/><path xmlns="http://www.w3.org/2000/svg" d="m201.92 320.446a5.974 5.974 0 0 0 3.818-1.374 9.49 9.49 0 0 1 9.733-.535 6 6 0 1 0 5.17-10.83 21.415 21.415 0 0 0 -22.541 2.113 6 6 0 0 0 3.824 10.626z" fill="url(#linear-gradient-39)" data-original="url(#linear-gradient-39)" style=""/><path xmlns="http://www.w3.org/2000/svg" d="m154.284 381.864a5.75 5.75 0 0 0 1.117 4.854 5.956 5.956 0 0 0 10.461-1.987c1.049-3.91.99-9.013-2.194-15.134a6 6 0 0 0 -8.358-2.409 6.167 6.167 0 0 0 -2.2 8.113c1.5 2.967 1.529 5.133 1.174 6.563z" fill="url(#linear-gradient-40)" data-original="url(#linear-gradient-40)" style=""/><path xmlns="http://www.w3.org/2000/svg" d="m159.8 52.954 83.89 174.314a10.976 10.976 0 0 0 9.918 6.24q.342 0 .688-.021a10.979 10.979 0 0 0 9.765-7.468l62.822-185.831h-.008a16.951 16.951 0 0 0 -11.193-22.319c-65.874-18.814-125.251.9-147.722 10.249a17.231 17.231 0 0 0 -8.16 24.836zm114.172 106.284a15.636 15.636 0 0 1 -6.678-28.4 6.71 6.71 0 1 0 9.992-2.7 15.609 15.609 0 0 1 6.538 1.961zm13.737-40.638a27.667 27.667 0 1 0 -17.622 52.128l-16.622 49.172-76.4-158.745a17.223 17.223 0 0 0 4.089-1.083c19.942-8.129 72.051-25.335 125.117-9.581a17.009 17.009 0 0 0 4.232.679zm-115.141-79.406a230.1 230.1 0 0 1 85.984-17.189 195.641 195.641 0 0 1 53.833 7.4 4.974 4.974 0 0 1 3.244 6.632 4.966 4.966 0 0 1 -5.941 2.951c-56.712-16.836-111.948 1.365-133.062 9.972a5.237 5.237 0 0 1 -6.349-1.911l-.717-1.489a5.281 5.281 0 0 1 3.008-6.366z" fill="url(#linear-gradient-41)" data-original="url(#linear-gradient-41)" style="" class=""/><path xmlns="http://www.w3.org/2000/svg" d="m230.805 129.279a7.906 7.906 0 1 0 7.907 7.906 7.915 7.915 0 0 0 -7.907-7.906z" fill="url(#linear-gradient-42)" data-original="url(#linear-gradient-42)" style=""/><path xmlns="http://www.w3.org/2000/svg" d="m234.238 66.471a7.906 7.906 0 1 0 -7.907-7.905 7.915 7.915 0 0 0 7.907 7.905z" fill="url(#linear-gradient-43)" data-original="url(#linear-gradient-43)" style=""/><path xmlns="http://www.w3.org/2000/svg" d="m228.249 87.852a8.144 8.144 0 0 0 -6.2-10.464l-13.9-2.681a8.234 8.234 0 0 0 -9.65 6.715l-2.66 11.771a8.117 8.117 0 0 0 5.275 8.608l15.959 2.431a8.222 8.222 0 0 0 7.852-5.775zm-13.8 3.91-5.81-.856.851-3.719 6.03 1.163z" fill="url(#linear-gradient-44)" data-original="url(#linear-gradient-44)" style=""/><path xmlns="http://www.w3.org/2000/svg" d="m263.092 56a6.266 6.266 0 0 0 -5.6 3.3c-2.33 4.427-2.93 8.285-1.835 11.8 1.65 5.288 6.4 7.771 10.994 10.172 4.938 2.581 10.043 5.249 12.649 11.415a6.076 6.076 0 0 0 5.625 3.74 6.358 6.358 0 0 0 1.638-.216c4.935-1.317 12.043-12.325 10.9-21.719-1.817-14.82-19.693-18.237-34.371-18.492zm21.957 23.688c-4.077-4.473-8.94-7.014-12.842-9.053a45.205 45.205 0 0 1 -4.231-2.4c9.655.747 16 3.13 17.306 6.622a7.4 7.4 0 0 1 -.233 4.828z" fill="url(#linear-gradient-45)" data-original="url(#linear-gradient-45)" style=""/><path xmlns="http://www.w3.org/2000/svg" d="m270.68 141.536a6.532 6.532 0 1 0 6.532 6.532 6.54 6.54 0 0 0 -6.532-6.532z" fill="url(#linear-gradient-46)" data-original="url(#linear-gradient-46)" style=""/><path xmlns="http://www.w3.org/2000/svg" d="m239.749 178.835a20.015 20.015 0 0 0 13.436 9.523 5.992 5.992 0 0 0 7.247-5.147 6.174 6.174 0 0 0 -4.843-6.612 9.726 9.726 0 0 1 -5.979-3.936 5.922 5.922 0 0 0 -4.7-2.611 5.823 5.823 0 0 0 -5.161 8.783z" fill="url(#linear-gradient-47)" data-original="url(#linear-gradient-47)" style=""/><path xmlns="http://www.w3.org/2000/svg" d="m252.012 80.2a6 6 0 0 0 -5.036 6.829c0 .038.3 3.9-5.62 6.608a6 6 0 1 0 4.99 10.913c14.254-6.518 12.573-18.8 12.5-19.315a6 6 0 0 0 -6.834-5.035z" fill="url(#linear-gradient-48)" data-original="url(#linear-gradient-48)" style=""/><path xmlns="http://www.w3.org/2000/svg" d="m22.993 161.363 182.814 64.037a11.017 11.017 0 0 0 13.519-15.284l-87.107-175.781h-.008a16.97 16.97 0 0 0 -23.7-7.869c-59.899 33.234-87.934 89.125-97.211 111.612a17.32 17.32 0 0 0 8.338 22.065 17.139 17.139 0 0 0 3.355 1.22zm156.076-5.458a15.655 15.655 0 0 1 -24.83-15.4 6.709 6.709 0 1 0 5.153-8.938 15.6 15.6 0 0 1 6.016-3.233zm-54.135-99.714a16.9 16.9 0 0 0 3.478-2.513l31.609 63.787a27.663 27.663 0 1 0 24.434 49.307l23.045 46.507-166.377-58.279a17.2 17.2 0 0 0 2.123-3.65c8.347-19.835 33.016-68.811 81.688-95.159zm-102.534 86.462c8.793-21.32 35.35-74.3 91.934-105.69a4.98 4.98 0 0 1 4.89 8.676c-52.024 28.161-78.2 80.051-87.039 101.061a5.235 5.235 0 0 1 -5.837 3.129l-1.567-.549a5.276 5.276 0 0 1 -2.381-6.627z" fill="url(#linear-gradient-49)" data-original="url(#linear-gradient-49)" style=""/><path xmlns="http://www.w3.org/2000/svg" d="m127.348 165.21a7.908 7.908 0 1 0 11.177 0 7.855 7.855 0 0 0 -11.177 0z" fill="url(#linear-gradient-50)" data-original="url(#linear-gradient-50)" style=""/><path xmlns="http://www.w3.org/2000/svg" d="m79.721 120.688a7.9 7.9 0 1 0 -5.59-2.31 7.885 7.885 0 0 0 5.59 2.31z" fill="url(#linear-gradient-51)" data-original="url(#linear-gradient-51)" style=""/><path xmlns="http://www.w3.org/2000/svg" d="m84.426 134.707-11.726 7.922a8.23 8.23 0 0 0 -2.074 11.571l6.451 10.2a8.12 8.12 0 0 0 9.812 2.355l11.411-8.305a8.218 8.218 0 0 0 3.065-10.883l-5.155-9.853a8.148 8.148 0 0 0 -11.782-3.007zm.081 19.034-2.031-3.234 5.084-3.436 1.66 3.172z" fill="url(#linear-gradient-52)" data-original="url(#linear-gradient-52)" style=""/><path xmlns="http://www.w3.org/2000/svg" d="m103.73 106.519a12 12 0 0 0 5.7 1.358 31.858 31.858 0 0 0 9.27-1.932c5.32-1.664 10.818-3.386 17.028-.863a6.106 6.106 0 0 0 7.628-2.642c2.557-4.415-.2-17.217-7.654-23.051-11.757-9.2-26.813 1-37.38 11.186a6.222 6.222 0 0 0 -1.635 6.311c1.483 4.775 3.788 7.926 7.043 9.633zm21.5-18.689a5.057 5.057 0 0 1 2.111.417 7.414 7.414 0 0 1 3.255 3.575c-6.028-.276-11.279 1.357-15.478 2.67a45.042 45.042 0 0 1 -4.7 1.293c6.018-5.15 11.245-7.955 14.809-7.955z" fill="url(#linear-gradient-53)" data-original="url(#linear-gradient-53)" style=""/><path xmlns="http://www.w3.org/2000/svg" d="m162.3 150.33a6.533 6.533 0 0 0 11.157 4.614 6.546 6.546 0 0 0 0-9.228h-.006a6.487 6.487 0 0 0 -4.619-1.913h-.008a6.535 6.535 0 0 0 -6.524 6.532z" fill="url(#linear-gradient-54)" data-original="url(#linear-gradient-54)" style=""/><path xmlns="http://www.w3.org/2000/svg" d="m170.316 194.583a21.679 21.679 0 0 0 14.659-3.4 6 6 0 0 0 1.625-8.583 6.174 6.174 0 0 0 -8.242-1.439 9.815 9.815 0 0 1 -6.434 1.527 6.094 6.094 0 0 0 -5.707 2.419 6 6 0 0 0 4.099 9.476z" fill="url(#linear-gradient-55)" data-original="url(#linear-gradient-55)" style=""/><path xmlns="http://www.w3.org/2000/svg" d="m115.994 114.261a6 6 0 0 0 -7.119 9.66c.03.022 2.976 2.542.7 8.64a6 6 0 1 0 11.246 4.187c5.472-14.682-4.404-22.175-4.827-22.487z" fill="url(#linear-gradient-56)" data-original="url(#linear-gradient-56)" style=""/><path xmlns="http://www.w3.org/2000/svg" d="m57.107 353.555 176.887-85.107a11.014 11.014 0 0 0 -1.263-20.364l-183.459-61.77a17.258 17.258 0 0 0 -23.663 11.138c-6.527 23.429-18.819 84.727 7.961 147.733a16.984 16.984 0 0 0 23.537 8.368zm84.025-53.745a15.573 15.573 0 0 1 -2.754-6.248 6.675 6.675 0 0 0 5.777 2.15h.015a6.711 6.711 0 1 0 -4.337-12.378 15.674 15.674 0 0 1 29.047 3.128zm-82.169-93.187a17.2 17.2 0 0 0 .573-4.191l167.072 56.253-46.798 22.515a27.68 27.68 0 1 0 -49.613 23.87l-64.192 30.886a16.923 16.923 0 0 0 -1.195-4.114c-22.164-50.674-11.472-104.45-5.847-125.219zm-7.351 136.269a4.951 4.951 0 0 1 -4.051.343 4.9 4.9 0 0 1 -2.948-2.743c-25.3-59.516-13.633-117.607-7.444-139.819a5.292 5.292 0 0 1 5.964-3.763l1.573.53a5.219 5.219 0 0 1 2.675 6.045c-5.958 21.995-17.257 79 6.434 133.165a4.946 4.946 0 0 1 -2.203 6.242z" fill="url(#linear-gradient-57)" data-original="url(#linear-gradient-57)" style=""/><path xmlns="http://www.w3.org/2000/svg" d="m136.808 252.61a7.839 7.839 0 0 0 4.844 1.671 8 8 0 0 0 .987-.061 7.908 7.908 0 1 0 -5.831-1.61z" fill="url(#linear-gradient-58)" data-original="url(#linear-gradient-58)" style=""/><path xmlns="http://www.w3.org/2000/svg" d="m64.967 267.279a7.9 7.9 0 1 0 -.979.061 8 8 0 0 0 .973-.06z" fill="url(#linear-gradient-59)" data-original="url(#linear-gradient-59)" style=""/><path xmlns="http://www.w3.org/2000/svg" d="m81.2 245.036a8.127 8.127 0 0 0 7.739 5.608 8.239 8.239 0 0 0 3.4-.737l10.13-4.6a8.217 8.217 0 0 0 4.274-10.464l-3.882-13.569a8.121 8.121 0 0 0 -9.181-4.174l-11.37 4.084a8.292 8.292 0 0 0 -4.84 3.89 8.2 8.2 0 0 0 -.641 6.512zm11.78-14.957 1.561 5.648-3.267 1.484-1.893-5.827z" fill="url(#linear-gradient-60)" data-original="url(#linear-gradient-60)" style=""/><path xmlns="http://www.w3.org/2000/svg" d="m64.988 288.353c2.058 14.514 7.64 31.8 22.552 31.8h.036c9.474-.017 19.528-8.42 20.226-13.477a6.1 6.1 0 0 0 -4.395-6.772c-6.446-1.826-9.723-6.56-12.893-11.14-2.949-4.258-6-8.662-11.446-9.649-3.621-.655-7.374.412-11.461 3.247a6.247 6.247 0 0 0 -2.619 5.991zm15.66 7.25c2.5 3.616 5.622 8.121 10.558 11.612a7.417 7.417 0 0 1 -4.777.82c-3.629-.875-6.774-6.87-8.7-16.35a45.15 45.15 0 0 1 2.919 3.915z" fill="url(#linear-gradient-61)" data-original="url(#linear-gradient-61)" style=""/><path xmlns="http://www.w3.org/2000/svg" d="m156.573 278.091a6.532 6.532 0 1 0 7.285 5.68 6.49 6.49 0 0 0 -7.285-5.68z" fill="url(#linear-gradient-62)" data-original="url(#linear-gradient-62)" style=""/><path xmlns="http://www.w3.org/2000/svg" d="m179.327 260.721a9.767 9.767 0 0 1 4.606 5.557 6 6 0 0 0 8.23 3.42 6.142 6.142 0 0 0 2.962-7.754 20.714 20.714 0 0 0 -10.152-11.6 5.918 5.918 0 0 0 -8.645 5.611 5.812 5.812 0 0 0 2.999 4.766z" fill="url(#linear-gradient-63)" data-original="url(#linear-gradient-63)" style=""/><path xmlns="http://www.w3.org/2000/svg" d="m99.656 262.357a9.955 9.955 0 0 1 -3.367 5.176 6.187 6.187 0 0 0 -2.647 4.97 6 6 0 0 0 9.358 4.983c3.112-2.114 6.256-5.68 8.157-11.69a6 6 0 0 0 -4.2-7.615 6.171 6.171 0 0 0 -7.301 4.176z" fill="url(#linear-gradient-64)" data-original="url(#linear-gradient-64)" style=""/></g></svg>
