<?xml version="1.0"?>
<svg xmlns="http://www.w3.org/2000/svg" xmlns:xlink="http://www.w3.org/1999/xlink" xmlns:svgjs="http://svgjs.com/svgjs" version="1.1" width="512" height="512" x="0" y="0" viewBox="0 0 64 64" style="enable-background:new 0 0 512 512" xml:space="preserve" class=""><g><linearGradient xmlns="http://www.w3.org/2000/svg" id="a" gradientUnits="userSpaceOnUse" x1="-4.871" x2="64.11" y1="67.871" y2="-1.11"><stop stop-opacity="1" stop-color="#003f8a" offset="0"/><stop stop-opacity="1" stop-color="#124095" offset="0"/><stop stop-opacity="1" stop-color="#c00808" offset="0.9961389961389961"/></linearGradient><linearGradient xmlns="http://www.w3.org/2000/svg" xmlns:xlink="http://www.w3.org/1999/xlink" id="b" x1="-16.371" x2="52.61" xlink:href="#a" y1="56.371" y2="-12.61"/><linearGradient xmlns="http://www.w3.org/2000/svg" xmlns:xlink="http://www.w3.org/1999/xlink" id="c" x1="-8.371" x2="60.61" xlink:href="#a" y1="64.371" y2="-4.61"/><linearGradient xmlns="http://www.w3.org/2000/svg" xmlns:xlink="http://www.w3.org/1999/xlink" id="d" x1="-.871" x2="68.11" xlink:href="#a" y1="71.871" y2="2.89"/><linearGradient xmlns="http://www.w3.org/2000/svg" xmlns:xlink="http://www.w3.org/1999/xlink" id="e" x1="15.879" x2="84.86" xlink:href="#a" y1="88.621" y2="19.64"/><linearGradient xmlns="http://www.w3.org/2000/svg" xmlns:xlink="http://www.w3.org/1999/xlink" id="f" x1="13.629" x2="82.61" xlink:href="#a" y1="86.371" y2="17.39"/><linearGradient xmlns="http://www.w3.org/2000/svg" xmlns:xlink="http://www.w3.org/1999/xlink" id="g" x1="-25.621" x2="43.36" xlink:href="#a" y1="47.121" y2="-21.86"/><linearGradient xmlns="http://www.w3.org/2000/svg" xmlns:xlink="http://www.w3.org/1999/xlink" id="h" x1="-23.371" x2="45.61" xlink:href="#a" y1="49.371" y2="-19.61"/><path xmlns="http://www.w3.org/2000/svg" d="m53 0h-42a1 1 0 0 0 -1 1v60a1 1 0 0 0 1 1h3v1a1 1 0 0 0 2 0v-1h32v1a1 1 0 0 0 2 0v-1h3a1 1 0 0 0 1-1v-60a1 1 0 0 0 -1-1zm-41 18h40v13h-40zm40-16v14h-40v-14zm-40 58v-27h40v27z" fill="url(#a)" data-original="url(#a)" style="" class=""/><path xmlns="http://www.w3.org/2000/svg" d="m26 9h12a1 1 0 0 0 0-2h-12a1 1 0 0 0 0 2z" fill="url(#b)" data-original="url(#b)" style=""/><path xmlns="http://www.w3.org/2000/svg" d="m38 23h-12a1 1 0 0 0 0 2h12a1 1 0 0 0 0-2z" fill="url(#c)" data-original="url(#c)" style=""/><path xmlns="http://www.w3.org/2000/svg" d="m38 38h-12a1 1 0 0 0 0 2h12a1 1 0 0 0 0-2z" fill="url(#d)" data-original="url(#d)" style=""/><path xmlns="http://www.w3.org/2000/svg" d="m49 53a1 1 0 0 0 -1 1v2h-1a1 1 0 0 0 0 2h2a1 1 0 0 0 1-1v-3a1 1 0 0 0 -1-1z" fill="url(#e)" data-original="url(#e)" style=""/><path xmlns="http://www.w3.org/2000/svg" d="m44 56h-2a1 1 0 0 0 0 2h2a1 1 0 0 0 0-2z" fill="url(#f)" data-original="url(#f)" style=""/><path xmlns="http://www.w3.org/2000/svg" d="m15 9a1 1 0 0 0 1-1v-2h1a1 1 0 0 0 0-2h-2a1 1 0 0 0 -1 1v3a1 1 0 0 0 1 1z" fill="url(#g)" data-original="url(#g)" style=""/><path xmlns="http://www.w3.org/2000/svg" d="m20 6h2a1 1 0 0 0 0-2h-2a1 1 0 0 0 0 2z" fill="url(#h)" data-original="url(#h)" style=""/></g></svg>
