<?xml version="1.0"?>
<svg xmlns="http://www.w3.org/2000/svg" xmlns:xlink="http://www.w3.org/1999/xlink" xmlns:svgjs="http://svgjs.com/svgjs" version="1.1" width="512" height="512" x="0" y="0" viewBox="0 0 480 480" style="enable-background:new 0 0 512 512" xml:space="preserve" class=""><g><linearGradient xmlns="http://www.w3.org/2000/svg" id="a"><stop stop-opacity="1" stop-color="#124095" offset="0.007722007722007722"/><stop stop-opacity="1" stop-color="#c00808" offset="1"/></linearGradient><linearGradient xmlns="http://www.w3.org/2000/svg" xmlns:xlink="http://www.w3.org/1999/xlink" id="b" gradientUnits="userSpaceOnUse" x1="-.832" x2="463.168" xlink:href="#a" y1="518.2" y2="-17.8"/><linearGradient xmlns="http://www.w3.org/2000/svg" xmlns:xlink="http://www.w3.org/1999/xlink" id="c" gradientUnits="userSpaceOnUse" x1="-76.048" x2="387.952" xlink:href="#a" y1="453.088" y2="-82.912"/><linearGradient xmlns="http://www.w3.org/2000/svg" xmlns:xlink="http://www.w3.org/1999/xlink" id="d" gradientUnits="userSpaceOnUse" x1="-9.296" x2="454.704" xlink:href="#a" y1="510.88" y2="-25.12"/><linearGradient xmlns="http://www.w3.org/2000/svg" xmlns:xlink="http://www.w3.org/1999/xlink" id="e" gradientUnits="userSpaceOnUse" x1="-44.04" x2="419.96" xlink:href="#a" y1="480.8" y2="-55.2"/><path xmlns="http://www.w3.org/2000/svg" d="m472 0h-464c-4.417969 0-8 3.582031-8 8v464c0 4.417969 3.582031 8 8 8h464c4.417969 0 8-3.582031 8-8v-464c0-4.417969-3.582031-8-8-8zm-45.847656 16c-12.296875 52.800781-50.152344 220.28125-50.152344 280 0 42.160156 10.457031 85.855469 19.679688 124.398438 3.769531 15.753906 7.296874 30.691406 9.601562 43.601562h-330.570312c2.3125-12.910156 5.839843-27.847656 9.601562-43.601562 9.230469-38.542969 19.6875-82.238282 19.6875-124.398438 0-59.71875-37.855469-227.199219-50.152344-280zm-410.152344 0h21.414062c11.195313 47.839844 50.585938 220.511719 50.585938 280 0 40.273438-10.214844 82.992188-19.199219 120.679688-4.105469 17.121093-7.914062 33.289062-10.273437 47.320312h-42.527344zm448 448h-42.496094c-2.398437-14.03125-6.167968-30.199219-10.273437-47.320312-9.015625-37.6875-19.230469-80.40625-19.230469-120.679688 0-59.488281 39.390625-232.160156 50.585938-280h21.414062zm0 0" fill="url(#b)" data-original="url(#b)" style="" class=""/><path xmlns="http://www.w3.org/2000/svg" d="m112 144h256c4.417969 0 8-3.582031 8-8v-96c0-4.417969-3.582031-8-8-8h-256c-4.417969 0-8 3.582031-8 8v96c0 4.417969 3.582031 8 8 8zm8-96h240v80h-240zm0 0" fill="url(#c)" data-original="url(#c)" style=""/><path xmlns="http://www.w3.org/2000/svg" d="m328 104h16v16h-16zm0 0" fill="url(#d)" data-original="url(#d)" style=""/><path xmlns="http://www.w3.org/2000/svg" d="m312 56h-32c-4.417969 0-8 3.582031-8 8v48c0 4.417969 3.582031 8 8 8h32c4.417969 0 8-3.582031 8-8v-48c0-4.417969-3.582031-8-8-8zm-8 48h-16v-32h16zm0 0" fill="url(#e)" data-original="url(#e)" style=""/></g></svg>
