<?xml version="1.0"?>
<svg xmlns="http://www.w3.org/2000/svg" xmlns:xlink="http://www.w3.org/1999/xlink" xmlns:svgjs="http://svgjs.com/svgjs" version="1.1" width="512" height="512" x="0" y="0" viewBox="0 0 512 512" style="enable-background:new 0 0 512 512" xml:space="preserve" class=""><g><linearGradient xmlns="http://www.w3.org/2000/svg" id="linear-gradient" gradientUnits="userSpaceOnUse" x1="331.75" x2="331.75" y1="462" y2="94.835"><stop stop-opacity="1" stop-color="#124095" offset="0"/><stop stop-opacity="1" stop-color="#124095" offset="0"/><stop stop-opacity="1" stop-color="#c00808" offset="1"/><stop stop-opacity="1" stop-color="#c00808" offset="1"/></linearGradient><linearGradient xmlns="http://www.w3.org/2000/svg" xmlns:xlink="http://www.w3.org/1999/xlink" id="linear-gradient-2" x1="281.25" x2="281.25" xlink:href="#linear-gradient" y1="462" y2="94.835"/><linearGradient xmlns="http://www.w3.org/2000/svg" xmlns:xlink="http://www.w3.org/1999/xlink" id="linear-gradient-3" x1="230.75" x2="230.75" xlink:href="#linear-gradient" y1="462" y2="94.835"/><linearGradient xmlns="http://www.w3.org/2000/svg" xmlns:xlink="http://www.w3.org/1999/xlink" id="linear-gradient-4" x1="180.25" x2="180.25" xlink:href="#linear-gradient" y1="462" y2="94.835"/><linearGradient xmlns="http://www.w3.org/2000/svg" xmlns:xlink="http://www.w3.org/1999/xlink" id="linear-gradient-5" x1="255.967" x2="255.967" xlink:href="#linear-gradient" y1="462" y2="94.835"/><linearGradient xmlns="http://www.w3.org/2000/svg" xmlns:xlink="http://www.w3.org/1999/xlink" id="linear-gradient-6" x1="178.269" x2="178.269" xlink:href="#linear-gradient" y1="462" y2="94.835"/><linearGradient xmlns="http://www.w3.org/2000/svg" xmlns:xlink="http://www.w3.org/1999/xlink" id="linear-gradient-7" x1="112.997" x2="112.997" xlink:href="#linear-gradient" y1="462" y2="94.835"/><path xmlns="http://www.w3.org/2000/svg" d="m321.3 173.312a6 6 0 0 0 12 0c0-4.05 1.233-5.72 3.276-8.486 2.373-3.214 5.623-7.615 5.623-15.616s-3.25-12.4-5.623-15.616c-2.043-2.767-3.276-4.438-3.276-8.489s1.233-5.721 3.276-8.488c2.373-3.217 5.624-7.617 5.624-15.617a6 6 0 0 0 -12 0c0 4.051-1.233 5.722-3.276 8.489-2.373 3.214-5.623 7.615-5.623 15.616s3.25 12.4 5.623 15.617c2.043 2.767 3.276 4.437 3.276 8.488s-1.233 5.72-3.276 8.487c-2.374 3.213-5.624 7.615-5.624 15.615z" fill="url(#linear-gradient)" data-original="url(#linear-gradient)" style=""/><path xmlns="http://www.w3.org/2000/svg" d="m270.8 173.312a6 6 0 0 0 12 0c0-4.05 1.233-5.72 3.276-8.486 2.374-3.214 5.624-7.615 5.624-15.616s-3.25-12.4-5.624-15.617c-2.043-2.767-3.276-4.437-3.276-8.488s1.233-5.721 3.276-8.488c2.374-3.217 5.624-7.617 5.624-15.617a6 6 0 0 0 -12 0c0 4.051-1.233 5.721-3.276 8.488-2.374 3.214-5.624 7.616-5.624 15.617s3.25 12.4 5.624 15.617c2.043 2.767 3.276 4.437 3.276 8.488s-1.233 5.72-3.276 8.487c-2.374 3.213-5.624 7.614-5.624 15.615z" fill="url(#linear-gradient-2)" data-original="url(#linear-gradient-2)" style=""/><path xmlns="http://www.w3.org/2000/svg" d="m220.3 173.312a6 6 0 0 0 12 0c0-4.05 1.233-5.72 3.276-8.486 2.374-3.214 5.624-7.615 5.624-15.616s-3.25-12.4-5.624-15.617c-2.043-2.767-3.276-4.437-3.276-8.488s1.233-5.721 3.276-8.488c2.374-3.217 5.624-7.617 5.624-15.617a6 6 0 0 0 -12 0c0 4.051-1.233 5.721-3.276 8.488-2.374 3.214-5.624 7.616-5.624 15.617s3.25 12.4 5.624 15.617c2.043 2.767 3.276 4.437 3.276 8.488s-1.233 5.72-3.276 8.487c-2.374 3.213-5.624 7.614-5.624 15.615z" fill="url(#linear-gradient-3)" data-original="url(#linear-gradient-3)" style=""/><path xmlns="http://www.w3.org/2000/svg" d="m169.8 173.312a6 6 0 0 0 12 0c0-4.05 1.233-5.72 3.276-8.486 2.373-3.214 5.623-7.615 5.623-15.616s-3.25-12.4-5.623-15.616c-2.043-2.767-3.276-4.438-3.276-8.489s1.233-5.721 3.276-8.488c2.374-3.217 5.624-7.617 5.624-15.617a6 6 0 0 0 -12 0c0 4.051-1.233 5.722-3.276 8.489-2.373 3.214-5.623 7.615-5.623 15.616s3.25 12.4 5.623 15.617c2.043 2.767 3.276 4.437 3.276 8.488s-1.233 5.72-3.276 8.487c-2.373 3.213-5.624 7.615-5.624 15.615z" fill="url(#linear-gradient-4)" data-original="url(#linear-gradient-4)" style=""/><path xmlns="http://www.w3.org/2000/svg" d="m454.46 203.86c-13.667-3.84-33.46-7.516-56.46-10.26v-87.345a38.247 38.247 0 0 1 38.186-38.311 21.427 21.427 0 0 0 21.318-23.1c-.835-11.252-10.663-19.991-22.326-19.844a81.369 81.369 0 0 0 -80.162 75.358l-1.179 13.742-8.726 74.931c-28.101-1.739-58.031-2.631-89.111-2.631-58.885 0-114.287 3.195-156 9.009-59.184 8.249-68.758 18.591-69.408 26.591l.207 1.732a223.835 223.835 0 0 0 66.06 157.627 228.469 228.469 0 0 0 23.8 20.718l1.24 67.262a18.067 18.067 0 0 0 17.969 17.661h232.268a18.089 18.089 0 0 0 18-17.662l1.264-67.384a225.823 225.823 0 0 0 89.8-178.269l.14-1.685c-1.263-10-14.85-14.76-26.88-18.14zm-88.7-88.366 1.225-14.272c2.564-35.622 32.571-64.222 68.308-64.222h.12c5.306 0 9.728 3.816 10.093 8.733a9.424 9.424 0 0 1 -2.5 7.182 9.112 9.112 0 0 1 -6.818 3.029 50.261 50.261 0 0 0 -50.188 50.311v135.366c-11 1.139-22.89 2.124-35.147 2.947zm-258.902 91.106c40.537-5.288 93.5-8.2 149.142-8.2 30.6 0 60.055.87 87.722 2.565l-5.164 44.354c-25.921 1.473-53.881 2.248-82.558 2.248-55.639 0-108.6-2.911-149.141-8.2-50.952-6.646-61.881-14.331-63.958-16.385 2.077-2.051 13.005-9.736 63.957-16.382zm271.277 262.513a6.03 6.03 0 0 1 -6 5.887h-232.267a6.03 6.03 0 0 1 -6-5.887l-1.1-58.59a223.76 223.76 0 0 0 123.225 36.477h.238a224.183 224.183 0 0 0 123-36.555zm-51.388-46.064a212.2 212.2 0 0 1 -70.527 11.951h-.226a213.652 213.652 0 0 1 -200.55-139.922c36.528 10.865 113.494 17.922 200.556 17.922 86.858 0 163.728-7.041 200.342-17.868a213.9 213.9 0 0 1 -129.595 127.917zm134.268-142.1c-29.553 11.876-112.69 20.074-205.015 20.074-92.557 0-175.795-8.228-205.188-20.141a213.371 213.371 0 0 1 -7.712-43.769c9.833 4.634 27.061 9.282 56.9 13.44 41.714 5.814 97.116 9.015 156 9.015s114.287-3.2 156-9.015c29.812-4.155 47.038-8.8 56.875-13.429a212.788 212.788 0 0 1 -7.86 43.828zm-55.685-41.579c-2.42.315-5.33.622-7.33.92v-34.612c57 6.8 69.049 15.152 71.225 17.307-2.077 2.054-12.944 9.739-63.895 16.385z" fill="url(#linear-gradient-5)" data-original="url(#linear-gradient-5)" style=""/><path xmlns="http://www.w3.org/2000/svg" d="m227.2 409.067a188.061 188.061 0 0 1 -93.086-42.239 6 6 0 1 0 -7.741 9.172 200.081 200.081 0 0 0 99.023 44.93 6.082 6.082 0 0 0 .908.068 6 6 0 0 0 .891-11.933z" fill="url(#linear-gradient-6)" data-original="url(#linear-gradient-6)" style=""/><path xmlns="http://www.w3.org/2000/svg" d="m114.794 348.09a6 6 0 0 0 -8.932 8.015c1.8 2 3.645 3.982 5.5 5.891a6 6 0 1 0 8.612-8.356c-1.747-1.798-3.489-3.665-5.18-5.55z" fill="url(#linear-gradient-7)" data-original="url(#linear-gradient-7)" style=""/></g></svg>
