<?xml version="1.0"?>
<svg xmlns="http://www.w3.org/2000/svg" xmlns:xlink="http://www.w3.org/1999/xlink" xmlns:svgjs="http://svgjs.com/svgjs" version="1.1" width="512" height="512" x="0" y="0" viewBox="0 0 64 64" style="enable-background:new 0 0 512 512" xml:space="preserve" class=""><g><linearGradient xmlns="http://www.w3.org/2000/svg" id="SVGID_1_" gradientUnits="userSpaceOnUse" x1="32" x2="32" y1="63" y2=".591"><stop stop-opacity="1" stop-color="#124095" offset="0"/><stop stop-opacity="1" stop-color="#c00808" offset="1"/></linearGradient><path xmlns="http://www.w3.org/2000/svg" d="m50.056 5.965-5.265-1.755-1.206-3.619-1.455.725c-2.201 1.102-4.667 1.684-7.13 1.684h-1v3.979c-.326.013-.659.021-1 .021h-2c-.341 0-.674-.008-1-.021v-3.979h-1c-2.463 0-4.929-.582-7.131-1.684l-1.454-.726-1.206 3.62-5.265 1.755c-2.31.769-4.354 2.165-5.913 4.035-1.954 2.347-3.031 5.32-3.031 8.374v13.626h9.49c-1.261 12.385-4.433 29.602-4.473 29.818l-.219 1.182h44.404l-.219-1.182c-.04-.216-3.212-17.432-4.473-29.818h9.49v-13.626c0-3.054-1.077-6.027-3.032-8.375-1.558-1.869-3.602-3.265-5.912-4.034zm-14.056-.993c2.209-.125 4.397-.662 6.412-1.574l.393 1.18c-1.035.602-3.383 1.758-6.805 2.222zm-14.412-1.575c2.015.913 4.203 1.45 6.412 1.575v1.828c-3.423-.464-5.771-1.621-6.805-2.223zm-12.02 7.883c.5-.6 1.075-1.121 1.683-1.599 1.604 2.863 3.749 7.89 3.749 14.319 0 .615-.018 1.289-.048 2h-7.952v-7.626c0-2.587.912-5.106 2.568-7.094zm-2.568 18.72v-2h7.837c-.045.645-.096 1.309-.156 2zm7.225 19h8.775v2h-9.094c.105-.651.211-1.319.319-2zm-.646 4h11.421v-6h-10.464c1.24-8.085 2.464-17.468 2.464-23 0-6.957-2.353-12.379-4.074-15.418.53-.279 1.077-.529 1.65-.721l5.274-1.758c1.19.753 4.71 2.65 10.125 2.87l-5.975 7.684v1.466l10.719 42.877h-22.52c.278-1.541.791-4.433 1.38-8zm23.202 8-10.781-43.123v-.534l6.49-8.343h.51c5.999 0 9.885-2.097 11.149-2.897l5.274 1.758c.574.192 1.12.441 1.651.721-1.721 3.039-4.074 8.46-4.074 15.418 0 5.532 1.224 14.915 2.464 23h-10.464v6h11.421c.589 3.567 1.102 6.459 1.38 8zm13.313-10h-9.094v-2h8.775c.108.681.214 1.349.319 2zm-.775-21c-.061-.691-.112-1.355-.156-2h7.837v2zm7.681-4h-7.952c-.03-.711-.048-1.385-.048-2 0-6.428 2.146-11.456 3.749-14.318.608.477 1.183.998 1.682 1.598 1.657 1.988 2.569 4.507 2.569 7.094zm-25.498-6.344-1.926.539-.539-1.926 1.926-.539zm3.236 11.556-1.926.539-.54-1.926 1.926-.539zm-1.079-3.852-1.926.539-.539-1.926 1.926-.539zm-1.078-3.852-1.926.539-.539-1.926 1.926-.539zm4.853 17.334.529 1.889-1.926.539-.529-1.889zm-.539-1.926-1.926.539-.539-1.926 1.926-.539zm-1.079-3.853-1.926.539-.54-1.926 1.926-.539zm9.184-18.063h-10v6h10zm-2 4h-6v-2h6z" fill="url(#SVGID_1_)" data-original="url(#SVGID_1_)" style=""/></g></svg>
