<?xml version="1.0" encoding="UTF-8"?>
<svg xmlns="http://www.w3.org/2000/svg" xmlns:xlink="http://www.w3.org/1999/xlink" xmlns:svgjs="http://svgjs.com/svgjs" version="1.1" width="512" height="512" x="0" y="0" viewBox="0 0 512 512" style="enable-background:new 0 0 512 512" xml:space="preserve">
  <g>
    <linearGradient xmlns="http://www.w3.org/2000/svg" id="a" gradientUnits="userSpaceOnUse" x1="10.646" x2="510.816" y1="502.354" y2="2.184" data-name="New Gradient Swatch 1">
      <stop stop-opacity="1" stop-color="#003f8a" offset="0"/>
      <stop stop-opacity="1" stop-color="#c00808" offset="0.5308880308880309"/>
      <stop stop-opacity="1" stop-color="#124095" offset="1"/>
    </linearGradient>
    <linearGradient xmlns="http://www.w3.org/2000/svg" xmlns:xlink="http://www.w3.org/1999/xlink" id="b" x1="10.646" x2="510.816" xlink:href="#a" y1="502.354" y2="2.183"/>
    <linearGradient xmlns="http://www.w3.org/2000/svg" xmlns:xlink="http://www.w3.org/1999/xlink" id="c" x1="23.798" x2="523.968" xlink:href="#a" y1="515.506" y2="15.335"/>
    <g xmlns="http://www.w3.org/2000/svg">
      <path d="m256 49c-114.69 0-208 93.31-208 208s93.31 208 208 208 208-93.31 208-208-93.31-208-208-208zm0 400c-105.87 0-192-86.13-192-192s86.13-192 192-192 192 86.13 192 192-86.13 192-192 192z" fill="url(#a)" data-original="url(#a)" style=""/>
      <path d="m431.36 81.64a248 248 0 1 0 -350.72 350.72 248 248 0 1 0 350.72-350.72zm-11.31 339.41a232 232 0 0 1 -328.1-328.1 232 232 0 0 1 328.1 328.1z" fill="url(#b)" data-original="url(#b)" style=""/>
      <path d="m353.89 255.99a23.994 23.994 0 0 0 -17.89-39.99h-40v-36a28 28 0 0 0 -55.99-.78l-7.43 40.89-11.89 11.89h-12.69a8 8 0 0 0 -8-8h-32a8 8 0 0 0 -8 8v112a8 8 0 0 0 8 8h32a8 8 0 0 0 8-8h12.69l13.65 13.66a8.008 8.008 0 0 0 5.66 2.34h80a23.994 23.994 0 0 0 22.31-32.84 24.014 24.014 0 0 0 11.58-39.17 24 24 0 0 0 0-32zm-161.89 80.01h-16v-96h16zm120-72h24a8 8 0 0 1 0 16h-24a8 8 0 0 0 0 16h24a8 8 0 0 1 0 16h-24a8 8 0 0 0 0 16h8a8 8 0 0 1 0 16h-76.69l-13.65-13.66a8.008 8.008 0 0 0 -5.66-2.34h-16v-80h16a8.008 8.008 0 0 0 5.66-2.34l16-16a8 8 0 0 0 2.21-4.23l8-44a7.608 7.608 0 0 0 .13-1.43 12 12 0 0 1 24 0v44a8 8 0 0 0 8 8h48a8 8 0 0 1 0 16h-24a8 8 0 0 0 0 16z" fill="url(#c)" data-original="url(#c)" style=""/>
    </g>
  </g>
</svg>
