<?xml version="1.0" encoding="UTF-8"?>
<svg xmlns="http://www.w3.org/2000/svg" xmlns:xlink="http://www.w3.org/1999/xlink" xmlns:svgjs="http://svgjs.com/svgjs" version="1.1" width="512" height="512" x="0" y="0" viewBox="0 0 496 496" style="enable-background:new 0 0 512 512" xml:space="preserve" class="">
  <g transform="matrix(-1,0,0,1,496,0)">
    <linearGradient xmlns="http://www.w3.org/2000/svg" id="a">
      <stop stop-opacity="1" stop-color="#124095" offset="0"/>
      <stop stop-opacity="1" stop-color="#c00808" offset="0.518"/>
      <stop stop-opacity="1" stop-color="#124095" offset="1"/>
    </linearGradient>
    <linearGradient xmlns="http://www.w3.org/2000/svg" xmlns:xlink="http://www.w3.org/1999/xlink" id="b" gradientUnits="userSpaceOnUse" x1="-6.904" x2="493.192" xlink:href="#a" y1="474.904" y2="-25.192"/>
    <linearGradient xmlns="http://www.w3.org/2000/svg" xmlns:xlink="http://www.w3.org/1999/xlink" id="c" gradientUnits="userSpaceOnUse" x1="11.096" x2="511.192" xlink:href="#a" y1="492.904" y2="-7.192"/>
    <linearGradient xmlns="http://www.w3.org/2000/svg" xmlns:xlink="http://www.w3.org/1999/xlink" id="d" gradientUnits="userSpaceOnUse" x1="43.096" x2="543.192" xlink:href="#a" y1="524.904" y2="24.808"/>
    <linearGradient xmlns="http://www.w3.org/2000/svg" xmlns:xlink="http://www.w3.org/1999/xlink" id="e" gradientUnits="userSpaceOnUse" x1="-8.904" x2="491.192" xlink:href="#a" y1="472.904" y2="-27.192"/>
    <linearGradient xmlns="http://www.w3.org/2000/svg" xmlns:xlink="http://www.w3.org/1999/xlink" id="f" gradientUnits="userSpaceOnUse" x1="-40.904" x2="459.192" xlink:href="#a" y1="440.904" y2="-59.192"/>
    <linearGradient xmlns="http://www.w3.org/2000/svg" xmlns:xlink="http://www.w3.org/1999/xlink" id="g" gradientUnits="userSpaceOnUse" x1="3.096" x2="503.192" xlink:href="#a" y1="484.904" y2="-15.192"/>
    <linearGradient xmlns="http://www.w3.org/2000/svg" xmlns:xlink="http://www.w3.org/1999/xlink" id="h" gradientUnits="userSpaceOnUse" x1="-90.904" x2="409.192" xlink:href="#a" y1="390.904" y2="-109.192"/>
    <linearGradient xmlns="http://www.w3.org/2000/svg" xmlns:xlink="http://www.w3.org/1999/xlink" id="i" gradientUnits="userSpaceOnUse" x1="-98.904" x2="401.192" xlink:href="#a" y1="382.904" y2="-117.192"/>
    <linearGradient xmlns="http://www.w3.org/2000/svg" xmlns:xlink="http://www.w3.org/1999/xlink" id="j" gradientUnits="userSpaceOnUse" x1="-138.904" x2="361.192" xlink:href="#a" y1="342.904" y2="-157.192"/>
    <linearGradient xmlns="http://www.w3.org/2000/svg" xmlns:xlink="http://www.w3.org/1999/xlink" id="k" gradientUnits="userSpaceOnUse" x1="99.096" x2="599.192" xlink:href="#a" y1="580.904" y2="80.808"/>
    <linearGradient xmlns="http://www.w3.org/2000/svg" xmlns:xlink="http://www.w3.org/1999/xlink" id="l" gradientUnits="userSpaceOnUse" x1="151.096" x2="651.192" xlink:href="#a" y1="632.904" y2="132.808"/>
    <linearGradient xmlns="http://www.w3.org/2000/svg" xmlns:xlink="http://www.w3.org/1999/xlink" id="m" gradientUnits="userSpaceOnUse" x1="-84.904" x2="415.192" xlink:href="#a" y1="396.904" y2="-103.192"/>
    <linearGradient xmlns="http://www.w3.org/2000/svg" xmlns:xlink="http://www.w3.org/1999/xlink" id="n" gradientUnits="userSpaceOnUse" x1="-32.904" x2="467.192" xlink:href="#a" y1="448.904" y2="-51.192"/>
    <path xmlns="http://www.w3.org/2000/svg" d="m488 0h-480c-4.417969 0-8 3.582031-8 8v408c0 4.417969 3.582031 8 8 8h8v24c0 4.417969 3.582031 8 8 8h72c4.417969 0 8-3.582031 8-8v-24h288v24c0 4.417969 3.582031 8 8 8h72c4.417969 0 8-3.582031 8-8v-24h8c4.417969 0 8-3.582031 8-8v-408c0-4.417969-3.582031-8-8-8zm-400 440h-56v-16h56zm376 0h-56v-16h56zm16-32h-464v-392h464zm0 0" fill="url(#b)" data-original="url(#b)" style="" class=""/>
    <path xmlns="http://www.w3.org/2000/svg" d="m40 392h416c4.417969 0 8-3.582031 8-8v-256c0-4.417969-3.582031-8-8-8h-416c-4.417969 0-8 3.582031-8 8v256c0 4.417969 3.582031 8 8 8zm8-256h400v240h-400zm0 0" fill="url(#c)" data-original="url(#c)" style="" class=""/>
    <path xmlns="http://www.w3.org/2000/svg" d="m408 344h-8v-72c0-4.417969-3.582031-8-8-8h-24c-4.417969 0-8 3.582031-8 8v72h-24v-72c0-4.417969-3.582031-8-8-8h-24c-4.417969 0-8 3.582031-8 8v72h-32v-72c0-4.417969-3.582031-8-8-8h-24c-4.417969 0-8 3.582031-8 8v72h-24v-72c0-4.417969-3.582031-8-8-8h-24c-4.417969 0-8 3.582031-8 8v72h-24v-72c0-4.417969-3.582031-8-8-8h-24c-4.417969 0-8 3.582031-8 8v72h-8c-4.417969 0-8 3.582031-8 8s3.582031 8 8 8h320c4.417969 0 8-3.582031 8-8s-3.582031-8-8-8zm-296 0v-64h8v64zm64 0v-64h8v64zm64 0v-64h8v64zm72 0v-64h8v64zm64 0v-64h8v64zm0 0" fill="url(#d)" data-original="url(#d)" style=""/>
    <path xmlns="http://www.w3.org/2000/svg" d="m408 240h-8v-72c0-4.417969-3.582031-8-8-8h-24c-4.417969 0-8 3.582031-8 8v72h-24v-72c0-4.417969-3.582031-8-8-8h-24c-4.417969 0-8 3.582031-8 8v72h-32v-72c0-4.417969-3.582031-8-8-8h-24c-4.417969 0-8 3.582031-8 8v72h-24v-72c0-4.417969-3.582031-8-8-8h-24c-4.417969 0-8 3.582031-8 8v72h-24v-72c0-4.417969-3.582031-8-8-8h-24c-4.417969 0-8 3.582031-8 8v72h-8c-4.417969 0-8 3.582031-8 8s3.582031 8 8 8h320c4.417969 0 8-3.582031 8-8s-3.582031-8-8-8zm-296 0v-64h8v64zm64 0v-64h8v64zm64 0v-64h8v64zm72 0v-64h8v64zm64 0v-64h8v64zm0 0" fill="url(#e)" data-original="url(#e)" style="" class=""/>
    <path xmlns="http://www.w3.org/2000/svg" d="m304 104h56c4.417969 0 8-3.582031 8-8v-56c0-4.417969-3.582031-8-8-8h-56c-4.417969 0-8 3.582031-8 8v56c0 4.417969 3.582031 8 8 8zm8-56h40v16h-16c-4.417969 0-8 3.582031-8 8s3.582031 8 8 8h16v8h-40zm0 0" fill="url(#f)" data-original="url(#f)" style=""/>
    <path xmlns="http://www.w3.org/2000/svg" d="m392 104h56c4.417969 0 8-3.582031 8-8v-56c0-4.417969-3.582031-8-8-8h-56c-4.417969 0-8 3.582031-8 8v56c0 4.417969 3.582031 8 8 8zm8-56h40v16h-16c-4.417969 0-8 3.582031-8 8s3.582031 8 8 8h16v8h-40zm0 0" fill="url(#g)" data-original="url(#g)" style=""/>
    <path xmlns="http://www.w3.org/2000/svg" d="m144 96h136c4.417969 0 8-3.582031 8-8s-3.582031-8-8-8h-136c-4.417969 0-8 3.582031-8 8s3.582031 8 8 8zm0 0" fill="url(#h)" data-original="url(#h)" style="" class=""/>
    <path xmlns="http://www.w3.org/2000/svg" d="m176 64h104c4.417969 0 8-3.582031 8-8s-3.582031-8-8-8h-104c-4.417969 0-8 3.582031-8 8s3.582031 8 8 8zm0 0" fill="url(#i)" data-original="url(#i)" style=""/>
    <path xmlns="http://www.w3.org/2000/svg" d="m144 64h8c4.417969 0 8-3.582031 8-8s-3.582031-8-8-8h-8c-4.417969 0-8 3.582031-8 8s3.582031 8 8 8zm0 0" fill="url(#j)" data-original="url(#j)" style="" class=""/>
    <path xmlns="http://www.w3.org/2000/svg" d="m426.320312 242.320312c-1.476562 1.523438-2.308593 3.558594-2.320312 5.679688.023438 3.816406 2.734375 7.085938 6.480469 7.808594 3.746093.722656 7.484375-1.296875 8.925781-4.828125 1.441406-3.535157.191406-7.59375-2.992188-9.699219-3.179687-2.105469-7.40625-1.671875-10.09375 1.039062zm0 0" fill="url(#k)" data-original="url(#k)" style=""/>
    <path xmlns="http://www.w3.org/2000/svg" d="m426.320312 346.320312c-1.464843 1.53125-2.292968 3.5625-2.320312 5.679688-.027344 1.050781.191406 2.089844.640625 3.039062.40625.96875.972656 1.863282 1.679687 2.640626 3.15625 3.09375 8.203126 3.09375 11.359376 0 .707031-.777344 1.273437-1.671876 1.679687-2.640626.445313-.949218.664063-1.988281.640625-3.039062.019531-3.25-1.929688-6.1875-4.933594-7.433594-3-1.246094-6.457031-.554687-8.746094 1.753906zm0 0" fill="url(#l)" data-original="url(#l)" style=""/>
    <path xmlns="http://www.w3.org/2000/svg" d="m69.679688 242.320312c-3.207032-2.960937-8.152344-2.960937-11.359376 0-.722656.765626-1.292968 1.660157-1.679687 2.640626-.449219.949218-.667969 1.988281-.640625 3.039062.027344 2.117188.855469 4.148438 2.320312 5.679688 1.523438 1.476562 3.558594 2.308593 5.679688 2.320312 2.128906.023438 4.175781-.8125 5.679688-2.320312 1.507812-1.503907 2.34375-3.550782 2.320312-5.679688-.011719-1.046875-.230469-2.078125-.640625-3.039062-.386719-.980469-.957031-1.875-1.679687-2.640626zm0 0" fill="url(#m)" data-original="url(#m)" style=""/>
    <path xmlns="http://www.w3.org/2000/svg" d="m58.320312 346.320312c-1.464843 1.53125-2.292968 3.5625-2.320312 5.679688-.027344 1.050781.191406 2.089844.640625 3.039062 1.152344 3.046876 4.101563 5.035157 7.359375 4.960938 2.117188-.03125 4.144531-.859375 5.679688-2.320312.722656-.765626 1.292968-1.660157 1.679687-2.640626.410156-.960937.628906-1.992187.640625-3.039062.019531-3.25-1.929688-6.1875-4.933594-7.433594-3-1.246094-6.457031-.554687-8.746094 1.753906zm0 0" fill="url(#n)" data-original="url(#n)" style=""/>
  </g>
</svg>
