<svg class="logo__svg" viewBox="0 0 141 56" fill="none" xmlns="http://www.w3.org/2000/svg"><path fill-rule="evenodd" clip-rule="evenodd" d="M124.553 5H137.93H138.702V5.87957V34.1204V35H137.93H128.428H127.647L127.659 34.1069L127.911 16.6779L120.559 34.4926L120.348 35H119.861H112.921H112.431L112.224 34.4858L104.984 16.5257L105.189 34.1103L105.198 35H104.42H94.7897H94.0176V34.1204V5.87957V5.00338H94.7897H108.295H108.773L108.987 5.48714L116.482 22.6015L123.861 5.49391L124.075 5H124.553Z" fill="#446BA6"/><path fill-rule="evenodd" clip-rule="evenodd" d="M77.7063 5H89.5248H91.4699L90.0504 6.51894L78.1488 19.2591L91.6718 33.4743L93.1209 35H91.1492H79.3336H79.0159L78.7902 34.7429L70.5261 25.3518L62.5679 34.7294L62.3393 35H62.0126H50.4465H48.4718L49.9239 33.4743L63.628 19.0934L51.5541 6.52571L50.0902 5H52.0708H63.8893H64.216L64.4446 5.27064L70.5677 12.5304L77.1718 5.25034L77.3975 5H77.7063Z" fill="#446BA6"/><path fill-rule="evenodd" clip-rule="evenodd" d="M33.5322 5H46.9126H47.6847V5.87957V34.1204V35H46.9126H37.4103H36.6293L36.6412 34.1069L36.8936 16.6779L29.5412 34.4926L29.3304 35H28.8434H21.9037H21.4108L21.2029 34.4858L13.9663 16.5257L14.1682 34.1103L14.1801 35H13.3991H3.77206H3V34.1204V5.87957V5H3.77206H17.2773H17.7524L17.9662 5.48714L25.4641 22.6015L32.8433 5.49391L33.0571 5H33.5322Z" fill="#446BA6"/><path d="M15.3292 43.8125H14.1261L12.214 49.2266L10.1729 43.8125H9.14169L7.07919 49.2266L5.18857 43.8125H3.98544L6.39169 50H7.76669L9.65732 44.9297L11.5479 50H12.9229L15.3292 43.8125ZM26.9716 43.8125H25.7685L23.8564 49.2266L21.8154 43.8125H20.7841L18.7216 49.2266L16.831 43.8125H15.6279L18.0341 50H19.4091L21.2998 44.9297L23.1904 50H24.5654L26.9716 43.8125ZM38.6141 43.8125H37.411L35.4988 49.2266L33.4578 43.8125H32.4266L30.3641 49.2266L28.4735 43.8125H27.2703L29.6766 50H31.0516L32.9422 44.9297L34.8328 50H36.2078L38.6141 43.8125ZM40.2878 50H39.2565V48.9688H40.2878V50ZM47.8052 50H46.774V46.5088C46.774 46.1364 46.7489 45.8231 46.6988 45.5688C46.6522 45.311 46.5538 45.1034 46.4034 44.9458C46.2566 44.7882 46.0471 44.6755 45.7749 44.6074C45.5064 44.5358 45.1519 44.5 44.7115 44.5C44.2281 44.5 43.8306 44.5412 43.5191 44.6235C43.2076 44.7023 42.9623 44.8151 42.7832 44.9619C42.6042 45.1051 42.4789 45.2788 42.4073 45.4829C42.3392 45.687 42.3052 45.9144 42.3052 46.165V50H41.274V43.8125H42.3052V44.79C42.3088 44.7793 42.3249 44.7435 42.3536 44.6826C42.3822 44.6217 42.4323 44.5501 42.504 44.4678C42.5791 44.3818 42.6794 44.2905 42.8047 44.1938C42.9336 44.0972 43.0984 44.0076 43.2989 43.9253C43.503 43.8429 43.7483 43.7749 44.0347 43.7212C44.3212 43.6675 44.6613 43.6406 45.0552 43.6406C45.4419 43.6406 45.7767 43.6657 46.0596 43.7158C46.3461 43.7624 46.5896 43.834 46.7901 43.9307C46.9942 44.0238 47.1589 44.1419 47.2842 44.2852C47.4131 44.4248 47.5152 44.5859 47.5904 44.7686C47.6513 44.6719 47.7461 44.5591 47.875 44.4302C48.004 44.3013 48.183 44.1777 48.4122 44.0596C48.6449 43.9414 48.9349 43.8429 49.2823 43.7642C49.6296 43.6818 50.0539 43.6406 50.5552 43.6406C50.967 43.6406 51.3197 43.6693 51.6133 43.7266C51.9105 43.7803 52.1612 43.8626 52.3653 43.9736C52.5694 44.0811 52.7323 44.2153 52.854 44.3765C52.9794 44.5376 53.0743 44.7256 53.1387 44.9404C53.2068 45.1517 53.2515 45.3898 53.273 45.6548C53.2945 45.9162 53.3052 46.2008 53.3052 46.5088V50H52.274V46.5088C52.274 46.1364 52.2489 45.8231 52.1988 45.5688C52.1522 45.311 52.0538 45.1034 51.9034 44.9458C51.7566 44.7882 51.5471 44.6755 51.2749 44.6074C51.0064 44.5358 50.6519 44.5 50.2115 44.5C49.7281 44.5 49.3306 44.5412 49.0191 44.6235C48.7076 44.7023 48.4623 44.8151 48.2832 44.9619C48.1042 45.1051 47.9789 45.2788 47.9073 45.4829C47.8392 45.687 47.8052 45.9144 47.8052 46.165V50ZM60.4521 49.1514C60.4413 49.1943 60.3608 49.3018 60.2104 49.4736C60.1029 49.6025 59.9597 49.7171 59.7807 49.8174C59.6016 49.9141 59.3617 49.9893 59.0609 50.043C58.7637 50.1003 58.3717 50.1289 57.8847 50.1289C57.2366 50.1289 56.6833 50.0949 56.225 50.0269C55.7667 49.9624 55.3925 49.8621 55.1025 49.7261C54.8124 49.5864 54.5994 49.4092 54.4633 49.1943C54.3308 48.9795 54.2646 48.7235 54.2646 48.4263C54.2646 48.1147 54.3004 47.8516 54.372 47.6367C54.4472 47.4183 54.5546 47.2357 54.6942 47.0889C54.8375 46.9421 55.0094 46.8275 55.2099 46.7451C55.4104 46.6628 55.6378 46.6001 55.892 46.5571C56.1498 46.5142 56.4309 46.4873 56.7353 46.4766C57.0396 46.4658 57.3637 46.4604 57.7074 46.4604C58.198 46.4604 58.608 46.4819 58.9374 46.5249C59.2668 46.5643 59.5354 46.6162 59.7431 46.6807C59.9543 46.7415 60.1137 46.8078 60.2211 46.8794C60.3285 46.951 60.4055 47.0173 60.4521 47.0781C60.4521 46.6771 60.4342 46.3351 60.3983 46.0522C60.3661 45.7694 60.3106 45.533 60.2318 45.3433C60.1567 45.1535 60.0582 45.0031 59.9364 44.8921C59.8147 44.7775 59.6643 44.6916 59.4853 44.6343C59.3098 44.577 59.1039 44.5412 58.8676 44.5269C58.6313 44.509 58.3609 44.5 58.0566 44.5C57.5839 44.5 57.1918 44.5125 56.8803 44.5376C56.5688 44.5591 56.3217 44.6038 56.1391 44.6719C55.9565 44.7399 55.8275 44.8348 55.7524 44.9565C55.6772 45.0747 55.6396 45.2305 55.6396 45.4238H54.6083C54.6083 45.098 54.6656 44.8223 54.7802 44.5967C54.8983 44.3711 55.0917 44.1885 55.3603 44.0488C55.6324 43.9056 55.9887 43.8018 56.4291 43.7373C56.8695 43.6729 57.412 43.6406 58.0566 43.6406C58.6868 43.6406 59.2203 43.6925 59.6571 43.7964C60.094 43.9002 60.4467 44.0828 60.7152 44.3442C60.9874 44.6056 61.1825 44.9583 61.3007 45.4023C61.4224 45.8428 61.4833 46.4014 61.4833 47.0781V50H60.4521V49.1514ZM58.0566 49.3125C58.5113 49.3125 58.8909 49.291 59.1952 49.248C59.5032 49.2051 59.7502 49.1406 59.9364 49.0547C60.1226 48.9688 60.2551 48.8613 60.3339 48.7324C60.4127 48.6035 60.4521 48.4531 60.4521 48.2812C60.4521 48.1094 60.4055 47.9644 60.3124 47.8462C60.2229 47.7244 60.0707 47.626 59.8559 47.5508C59.6446 47.4756 59.3635 47.4219 59.0126 47.3896C58.6617 47.3538 58.2284 47.3359 57.7128 47.3359C57.1972 47.3359 56.78 47.3449 56.4613 47.3628C56.1462 47.3807 55.9027 47.4219 55.7309 47.4863C55.559 47.5508 55.4426 47.6457 55.3817 47.771C55.3245 47.8963 55.2958 48.0664 55.2958 48.2812C55.2958 48.4961 55.3262 48.6715 55.3871 48.8076C55.4516 48.9401 55.5805 49.0439 55.7738 49.1191C55.9672 49.1943 56.2447 49.2463 56.6064 49.2749C56.9716 49.3 57.455 49.3125 58.0566 49.3125ZM67.803 45.8267C67.803 45.5688 67.7833 45.3558 67.7439 45.1875C67.7081 45.0156 67.6204 44.8796 67.4807 44.7793C67.3411 44.6755 67.1334 44.6038 66.8577 44.5645C66.5856 44.5215 66.2132 44.5 65.7405 44.5C65.2786 44.5 64.9026 44.5412 64.6126 44.6235C64.3225 44.7023 64.0952 44.8151 63.9304 44.9619C63.7657 45.1087 63.6529 45.2842 63.5921 45.4883C63.5348 45.6924 63.5061 45.9198 63.5061 46.1704V50H62.4749V43.8125H63.5061V44.7954C63.5419 44.6844 63.6082 44.5627 63.7049 44.4302C63.8015 44.2941 63.9483 44.1688 64.1453 44.0542C64.3422 43.936 64.5965 43.8376 64.908 43.7588C65.2231 43.68 65.6152 43.6406 66.0843 43.6406C66.6214 43.6406 67.0582 43.689 67.3948 43.7856C67.7314 43.8787 67.9928 44.0184 68.179 44.2046C68.3688 44.3872 68.4959 44.6146 68.5603 44.8867C68.6284 45.1589 68.6624 45.4722 68.6624 45.8267H67.803ZM69.3048 43.8125H70.3361V50H69.3048V43.8125ZM70.3361 42.7812H69.3048V41.75H70.3361V42.7812ZM77.8535 50V46.5088C77.8535 46.1364 77.8249 45.8231 77.7676 45.5688C77.7103 45.311 77.5957 45.1034 77.4238 44.9458C77.252 44.7882 77.0085 44.6755 76.6934 44.6074C76.3783 44.5358 75.9629 44.5 75.4473 44.5C74.8887 44.5 74.4303 44.5412 74.0723 44.6235C73.7178 44.7023 73.4385 44.8151 73.2344 44.9619C73.0303 45.1051 72.8888 45.2788 72.8101 45.4829C72.7349 45.687 72.6973 45.9144 72.6973 46.165V50H71.666V41.75H72.6973V44.79C72.7689 44.6217 72.8709 44.4767 73.0034 44.355C73.1359 44.2332 73.2881 44.1294 73.46 44.0435C73.6354 43.9575 73.8234 43.8895 74.0239 43.8394C74.2244 43.7856 74.4268 43.7445 74.6309 43.7158C74.8385 43.6872 75.0409 43.6675 75.2378 43.6567C75.4383 43.646 75.6227 43.6406 75.791 43.6406C76.2493 43.6406 76.6432 43.6693 76.9727 43.7266C77.3057 43.7803 77.5868 43.8626 77.8159 43.9736C78.0487 44.0811 78.2349 44.2153 78.3745 44.3765C78.5142 44.5376 78.6216 44.7256 78.6968 44.9404C78.7756 45.1517 78.8275 45.3898 78.8525 45.6548C78.8776 45.9162 78.8901 46.2008 78.8901 46.5088L78.8848 50H77.8535ZM79.7098 46.8633C79.7098 46.2295 79.7779 45.7049 79.9139 45.2896C80.05 44.8742 80.2684 44.5448 80.5692 44.3013C80.87 44.0578 81.2603 43.8877 81.7401 43.791C82.2199 43.6908 82.8036 43.6406 83.4911 43.6406C84.1786 43.6406 84.7622 43.6908 85.2421 43.791C85.7219 43.8877 86.1122 44.0578 86.4129 44.3013C86.7137 44.5448 86.9322 44.8742 87.0682 45.2896C87.2043 45.7049 87.2723 46.2295 87.2723 46.8633C87.2723 47.4971 87.2043 48.0234 87.0682 48.4424C86.9322 48.8613 86.7137 49.1943 86.4129 49.4414C86.1122 49.6885 85.7219 49.8639 85.2421 49.9678C84.7622 50.068 84.1786 50.1182 83.4911 50.1182C82.8036 50.1182 82.2199 50.068 81.7401 49.9678C81.2603 49.8639 80.87 49.6885 80.5692 49.4414C80.2684 49.1943 80.05 48.8613 79.9139 48.4424C79.7779 48.0234 79.7098 47.4971 79.7098 46.8633ZM80.7411 46.8633C80.7411 47.207 80.7536 47.506 80.7787 47.7603C80.8037 48.0145 80.8503 48.2329 80.9183 48.4155C80.9899 48.5981 81.0884 48.7467 81.2137 48.8613C81.3391 48.9759 81.5038 49.0672 81.7079 49.1353C81.912 49.2033 82.159 49.2498 82.4491 49.2749C82.7427 49.3 83.09 49.3125 83.4911 49.3125C83.8348 49.3125 84.141 49.3053 84.4095 49.291C84.6817 49.2731 84.918 49.2355 85.1185 49.1782C85.3226 49.1209 85.4963 49.0404 85.6395 48.9365C85.7827 48.8291 85.8973 48.6841 85.9833 48.5015C86.0728 48.3188 86.1372 48.0951 86.1766 47.8301C86.2196 47.5615 86.2411 47.2393 86.2411 46.8633C86.2411 46.4945 86.2196 46.1812 86.1766 45.9233C86.1372 45.6619 86.0728 45.4435 85.9833 45.2681C85.8973 45.0926 85.7827 44.9548 85.6395 44.8545C85.4963 44.7507 85.3226 44.6737 85.1185 44.6235C84.918 44.5698 84.6817 44.5358 84.4095 44.5215C84.141 44.5072 83.8348 44.5 83.4911 44.5C83.1473 44.5 82.8394 44.5072 82.5672 44.5215C82.2987 44.5358 82.0624 44.5698 81.8583 44.6235C81.6577 44.6737 81.4859 44.7507 81.3426 44.8545C81.1994 44.9548 81.083 45.0926 80.9935 45.2681C80.9076 45.4435 80.8431 45.6619 80.8002 45.9233C80.7608 46.1812 80.7411 46.4945 80.7411 46.8633ZM88.4304 41.75H89.4616V50H88.4304V41.75ZM90.6197 46.8633C90.6197 46.2295 90.6877 45.7049 90.8238 45.2896C90.9599 44.8742 91.1783 44.5448 91.4791 44.3013C91.7799 44.0578 92.1702 43.8877 92.65 43.791C93.1298 43.6908 93.7135 43.6406 94.401 43.6406C95.0885 43.6406 95.6721 43.6908 96.1519 43.791C96.6318 43.8877 97.0221 44.0578 97.3228 44.3013C97.6236 44.5448 97.842 44.8742 97.9781 45.2896C98.1142 45.7049 98.1822 46.2295 98.1822 46.8633C98.1822 47.4971 98.1142 48.0234 97.9781 48.4424C97.842 48.8613 97.6236 49.1943 97.3228 49.4414C97.0221 49.6885 96.6318 49.8639 96.1519 49.9678C95.6721 50.068 95.0885 50.1182 94.401 50.1182C93.7135 50.1182 93.1298 50.068 92.65 49.9678C92.1702 49.8639 91.7799 49.6885 91.4791 49.4414C91.1783 49.1943 90.9599 48.8613 90.8238 48.4424C90.6877 48.0234 90.6197 47.4971 90.6197 46.8633ZM91.651 46.8633C91.651 47.207 91.6635 47.506 91.6886 47.7603C91.7136 48.0145 91.7602 48.2329 91.8282 48.4155C91.8998 48.5981 91.9983 48.7467 92.1236 48.8613C92.2489 48.9759 92.4137 49.0672 92.6178 49.1353C92.8219 49.2033 93.0689 49.2498 93.359 49.2749C93.6526 49.3 93.9999 49.3125 94.401 49.3125C94.7447 49.3125 95.0509 49.3053 95.3194 49.291C95.5916 49.2731 95.8279 49.2355 96.0284 49.1782C96.2325 49.1209 96.4062 49.0404 96.5494 48.9365C96.6926 48.8291 96.8072 48.6841 96.8932 48.5015C96.9827 48.3188 97.0471 48.0951 97.0865 47.8301C97.1295 47.5615 97.151 47.2393 97.151 46.8633C97.151 46.4945 97.1295 46.1812 97.0865 45.9233C97.0471 45.6619 96.9827 45.4435 96.8932 45.2681C96.8072 45.0926 96.6926 44.9548 96.5494 44.8545C96.4062 44.7507 96.2325 44.6737 96.0284 44.6235C95.8279 44.5698 95.5916 44.5358 95.3194 44.5215C95.0509 44.5072 94.7447 44.5 94.401 44.5C94.0572 44.5 93.7493 44.5072 93.4771 44.5215C93.2086 44.5358 92.9723 44.5698 92.7682 44.6235C92.5676 44.6737 92.3958 44.7507 92.2525 44.8545C92.1093 44.9548 91.9929 45.0926 91.9034 45.2681C91.8175 45.4435 91.753 45.6619 91.71 45.9233C91.6707 46.1812 91.651 46.4945 91.651 46.8633ZM102.606 50.1182C101.918 50.1182 101.335 50.068 100.855 49.9678C100.375 49.8675 99.9848 49.6956 99.684 49.4521C99.3833 49.2087 99.1648 48.881 99.0288 48.4692C98.8927 48.0575 98.8247 47.54 98.8247 46.917C98.8247 46.2725 98.8927 45.7389 99.0288 45.3164C99.1648 44.8939 99.3833 44.5591 99.684 44.312C99.9848 44.0649 100.375 43.8913 100.855 43.791C101.335 43.6908 101.918 43.6406 102.606 43.6406C103.093 43.6406 103.501 43.6657 103.831 43.7158C104.16 43.766 104.429 43.8286 104.636 43.9038C104.847 43.979 105.007 44.0614 105.114 44.1509C105.225 44.2368 105.306 44.3174 105.356 44.3926V41.75H106.387V50H105.356V49.0815C105.356 49.0815 105.27 49.1836 105.098 49.3877C104.948 49.5345 104.781 49.6527 104.599 49.7422C104.416 49.8317 104.16 49.9176 103.831 50C103.501 50.0788 103.093 50.1182 102.606 50.1182ZM102.606 49.3125C102.95 49.3125 103.256 49.3053 103.524 49.291C103.793 49.2731 104.029 49.2373 104.233 49.1836C104.437 49.1299 104.609 49.0511 104.749 48.9473C104.892 48.8398 105.009 48.6984 105.098 48.5229C105.188 48.3475 105.252 48.1309 105.291 47.873C105.334 47.6117 105.356 47.2983 105.356 46.9331C105.356 46.5535 105.334 46.2313 105.291 45.9663C105.252 45.6978 105.188 45.474 105.098 45.2949C105.009 45.1123 104.892 44.9691 104.749 44.8652C104.609 44.7614 104.437 44.6826 104.233 44.6289C104.029 44.5716 103.793 44.5358 103.524 44.5215C103.256 44.5072 102.95 44.5 102.606 44.5C102.205 44.5 101.858 44.5125 101.564 44.5376C101.274 44.5627 101.027 44.6074 100.823 44.6719C100.619 44.7363 100.452 44.8258 100.323 44.9404C100.198 45.055 100.099 45.2018 100.028 45.3809C99.9598 45.5599 99.9132 45.7765 99.8881 46.0308C99.8667 46.2814 99.8559 46.5768 99.8559 46.917C99.8559 47.2536 99.8667 47.5472 99.8881 47.7979C99.9132 48.0449 99.9598 48.258 100.028 48.437C100.099 48.6125 100.198 48.7575 100.323 48.8721C100.452 48.9867 100.619 49.0762 100.823 49.1406C101.027 49.2051 101.274 49.2498 101.564 49.2749C101.858 49.3 102.205 49.3125 102.606 49.3125ZM108.405 50H107.373V48.9688H108.405V50ZM109.219 46.917C109.219 46.4873 109.24 46.1077 109.283 45.7783C109.326 45.4489 109.402 45.1624 109.509 44.9189C109.62 44.6755 109.767 44.4731 109.949 44.312C110.136 44.1473 110.368 44.0148 110.648 43.9146C110.931 43.8143 111.265 43.7427 111.652 43.6997C112.039 43.6567 112.49 43.6353 113.006 43.6353C113.693 43.6353 114.259 43.6782 114.703 43.7642C115.147 43.8465 115.498 43.9754 115.756 44.1509C116.013 44.3228 116.192 44.543 116.293 44.8115C116.393 45.0765 116.443 45.3934 116.443 45.7622H115.412C115.412 45.6297 115.408 45.5062 115.401 45.3916C115.394 45.277 115.367 45.1732 115.32 45.0801C115.278 44.987 115.208 44.9046 115.111 44.833C115.014 44.7578 114.876 44.6951 114.697 44.645C114.518 44.5949 114.291 44.5573 114.015 44.5322C113.743 44.5072 113.407 44.4946 113.006 44.4946C112.547 44.4946 112.16 44.5107 111.845 44.543C111.534 44.5752 111.276 44.6289 111.072 44.7041C110.868 44.7757 110.71 44.8742 110.599 44.9995C110.488 45.1213 110.408 45.2716 110.358 45.4507C110.307 45.6297 110.277 45.841 110.266 46.0845C110.259 46.3244 110.256 46.6019 110.256 46.917C110.256 47.2249 110.259 47.4989 110.266 47.7388C110.277 47.9751 110.307 48.1828 110.358 48.3618C110.408 48.5373 110.488 48.6859 110.599 48.8076C110.71 48.9294 110.868 49.0278 111.072 49.103C111.276 49.1782 111.534 49.2319 111.845 49.2642C112.16 49.2964 112.547 49.3125 113.006 49.3125C113.407 49.3125 113.743 49.2982 114.015 49.2695C114.291 49.2409 114.518 49.1997 114.697 49.146C114.876 49.0923 115.014 49.026 115.111 48.9473C115.208 48.8685 115.278 48.779 115.32 48.6787C115.367 48.5749 115.394 48.4621 115.401 48.3403C115.408 48.215 115.412 48.0807 115.412 47.9375H116.443C116.443 48.3135 116.393 48.6393 116.293 48.915C116.192 49.1908 116.013 49.4181 115.756 49.5972C115.498 49.7726 115.147 49.9033 114.703 49.9893C114.259 50.0752 113.693 50.1182 113.006 50.1182C112.49 50.1182 112.039 50.0967 111.652 50.0537C111.265 50.0107 110.931 49.9409 110.648 49.8442C110.368 49.744 110.136 49.6133 109.949 49.4521C109.767 49.291 109.62 49.0923 109.509 48.856C109.402 48.6196 109.326 48.3421 109.283 48.0234C109.24 47.7012 109.219 47.3324 109.219 46.917ZM117.263 46.8633C117.263 46.2295 117.331 45.7049 117.467 45.2896C117.603 44.8742 117.821 44.5448 118.122 44.3013C118.423 44.0578 118.813 43.8877 119.293 43.791C119.773 43.6908 120.356 43.6406 121.044 43.6406C121.731 43.6406 122.315 43.6908 122.795 43.791C123.275 43.8877 123.665 44.0578 123.966 44.3013C124.267 44.5448 124.485 44.8742 124.621 45.2896C124.757 45.7049 124.825 46.2295 124.825 46.8633C124.825 47.4971 124.757 48.0234 124.621 48.4424C124.485 48.8613 124.267 49.1943 123.966 49.4414C123.665 49.6885 123.275 49.8639 122.795 49.9678C122.315 50.068 121.731 50.1182 121.044 50.1182C120.356 50.1182 119.773 50.068 119.293 49.9678C118.813 49.8639 118.423 49.6885 118.122 49.4414C117.821 49.1943 117.603 48.8613 117.467 48.4424C117.331 48.0234 117.263 47.4971 117.263 46.8633ZM118.294 46.8633C118.294 47.207 118.307 47.506 118.332 47.7603C118.357 48.0145 118.403 48.2329 118.471 48.4155C118.543 48.5981 118.641 48.7467 118.767 48.8613C118.892 48.9759 119.057 49.0672 119.261 49.1353C119.465 49.2033 119.712 49.2498 120.002 49.2749C120.296 49.3 120.643 49.3125 121.044 49.3125C121.388 49.3125 121.694 49.3053 121.962 49.291C122.235 49.2731 122.471 49.2355 122.671 49.1782C122.876 49.1209 123.049 49.0404 123.192 48.9365C123.336 48.8291 123.45 48.6841 123.536 48.5015C123.626 48.3188 123.69 48.0951 123.73 47.8301C123.772 47.5615 123.794 47.2393 123.794 46.8633C123.794 46.4945 123.772 46.1812 123.73 45.9233C123.69 45.6619 123.626 45.4435 123.536 45.2681C123.45 45.0926 123.336 44.9548 123.192 44.8545C123.049 44.7507 122.876 44.6737 122.671 44.6235C122.471 44.5698 122.235 44.5358 121.962 44.5215C121.694 44.5072 121.388 44.5 121.044 44.5C120.7 44.5 120.392 44.5072 120.12 44.5215C119.852 44.5358 119.615 44.5698 119.411 44.6235C119.211 44.6737 119.039 44.7507 118.896 44.8545C118.752 44.9548 118.636 45.0926 118.546 45.2681C118.46 45.4435 118.396 45.6619 118.353 45.9233C118.314 46.1812 118.294 46.4945 118.294 46.8633ZM132.171 50H131.14V46.5088C131.14 46.1364 131.114 45.8231 131.064 45.5688C131.018 45.311 130.919 45.1034 130.769 44.9458C130.622 44.7882 130.413 44.6755 130.141 44.6074C129.872 44.5358 129.517 44.5 129.077 44.5C128.594 44.5 128.196 44.5412 127.885 44.6235C127.573 44.7023 127.328 44.8151 127.149 44.9619C126.97 45.1051 126.844 45.2788 126.773 45.4829C126.705 45.687 126.671 45.9144 126.671 46.165V50H125.64V43.8125H126.671V44.79C126.674 44.7793 126.69 44.7435 126.719 44.6826C126.748 44.6217 126.798 44.5501 126.87 44.4678C126.945 44.3818 127.045 44.2905 127.17 44.1938C127.299 44.0972 127.464 44.0076 127.664 43.9253C127.869 43.8429 128.114 43.7749 128.4 43.7212C128.687 43.6675 129.027 43.6406 129.421 43.6406C129.808 43.6406 130.142 43.6657 130.425 43.7158C130.712 43.7624 130.955 43.834 131.156 43.9307C131.36 44.0238 131.524 44.1419 131.65 44.2852C131.779 44.4248 131.881 44.5859 131.956 44.7686C132.017 44.6719 132.112 44.5591 132.241 44.4302C132.37 44.3013 132.549 44.1777 132.778 44.0596C133.01 43.9414 133.301 43.8429 133.648 43.7642C133.995 43.6818 134.419 43.6406 134.921 43.6406C135.333 43.6406 135.685 43.6693 135.979 43.7266C136.276 43.7803 136.527 43.8626 136.731 43.9736C136.935 44.0811 137.098 44.2153 137.22 44.3765C137.345 44.5376 137.44 44.7256 137.504 44.9404C137.572 45.1517 137.617 45.3898 137.639 45.6548C137.66 45.9162 137.671 46.2008 137.671 46.5088V50H136.64V46.5088C136.64 46.1364 136.614 45.8231 136.564 45.5688C136.518 45.311 136.419 45.1034 136.269 44.9458C136.122 44.7882 135.913 44.6755 135.641 44.6074C135.372 44.5358 135.017 44.5 134.577 44.5C134.094 44.5 133.696 44.5412 133.385 44.6235C133.073 44.7023 132.828 44.8151 132.649 44.9619C132.47 45.1051 132.344 45.2788 132.273 45.4829C132.205 45.687 132.171 45.9144 132.171 46.165V50Z" fill="#EB5757"/></svg>