<svg xmlns:dc="http://purl.org/dc/elements/1.1/" xmlns:cc="http://creativecommons.org/ns#" xmlns:rdf="http://www.w3.org/1999/02/22-rdf-syntax-ns#" xmlns:svg="http://www.w3.org/2000/svg" xmlns="http://www.w3.org/2000/svg" xmlns:sodipodi="http://sodipodi.sourceforge.net/DTD/sodipodi-0.dtd" xmlns:inkscape="http://www.inkscape.org/namespaces/inkscape" version="1.1" id="svg2" xml:space="preserve" viewBox="0 0 342.82413 93.166664" sodipodi:docname="checked.svg" inkscape:version="0.92.5 (2060ec1f9f, 2020-04-08)"><metadata id="metadata8"><rdf:RDF><cc:Work rdf:about=""><dc:format>image/svg+xml</dc:format><dc:type rdf:resource="http://purl.org/dc/dcmitype/StillImage"/><dc:title/></cc:Work></rdf:RDF></metadata><defs id="defs6"/><sodipodi:namedview pagecolor="#ffffff" bordercolor="#666666" borderopacity="1" objecttolerance="10" gridtolerance="10" guidetolerance="10" inkscape:pageopacity="0" inkscape:pageshadow="2" inkscape:window-width="1920" inkscape:window-height="1016" id="namedview4" showgrid="false" inkscape:zoom="1.4293043" inkscape:cx="171.41206" inkscape:cy="46.583332" inkscape:window-x="0" inkscape:window-y="0" inkscape:window-maximized="1" inkscape:current-layer="g10"/><g id="g10" inkscape:groupmode="layer" inkscape:label="checked" transform="matrix(1.3333333,0,0,-1.3333333,1.3333333,91.833333)"><g id="g12"><path d="m 23.254,33.9375 c 0,10.9939 8.9124,19.9063 19.9063,19.9063 8.6661,0 16.3361,-5.6064 18.9669,-13.8634 0,0 0.1823,-0.6613 -0.4201,-0.6613 h -9.2917 c 0,0 -0.3268,-0.1219 -1.0533,0.8589 -0.7265,0.9805 -3.4628,3.9954 -8.1363,3.9954 -4.6738,0 -10.3158,-3.5691 -10.3158,-10.2359 0,-6.6665 5.642,-10.2356 10.3158,-10.2356 4.6735,0 7.4098,3.0146 8.1363,3.9954 0.7265,0.9808 1.0533,0.8586 1.0533,0.8586 h 9.2917 c 0.6024,0 0.4201,-0.661 0.4201,-0.661 -2.6308,-8.257 -10.3008,-13.8634 -18.9669,-13.8634 -10.9939,0 -19.9063,8.9121 -19.9063,19.906 z m 27.6843,1.4278 h 15.7252 c 0.4405,0 0.6035,0.2455 0.5822,0.4944 -1.002,12.5589 -11.4862,22.2398 -24.0854,22.2398 -13.3444,0 -24.1619,-10.8176 -24.1619,-24.162 0,-13.3441 10.8175,-24.1619 24.1619,-24.1619 12.5992,0 23.0834,9.6808 24.0854,22.24 C 67.267,32.2642 67.104,32.51 66.6635,32.51 H 50.9383 c -0.0958,0 -0.6786,0.0734 -0.9782,-0.4944 -0.5624,-1.0652 -2.3466,-3.4597 -6.12,-3.4597 -2.0815,0 -3.6219,0.5993 -4.6891,1.4741 -0.161,0.1269 -0.14,0.3685 0.1018,0.3685 h 3.1447 c 0.1508,0 0.2744,0.1235 0.2744,0.2744 v 0.659 c 0,0.1511 -0.1236,0.2747 -0.2744,0.2747 h -4.18 c -0.2936,0 -0.5476,0.3727 -0.699,0.6511 -0.1514,0.2786 -0.354,1.0757 0.0998,1.0757 h 4.7988 c 0.1511,0 0.2746,0.1236 0.2746,0.2747 v 0.3294 0.3297 c 0,0.1508 -0.1235,0.2744 -0.2746,0.2744 h -4.7988 c -0.4538,0 -0.2512,0.7974 -0.0998,1.0757 0.1514,0.2787 0.4054,0.6514 0.699,0.6514 h 4.18 c 0.1508,0 0.2744,0.1236 0.2744,0.2747 v 0.6588 c 0,0.1511 -0.1236,0.2747 -0.2744,0.2747 h -3.1447 c -0.2418,0 -0.2628,0.2415 -0.1018,0.3685 1.0672,0.8747 2.6076,1.4737 4.6891,1.4737 3.7734,0 5.5576,-2.3944 6.12,-3.4594 0.2996,-0.5678 0.8824,-0.4944 0.9782,-0.4944" style="fill:#ca1f0a;fill-opacity:1;fill-rule:evenodd;stroke:none" id="path14" inkscape:connector-curvature="0"/><g id="g16"><path d="m 92.5458,41.9244 h 4.3991 l -0.5865,-5.9298 h 4.5028 l 0.5865,5.9298 h 4.4189 l -1.6792,-16.1005 h -4.4189 l 0.68,6.213 h -4.5028 l -0.6803,-6.213 h -4.3991 z m 16.1226,0 h 11.9171 l -0.3588,-3.8784 h -7.4979 l -0.2676,-2.1254 h 6.0664 l -0.3424,-3.9262 h -6.0662 l -0.3308,-2.1175 h 7.7168 l -0.3799,-4.053 h -12.1359 z m 32.5091,0 h 4.3988 l -0.6343,-6.0826 5.2491,6.0826 h 5.4567 l -6.9324,-7.9583 5.3351,-8.1422 h -5.4176 l -3.1033,4.6919 -1.2833,-1.3456 -0.3492,-3.3463 h -4.3991 z m 30.6122,0 h 6.6422 c 4.9912,0 7.329,-3.6312 6.8743,-7.994 -0.5964,-5.7234 -4.4031,-8.1065 -10.173,-8.1065 h -5.0227 z m 3.9943,-3.9081 -0.892,-8.0992 h 1.0814 c 2.152,0 4.5581,1.025 4.9042,4.3475 0.3461,3.3225 -2.658,3.7517 -3.992,3.7517 z m 40.6296,3.9081 h 4.3991 l -1.0001,-9.5904 c -0.0989,-0.9482 -0.3263,-1.8477 -0.6755,-2.691 -1.1877,-2.8664 -3.4826,-4.0552 -6.5044,-4.089 -2.1719,-0.024 -5.8059,0.6795 -6.351,4.059 -0.165,1.023 -0.2069,1.9301 -0.1244,2.721 l 1.0003,9.5904 h 4.3991 l -0.9145,-9.6548 c -0.083,-0.8773 0.0528,-1.563 0.4295,-2.0537 0.3793,-0.4946 0.951,-0.7421 1.7141,-0.7421 0.7529,0 1.3725,0.2438 1.8544,0.7308 0.4779,0.4833 0.7744,1.1721 0.8589,2.065 z m 6.3102,0 H 236.12 l -0.4152,-3.9801 h -4.4986 l -1.264,-12.1204 h -4.3991 l 1.264,12.1204 h -4.4986 z" style="fill:#000003;fill-opacity:1;fill-rule:nonzero;stroke:none" id="path18" inkscape:connector-curvature="0"/><path d="m 196.5728,42.3607 c 4.6519,0 8.0135,-3.771 7.5078,-8.4229 -0.5054,-4.6519 -4.6862,-8.4232 -9.3382,-8.4232 -4.6519,0 -8.0132,3.7713 -7.5078,8.4232 0.5054,4.6519 4.6862,8.4229 9.3382,8.4229 z m -0.4686,-4.3124 c 2.2703,0 3.9107,-1.8402 3.6641,-4.1105 -0.2467,-2.2703 -2.287,-4.1108 -4.5573,-4.1108 -2.2703,0 -3.9107,1.8405 -3.6641,4.1108 0.2466,2.2703 2.287,4.1105 4.5573,4.1105" style="fill:#ca1f0a;fill-opacity:1;fill-rule:evenodd;stroke:none" id="path20" inkscape:connector-curvature="0"/><path d="m 133.6209,35.9555 4.5967,-3e-4 c -0.5196,3.7622 -3.6071,6.4055 -7.482,6.4055 -4.652,0 -8.8328,-3.771 -9.3382,-8.4229 -0.5057,-4.6519 2.8559,-8.4232 7.5078,-8.4232 3.8654,0 7.5203,2.6309 8.8651,6.3805 h -4.6046 c -0.8711,-1.2789 -2.3182,-2.0681 -3.7919,-2.0681 -2.2703,0 -3.9107,1.8405 -3.6641,4.1108 0.2466,2.2703 2.287,4.1105 4.5573,4.1105 1.4842,0 2.766,-0.7999 3.3539,-2.0928" style="fill:#000003;fill-opacity:1;fill-rule:evenodd;stroke:none" id="path22" inkscape:connector-curvature="0"/><path d="m 84.8117,35.9555 4.5964,-3e-4 c -0.5193,3.7622 -3.6071,6.4055 -7.4817,6.4055 -4.652,0 -8.8331,-3.771 -9.3385,-8.4229 -0.5054,-4.6519 2.8559,-8.4232 7.5078,-8.4232 3.8654,0 7.5206,2.6309 8.8651,6.3805 h -4.6043 c -0.8714,-1.2789 -2.3182,-2.0681 -3.7922,-2.0681 -2.2703,0 -3.9107,1.8405 -3.664,4.1108 0.2468,2.2703 2.2872,4.1105 4.5575,4.1105 1.4839,0 2.766,-0.7999 3.3539,-2.0928" style="fill:#000003;fill-opacity:1;fill-rule:evenodd;stroke:none" id="path24" inkscape:connector-curvature="0"/><path d="m 157.4592,41.9244 h 11.9171 l -0.3589,-3.8784 h -7.4979 l -0.2676,-2.1254 h 6.0665 l -0.3425,-3.9262 h -6.0661 l -0.3308,-2.1175 h 7.7167 l -0.3798,-4.053 h -12.136 z" style="fill:#000003;fill-opacity:1;fill-rule:nonzero;stroke:none" id="path26" inkscape:connector-curvature="0"/></g><g id="g28"><path d="m 73.7269,16.973 -0.6843,-3.651 c -0.0547,-0.2937 -0.097,-0.5411 -0.1276,-0.7404 -0.0102,-0.0675 0.0153,-0.1097 0.0754,-0.1265 l 0.4377,-0.1312 -0.0343,-0.1916 c -0.3983,0.0076 -0.7801,0.0116 -1.1438,0.0116 -0.3691,0 -0.7597,-0.004 -1.1707,-0.0116 l 0.0218,0.1916 0.5055,0.1378 c 0.0714,0.0204 0.1148,0.0586 0.1264,0.1162 0.0459,0.199 0.0958,0.4453 0.1505,0.739 l 0.5644,2.9744 c 0.047,0.2491 0.083,0.4572 0.1085,0.623 0.0128,0.0652 -0.009,0.1072 -0.064,0.1276 l -0.4901,0.1457 0.0346,0.1913 c 0.4365,-0.0076 0.8282,-0.0127 1.178,-0.0153 h 3.2721 c 0.3866,0 0.7914,0.0051 1.2152,0.0153 L 77.6806,17.1876 77.1188,17.0419 C 77.0587,17.0215 77.0219,16.9795 77.0066,16.9143 76.9694,16.7496 76.9275,16.543 76.8801,16.2938 L 76.3146,13.322 c -0.0524,-0.2937 -0.0958,-0.5426 -0.1301,-0.7441 -0.0076,-0.0576 0.0164,-0.0958 0.074,-0.1162 l 0.4824,-0.1378 -0.0331,-0.1916 c -0.4442,0.0076 -0.8439,0.0116 -1.2013,0.0116 -0.3714,0 -0.743,-0.004 -1.1143,-0.0116 l 0.0229,0.1916 0.4748,0.1312 c 0.0678,0.0168 0.1086,0.059 0.1239,0.1265 0.0445,0.1993 0.0944,0.4467 0.1494,0.7404 l 0.6726,3.651 z m 3.0625,-6.4644 0.4493,0.1276 c 0.0703,0.0215 0.11,0.0601 0.1202,0.1148 0.0215,0.0932 0.0471,0.2069 0.0765,0.3421 0.0281,0.1366 0.0613,0.2974 0.0984,0.4839 l 0.6919,3.3675 c 0.0204,0.0995 0.0306,0.1636 0.0306,0.1917 0,0.0663 -0.0294,0.1136 -0.0856,0.1417 -0.0601,0.0266 -0.2196,0.0408 -0.4787,0.0408 l 0.0218,0.1724 c 0.434,0.1148 0.7889,0.1723 1.0658,0.1723 0.1647,0 0.2923,-0.0281 0.383,-0.0856 0.0918,-0.0575 0.1366,-0.1505 0.1366,-0.2769 l -0.004,-0.046 h 0.008 c 0.536,0.2719 0.8946,0.4085 1.0771,0.4085 0.2988,0 0.5503,-0.1253 0.7535,-0.3767 0.203,-0.2503 0.305,-0.5528 0.305,-0.9077 0,-0.6879 -0.2183,-1.2484 -0.6562,-1.6812 -0.438,-0.4329 -1.0072,-0.6497 -1.7082,-0.6497 -0.1287,0 -0.2693,0.0102 -0.4223,0.0292 L 78.495,11.3026 c -0.0269,-0.1264 -0.0484,-0.2325 -0.0652,-0.3166 -0.0164,-0.0842 -0.028,-0.1534 -0.0357,-0.2056 -0.0102,-0.0739 0.0153,-0.1187 0.0754,-0.134 l 0.5426,-0.1378 -0.0383,-0.184 c -0.4904,0.0077 -0.8643,0.0117 -1.1208,0.0117 -0.3028,0 -0.6639,-0.004 -1.0851,-0.0117 z m 1.9341,1.9148 c 0.1071,-0.0204 0.2041,-0.0306 0.2922,-0.0306 0.4136,0 0.7393,0.18 0.978,0.54 0.2375,0.36 0.3574,0.7787 0.3574,1.256 0,0.2733 -0.0382,0.4952 -0.1122,0.6664 -0.0754,0.171 -0.1902,0.2566 -0.3447,0.2566 -0.1865,0 -0.4085,-0.0715 -0.6653,-0.2157 z m 5.4076,3.2477 c 0.5386,0 0.9689,-0.1406 1.2907,-0.4201 0.3214,-0.281 0.4824,-0.6574 0.4824,-1.1311 0,-0.5986 -0.1953,-1.0953 -0.5859,-1.4884 -0.3895,-0.3946 -0.8938,-0.5911 -1.5129,-0.5911 -0.5462,0 -0.9779,0.1404 -1.2957,0.4199 -0.3177,0.2809 -0.4762,0.6525 -0.4762,1.1131 0,0.6052 0.1916,1.1069 0.5757,1.5027 0.3844,0.3971 0.8912,0.595 1.5219,0.595 z m -0.0447,-0.383 c -0.277,0 -0.5069,-0.1698 -0.688,-0.5108 -0.1826,-0.3407 -0.2721,-0.7492 -0.2696,-1.2229 0.0026,-0.3549 0.0663,-0.6318 0.1902,-0.8311 0.1253,-0.2004 0.3028,-0.2999 0.5312,-0.2999 0.2846,0 0.5145,0.1749 0.688,0.5258 0.1749,0.3512 0.2631,0.7546 0.2631,1.2116 0,0.3549 -0.0638,0.6307 -0.1917,0.8297 -0.1275,0.1978 -0.301,0.2976 -0.5232,0.2976 z m 5.2032,-2.4012 0.1265,-0.1877 c -0.4289,-0.4394 -0.9153,-0.6588 -1.4579,-0.6588 -0.4198,0 -0.7659,0.1302 -1.0378,0.3907 -0.2732,0.2605 -0.4098,0.6139 -0.4098,1.0621 0,0.6151 0.2273,1.131 0.6805,1.5457 0.4544,0.4164 0.993,0.6245 1.62,0.6245 0.351,0 0.684,-0.0575 0.9981,-0.1712 -0.0918,-0.36 -0.1735,-0.7277 -0.2438,-1.1016 l -0.1862,-0.0294 -0.2886,0.9051 c -0.0663,0.0192 -0.1431,0.0294 -0.2273,0.0294 -0.3764,0 -0.6817,-0.1621 -0.9127,-0.4878 -0.2322,-0.3254 -0.3484,-0.7251 -0.3484,-1.1985 0,-0.3319 0.0725,-0.5899 0.2194,-0.7738 0.1457,-0.1826 0.3435,-0.2744 0.5924,-0.2744 0.2719,0 0.563,0.1085 0.8756,0.3257 z m 1.0469,-0.7688 0.5797,2.8264 c 0.0204,0.0995 0.0306,0.1661 0.0306,0.1979 0,0.0422 -0.0117,0.0754 -0.0357,0.0998 -0.0233,0.0229 -0.059,0.0408 -0.1061,0.0521 -0.0484,0.0117 -0.1074,0.0179 -0.1788,0.0204 -0.07,0.0026 -0.152,0.004 -0.2438,0.004 l 0.0218,0.1724 c 0.4442,0.1148 0.7838,0.1723 1.0211,0.1723 0.1723,0 0.3115,-0.032 0.4175,-0.0947 0.106,-0.0623 0.1585,-0.1556 0.1585,-0.2795 0,-0.0051 0,-0.0139 -0.0015,-0.0255 -0.0011,-0.0127 -0.0036,-0.0295 -0.0062,-0.0499 0.4861,0.3002 0.9306,0.4496 1.3314,0.4496 0.4111,0 0.6767,-0.1621 0.7966,-0.4864 0.536,0.3243 1.0173,0.4864 1.4437,0.4864 0.2721,0 0.4827,-0.0717 0.6346,-0.2157 0.1506,-0.1432 0.226,-0.3371 0.226,-0.5811 0,-0.1072 -0.0142,-0.222 -0.0409,-0.3444 l -0.3741,-1.7734 c -0.0051,-0.0204 -0.0088,-0.0394 -0.0117,-0.0587 -0.0025,-0.0178 -0.0036,-0.0357 -0.0036,-0.0535 0,-0.0525 0.0127,-0.0933 0.0371,-0.1239 0.0255,-0.0295 0.0624,-0.051 0.1108,-0.0652 0.0488,-0.0139 0.1086,-0.023 0.1814,-0.0266 0.0715,-0.004 0.1545,-0.0052 0.2464,-0.0052 L 96.556,12.2445 c -0.3742,-0.1162 -0.7161,-0.1734 -1.0276,-0.1734 -0.1953,0 -0.341,0.0357 -0.4391,0.1085 -0.0998,0.0715 -0.1482,0.1902 -0.1482,0.3549 0,0.0766 0.0102,0.1673 0.0295,0.2693 l 0.337,1.5613 c 0.0266,0.1287 0.0408,0.2373 0.0408,0.3255 0,0.1493 -0.0332,0.259 -0.1009,0.3305 -0.0678,0.0703 -0.1647,0.106 -0.2911,0.106 -0.1928,0 -0.4544,-0.0805 -0.7864,-0.2412 0,-0.1097 -0.0127,-0.2311 -0.0408,-0.3637 l -0.4864,-2.367 -1.0505,-0.0371 0.4595,2.247 c 0.028,0.1364 0.0422,0.2449 0.0422,0.324 0,0.1508 -0.032,0.2605 -0.0958,0.332 -0.0638,0.0703 -0.1596,0.106 -0.286,0.106 -0.1902,0 -0.4482,-0.0791 -0.775,-0.2373 l -0.5564,-2.7346 z m 8.9872,3.553 c 0.5386,0 0.9689,-0.1406 1.2906,-0.4201 0.3215,-0.281 0.4825,-0.6574 0.4825,-1.1311 0,-0.5986 -0.1953,-1.0953 -0.5859,-1.4884 -0.3895,-0.3946 -0.8938,-0.5911 -1.5129,-0.5911 -0.5462,0 -0.9779,0.1404 -1.2957,0.4199 -0.3178,0.2809 -0.4762,0.6525 -0.4762,1.1131 0,0.6052 0.1916,1.1069 0.5757,1.5027 0.3844,0.3971 0.8912,0.595 1.5219,0.595 z m -0.0448,-0.383 c -0.2769,0 -0.5068,-0.1698 -0.6879,-0.5108 -0.1826,-0.3407 -0.2722,-0.7492 -0.2696,-1.2229 0.0025,-0.3549 0.0663,-0.6318 0.1902,-0.8311 0.1253,-0.2004 0.3027,-0.2999 0.5312,-0.2999 0.2846,0 0.5145,0.1749 0.688,0.5258 0.1749,0.3512 0.263,0.7546 0.263,1.2116 0,0.3549 -0.0638,0.6307 -0.1916,0.8297 -0.1276,0.1978 -0.301,0.2976 -0.5233,0.2976 z m 2.492,0.0306 0.0218,0.1724 c 0.4365,0.1148 0.7991,0.1723 1.0888,0.1723 0.1672,0 0.2962,-0.0281 0.3869,-0.0856 0.0904,-0.0575 0.1364,-0.1505 0.1364,-0.2784 0,-0.0601 -0.005,-0.1111 -0.0154,-0.153 l -0.3738,-1.7005 c -0.0219,-0.1097 -0.0332,-0.2107 -0.0332,-0.3025 0,-0.1698 0.0368,-0.3027 0.1097,-0.3957 0.074,-0.0933 0.1738,-0.1406 0.3013,-0.1406 0.2248,0 0.4927,0.1431 0.8042,0.4277 l 0.5236,2.5135 1.0505,0.0371 -0.572,-2.7765 c -0.0154,-0.0728 -0.0216,-0.1315 -0.0216,-0.1763 0,-0.0496 0.009,-0.0904 0.0267,-0.1199 0.0192,-0.0295 0.051,-0.0536 0.0958,-0.0689 0.0448,-0.0167 0.1046,-0.0269 0.1774,-0.032 0.074,-0.0051 0.1661,-0.0088 0.2758,-0.0114 l -0.0229,-0.1737 c -0.4366,-0.1035 -0.7634,-0.1556 -0.9805,-0.1556 -0.1863,0 -0.3345,0.0433 -0.4431,0.1289 -0.1083,0.0854 -0.1621,0.2081 -0.1621,0.3677 0,0.0229 10e-4,0.0459 0.004,0.0714 -0.4135,-0.4048 -0.822,-0.6063 -1.2228,-0.6063 -0.2951,0 -0.5312,0.0879 -0.7087,0.2642 -0.1786,0.1749 -0.2682,0.4161 -0.2682,0.72 0,0.0677 0.005,0.1377 0.0128,0.2092 0.009,0.0728 0.0218,0.1482 0.036,0.2248 l 0.3076,1.4899 c 0.019,0.0969 0.0292,0.1621 0.0292,0.1938 0,0.0678 -0.0292,0.1151 -0.0893,0.1432 -0.0598,0.0266 -0.2183,0.0408 -0.4748,0.0408 z m 1.9352,1.8765 c 0.0972,-0.3778 0.309,-0.5669 0.6358,-0.5669 0.4314,0 0.7597,0.2387 0.9867,0.7163 l 0.2325,-0.0969 c -0.1469,-0.4113 -0.3436,-0.7124 -0.5899,-0.9051 -0.2449,-0.1931 -0.5324,-0.2886 -0.8618,-0.2886 -0.6074,0 -0.9802,0.286 -1.1182,0.8566 l 0.6729,0.3 z m 3.7108,-6.6866 0.4493,0.1276 c 0.0703,0.0215 0.11,0.0601 0.1202,0.1148 0.0215,0.0932 0.047,0.2069 0.0765,0.3421 0.0281,0.1366 0.0613,0.2974 0.0984,0.4839 l 0.6919,3.3675 c 0.0204,0.0995 0.0306,0.1636 0.0306,0.1917 0,0.0663 -0.0294,0.1136 -0.0856,0.1417 -0.0601,0.0266 -0.2196,0.0408 -0.4787,0.0408 l 0.0218,0.1724 c 0.434,0.1148 0.7889,0.1723 1.0658,0.1723 0.1647,0 0.2923,-0.0281 0.383,-0.0856 0.0918,-0.0575 0.1366,-0.1505 0.1366,-0.2769 l -0.004,-0.046 h 0.008 c 0.536,0.2719 0.8946,0.4085 1.0771,0.4085 0.2988,0 0.5502,-0.1253 0.7535,-0.3767 0.203,-0.2503 0.305,-0.5528 0.305,-0.9077 0,-0.6879 -0.2183,-1.2484 -0.6562,-1.6812 -0.438,-0.4329 -1.0072,-0.6497 -1.7082,-0.6497 -0.1287,0 -0.2693,0.0102 -0.4223,0.0292 l -0.1571,-0.7747 c -0.0269,-0.1264 -0.0485,-0.2325 -0.0652,-0.3166 -0.0164,-0.0842 -0.028,-0.1534 -0.0357,-0.2056 -0.0102,-0.0739 0.0153,-0.1187 0.0754,-0.134 l 0.5426,-0.1378 -0.0383,-0.184 c -0.4904,0.0077 -0.8643,0.0117 -1.1208,0.0117 -0.3028,0 -0.6639,-0.004 -1.0851,-0.0117 z m 1.9341,1.9148 c 0.1071,-0.0204 0.2041,-0.0306 0.2922,-0.0306 0.4136,0 0.7393,0.18 0.978,0.54 0.2375,0.36 0.3574,0.7787 0.3574,1.256 0,0.2733 -0.0382,0.4952 -0.1122,0.6664 -0.0754,0.171 -0.1902,0.2566 -0.3447,0.2566 -0.1865,0 -0.4085,-0.0715 -0.6653,-0.2157 z m 6.2603,0.4326 0.1276,-0.1863 c -0.4763,-0.415 -1.0046,-0.6216 -1.5869,-0.6216 -0.4529,0 -0.8195,0.1239 -1.099,0.3702 -0.2795,0.2463 -0.4186,0.5845 -0.4186,1.0137 0,0.6355 0.227,1.1667 0.6803,1.5956 0.4544,0.4289 1.0034,0.6435 1.6495,0.6435 0.36,0 0.6355,-0.0652 0.8308,-0.1968 0.1942,-0.1301 0.2911,-0.3203 0.2911,-0.5706 0,-0.3115 -0.199,-0.5706 -0.5987,-0.7787 -0.3982,-0.208 -0.9867,-0.3319 -1.7643,-0.369 -0.005,-0.0598 -0.008,-0.116 -0.008,-0.1684 0,-0.337 0.0677,-0.5936 0.2055,-0.7699 0.1366,-0.176 0.3421,-0.2642 0.6165,-0.2642 0.3549,0 0.7124,0.1009 1.0738,0.3025 z m -1.8587,1.1987 c 0.8629,0.0805 1.2943,0.3589 1.2943,0.8363 0,0.1326 -0.0306,0.231 -0.0918,0.2973 -0.0612,0.0666 -0.1392,0.0998 -0.2336,0.0998 -0.2044,0 -0.3997,-0.1151 -0.5834,-0.3436 -0.1851,-0.2284 -0.3129,-0.5247 -0.3855,-0.8898 z m 6.9075,-1.8036 c -0.0499,-0.0664 -0.0918,-0.1355 -0.1264,-0.203 -0.0357,-0.0689 -0.0664,-0.1432 -0.0944,-0.2234 -0.027,-0.0793 -0.0525,-0.1686 -0.074,-0.2656 -0.023,-0.0969 -0.0459,-0.2095 -0.0717,-0.337 -0.0204,-0.0995 -0.0383,-0.1877 -0.0536,-0.2668 -0.0164,-0.079 -0.0332,-0.1482 -0.051,-0.208 -0.0179,-0.0587 -0.0369,-0.1111 -0.0576,-0.1545 -0.0215,-0.0434 -0.0484,-0.0805 -0.0802,-0.1111 -0.0575,-0.0576 -0.1457,-0.0944 -0.2616,-0.1137 -0.1177,-0.019 -0.2631,-0.0281 -0.4343,-0.0281 -0.0955,0 -0.1913,0.0015 -0.2897,0.0051 -0.0984,0.004 -0.2004,0.0091 -0.305,0.0142 l -0.0116,0.203 c 0.1278,0.0076 0.2336,0.0241 0.3206,0.0484 0.0853,0.0256 0.1581,0.0587 0.2182,0.1035 0.0599,0.0434 0.1097,0.0981 0.1494,0.1633 0.0394,0.0663 0.0777,0.1443 0.1123,0.2336 0.0422,0.1046 0.0856,0.2018 0.129,0.2911 0.0433,0.0893 0.0918,0.1749 0.1442,0.254 0.0522,0.0805 0.1109,0.1596 0.1761,0.2375 0.0638,0.0791 0.1377,0.1582 0.2208,0.2412 l -0.008,0.0117 c -0.1301,-0.0258 -0.2449,-0.0448 -0.3458,-0.0565 -0.1009,-0.0127 -0.1891,-0.0189 -0.2642,-0.0189 -0.1865,0 -0.3345,0.0433 -0.443,0.1289 -0.1086,0.0854 -0.1636,0.2081 -0.1636,0.3677 v 0.0332 c 0,0.0127 10e-4,0.0255 0.004,0.0382 -0.4034,-0.4048 -0.8017,-0.6063 -1.1923,-0.6063 -0.2976,0 -0.5337,0.0867 -0.7112,0.2616 -0.176,0.1775 -0.2656,0.4187 -0.2656,0.7226 0,0.0677 0.005,0.1377 0.0128,0.2092 0.009,0.0728 0.0218,0.1482 0.036,0.2248 l 0.3075,1.4899 c 0.009,0.0496 0.0165,0.0904 0.0216,0.1213 0.005,0.0317 0.008,0.0561 0.008,0.0725 0,0.0678 -0.0292,0.1151 -0.0893,0.1432 -0.0623,0.0266 -0.2208,0.0408 -0.4748,0.0408 l 0.0218,0.1724 c 0.434,0.1148 0.7966,0.1723 1.0888,0.1723 0.1673,0 0.2963,-0.0281 0.387,-0.0856 0.0904,-0.0575 0.1363,-0.1505 0.1363,-0.2784 0,-0.0637 -0.005,-0.1162 -0.0153,-0.153 l -0.3739,-1.7005 c -0.0218,-0.1097 -0.0332,-0.2107 -0.0332,-0.3025 0,-0.1723 0.0369,-0.3053 0.1098,-0.3971 0.0739,-0.0933 0.1737,-0.1392 0.3013,-0.1392 0.2168,0 0.4748,0.1431 0.7735,0.4277 l 0.5247,2.5135 1.0506,0.0371 -0.5718,-2.7728 c -0.0153,-0.0726 -0.0229,-0.1315 -0.0229,-0.176 0,-0.0525 0.0102,-0.0933 0.0306,-0.1239 0.019,-0.0295 0.0535,-0.051 0.102,-0.0638 0.0485,-0.0116 0.1148,-0.0193 0.1979,-0.0218 0.0842,-0.0026 0.1902,-0.0037 0.3203,-0.0037 l -0.019,-0.1723 z m 3.5949,0.6049 0.1276,-0.1863 c -0.4763,-0.415 -1.0046,-0.6216 -1.5869,-0.6216 -0.453,0 -0.8195,0.1239 -1.099,0.3702 -0.2795,0.2463 -0.4187,0.5845 -0.4187,1.0137 0,0.6355 0.2271,1.1667 0.6804,1.5956 0.4544,0.4289 1.0034,0.6435 1.6494,0.6435 0.36,0 0.6356,-0.0652 0.8309,-0.1968 0.1942,-0.1301 0.2911,-0.3203 0.2911,-0.5706 0,-0.3115 -0.199,-0.5706 -0.5987,-0.7787 -0.3982,-0.208 -0.9867,-0.3319 -1.7643,-0.369 -0.005,-0.0598 -0.008,-0.116 -0.008,-0.1684 0,-0.337 0.0677,-0.5936 0.2055,-0.7699 0.1366,-0.176 0.3421,-0.2642 0.6165,-0.2642 0.3549,0 0.7124,0.1009 1.0738,0.3025 z m -1.8587,1.1987 c 0.8629,0.0805 1.2943,0.3589 1.2943,0.8363 0,0.1326 -0.0306,0.231 -0.0918,0.2973 -0.0613,0.0666 -0.1392,0.0998 -0.2336,0.0998 -0.2044,0 -0.3997,-0.1151 -0.5834,-0.3436 -0.1851,-0.2284 -0.3129,-0.5247 -0.3855,-0.8898 z m 2.9092,-1.9366 0.5797,2.8264 c 0.0204,0.0995 0.0306,0.1661 0.0306,0.1979 0,0.0448 -0.0116,0.0791 -0.0357,0.1009 -0.0232,0.023 -0.059,0.0397 -0.106,0.051 -0.0485,0.0117 -0.1075,0.0179 -0.1789,0.0204 -0.07,0.0026 -0.1519,0.004 -0.2438,0.004 l 0.0219,0.1724 c 0.4493,0.1148 0.7888,0.1723 1.021,0.1723 0.1723,0 0.3115,-0.032 0.4175,-0.0947 0.1061,-0.0623 0.1585,-0.1556 0.1585,-0.2795 0,-0.0127 -0.003,-0.0368 -0.008,-0.0754 0.4964,0.3002 0.9485,0.4496 1.3581,0.4496 0.2719,0 0.4828,-0.0717 0.6333,-0.2157 0.1505,-0.1432 0.2273,-0.3371 0.2273,-0.5811 0,-0.1072 -0.0142,-0.222 -0.0422,-0.3444 l -0.3742,-1.7734 c -0.005,-0.0204 -0.009,-0.0394 -0.0102,-0.0587 -0.003,-0.0178 -0.004,-0.0357 -0.004,-0.0535 0,-0.0525 0.0114,-0.0933 0.0372,-0.1239 0.0241,-0.0295 0.0612,-0.051 0.1097,-0.0652 0.0484,-0.0139 0.1097,-0.023 0.1811,-0.0266 0.0728,-0.004 0.1545,-0.0052 0.2477,-0.0052 l -0.0153,-0.1712 c -0.3741,-0.1162 -0.7163,-0.1734 -1.0289,-0.1734 -0.1939,0 -0.3408,0.0357 -0.4391,0.1085 -0.0984,0.0715 -0.148,0.1902 -0.148,0.3549 0,0.0777 0.0102,0.1673 0.0306,0.2693 l 0.3371,1.5625 c 0.0266,0.1289 0.0408,0.2375 0.0408,0.3243 0,0.1505 -0.0346,0.2605 -0.1009,0.3319 -0.0678,0.0703 -0.1647,0.106 -0.2923,0.106 -0.1942,0 -0.4623,-0.0794 -0.8045,-0.2387 l -0.5564,-2.7346 -1.0443,-0.0371 z m 4.7387,0 0.5797,2.8264 c 0.0204,0.0995 0.0306,0.1661 0.0306,0.1979 0,0.0422 -0.0116,0.0754 -0.0357,0.0998 -0.0233,0.0229 -0.059,0.0408 -0.106,0.0521 -0.0485,0.0117 -0.1075,0.0179 -0.1789,0.0204 -0.07,0.0026 -0.1519,0.004 -0.2438,0.004 l 0.0218,0.1724 c 0.4442,0.1148 0.7838,0.1723 1.0211,0.1723 0.1723,0 0.3115,-0.032 0.4175,-0.0947 0.106,-0.0623 0.1585,-0.1556 0.1585,-0.2795 0,-0.0051 0,-0.0139 -0.001,-0.0255 -0.001,-0.0127 -0.004,-0.0295 -0.006,-0.0499 0.4862,0.3002 0.9306,0.4496 1.3315,0.4496 0.411,0 0.6766,-0.1621 0.7965,-0.4864 0.536,0.3243 1.0173,0.4864 1.4437,0.4864 0.2721,0 0.4827,-0.0717 0.6347,-0.2157 0.1505,-0.1432 0.2259,-0.3371 0.2259,-0.5811 0,-0.1072 -0.0142,-0.222 -0.0408,-0.3444 l -0.3742,-1.7734 c -0.005,-0.0204 -0.009,-0.0394 -0.0116,-0.0587 -0.003,-0.0178 -0.004,-0.0357 -0.004,-0.0535 0,-0.0525 0.0127,-0.0933 0.0371,-0.1239 0.0255,-0.0295 0.0624,-0.051 0.1108,-0.0652 0.0488,-0.0139 0.1086,-0.023 0.1815,-0.0266 0.0714,-0.004 0.1544,-0.0052 0.2463,-0.0052 l -0.0153,-0.1712 c -0.3742,-0.1162 -0.716,-0.1734 -1.0276,-0.1734 -0.1953,0 -0.341,0.0357 -0.4391,0.1085 -0.0997,0.0715 -0.1482,0.1902 -0.1482,0.3549 0,0.0766 0.0102,0.1673 0.0295,0.2693 l 0.337,1.5613 c 0.0267,0.1287 0.0408,0.2373 0.0408,0.3255 0,0.1493 -0.0331,0.259 -0.1009,0.3305 -0.0677,0.0703 -0.1647,0.106 -0.2911,0.106 -0.1928,0 -0.4544,-0.0805 -0.7863,-0.2412 0,-0.1097 -0.0128,-0.2311 -0.0409,-0.3637 l -0.4864,-2.367 -1.0505,-0.0371 0.4595,2.247 c 0.0281,0.1364 0.0422,0.2449 0.0422,0.324 0,0.1508 -0.032,0.2605 -0.0958,0.332 -0.0638,0.0703 -0.1596,0.106 -0.286,0.106 -0.1902,0 -0.4482,-0.0791 -0.775,-0.2373 l -0.5564,-2.7346 -1.0443,-0.0371 z m 9.6636,5.2214 c 0.5068,0.2617 0.9638,0.3918 1.3736,0.3918 0.5055,0 0.8935,-0.1902 1.1642,-0.5692 0.2707,-0.3804 0.406,-0.9561 0.406,-1.7286 0,-0.2069 -0.0153,-0.434 -0.0445,-0.6817 -0.0309,-0.2489 -0.0805,-0.4978 -0.152,-0.7492 -0.0703,-0.2517 -0.1647,-0.4955 -0.2798,-0.7316 -0.1159,-0.235 -0.2616,-0.4442 -0.4365,-0.6268 -0.1735,-0.1839 -0.379,-0.3294 -0.6154,-0.4391 -0.2347,-0.11 -0.508,-0.1647 -0.8169,-0.1647 -0.489,0 -0.8771,0.1367 -1.1668,0.4111 -0.2886,0.2732 -0.434,0.646 -0.434,1.1157 0,0.5706 0.1939,1.0545 0.5794,1.4527 0.387,0.3983 0.872,0.5976 1.4553,0.5976 0.2926,0 0.595,-0.0564 0.9091,-0.1687 0,0.2018 -0.009,0.4048 -0.0269,0.6089 -0.0165,0.2044 -0.0638,0.3957 -0.1417,0.5746 -0.0868,0.2015 -0.203,0.3549 -0.3473,0.4583 -0.1454,0.1032 -0.3393,0.1557 -0.5834,0.1582 -0.2423,0 -0.5119,-0.0536 -0.8078,-0.1607 z m 1.1182,-2.1053 c -0.3038,0 -0.5513,-0.1746 -0.744,-0.5258 -0.1917,-0.3509 -0.2875,-0.7415 -0.2875,-1.1733 0,-0.3407 0.0576,-0.6125 0.1724,-0.8155 0.1136,-0.2029 0.2721,-0.3039 0.4751,-0.3039 0.1312,0 0.25,0.0394 0.356,0.12 0.106,0.079 0.2004,0.1865 0.2809,0.3203 0.0816,0.134 0.1519,0.2885 0.2117,0.4609 0.0601,0.1737 0.1112,0.3537 0.1534,0.54 0.042,0.1865 0.0765,0.3727 0.102,0.5604 0.027,0.1865 0.0474,0.3589 0.0627,0.5184 -0.2951,0.199 -0.5553,0.2985 -0.7827,0.2985 z m 4.1809,0.0462 c -0.1596,-0.6001 -0.3065,-1.1055 -0.4417,-1.5142 -0.1341,-0.4096 -0.2707,-0.739 -0.411,-0.9879 -0.1392,-0.2489 -0.2886,-0.4289 -0.4482,-0.5374 -0.1595,-0.1086 -0.3432,-0.1622 -0.5502,-0.1622 -0.1992,0 -0.4059,0.0318 -0.6205,0.097 0.027,0.1584 0.0576,0.305 0.0896,0.4405 0.0318,0.1352 0.0689,0.2565 0.1083,0.3611 l 0.0371,0.0065 c 0.254,-0.1647 0.4595,-0.2463 0.614,-0.2463 0.0525,0 0.106,0.0127 0.1622,0.0368 0.0561,0.0255 0.1122,0.0715 0.1698,0.1367 0.0575,0.0663 0.1173,0.1584 0.18,0.2744 0.0626,0.1162 0.1289,0.2644 0.1978,0.4456 0.0703,0.1814 0.1432,0.3982 0.2197,0.6522 0.0751,0.2529 0.1556,0.5502 0.2412,0.8924 0.0114,0.0524 -0.0153,0.083 -0.083,0.0907 -0.1392,0.0167 -0.3065,0.032 -0.5003,0.0448 l 0.0292,0.1989 c 0.4393,0.0511 0.8223,0.0893 1.1502,0.1151 0.328,0.0255 0.595,0.0383 0.8017,0.0383 0.2769,0 0.4776,-0.0255 0.6026,-0.0768 0.125,-0.051 0.1863,-0.1454 0.1863,-0.2832 0,-0.0473 -0.005,-0.0998 -0.0165,-0.157 -0.0102,-0.0576 -0.0229,-0.1202 -0.0346,-0.1877 l -0.4646,-2.2099 c -0.0102,-0.0331 -0.0141,-0.0689 -0.0141,-0.1085 0,-0.0995 0.0462,-0.1647 0.138,-0.1954 0.0919,-0.0292 0.2398,-0.0445 0.4456,-0.0445 l -0.0232,-0.1737 c -0.2194,-0.0522 -0.4122,-0.0907 -0.5783,-0.1174 -0.1658,-0.0255 -0.3152,-0.0382 -0.4504,-0.0382 -0.1865,0 -0.3294,0.0357 -0.4266,0.1071 -0.097,0.0703 -0.1454,0.1814 -0.1454,0.3308 0,0.0343 0.002,0.074 0.009,0.1174 0.006,0.0433 0.0153,0.0918 0.0241,0.1442 l 0.4456,2.2071 c 0.0102,0.0371 0.0153,0.0765 0.0153,0.1162 0,0.0678 -0.0218,0.1188 -0.0637,0.1545 -0.0423,0.0371 -0.1177,0.055 -0.2248,0.055 -0.0499,0 -0.1072,-0.0014 -0.1724,-0.0051 -0.0638,-0.004 -0.1301,-0.0102 -0.1978,-0.0179 z m 4.7233,-1.7044 c -0.1389,-0.0128 -0.2795,-0.019 -0.4186,-0.019 -0.1097,0 -0.203,0.0051 -0.2807,0.0153 -0.0946,-0.2361 -0.1839,-0.4482 -0.2695,-0.6333 -0.0842,-0.1851 -0.1775,-0.3421 -0.2781,-0.4685 -0.1009,-0.1262 -0.216,-0.2234 -0.3461,-0.2909 -0.129,-0.0677 -0.2872,-0.1009 -0.4748,-0.1009 -0.1826,0 -0.3804,0.0332 -0.595,0.0984 0.0473,0.2729 0.1176,0.54 0.2095,0.8027 l 0.0382,0.0066 c 0.2489,-0.1968 0.4391,-0.2948 0.5718,-0.2948 0.2644,0 0.5094,0.3189 0.7367,0.9561 -0.5338,0.1672 -0.8005,0.4595 -0.8005,0.8782 0,0.3716 0.1749,0.6548 0.5261,0.8475 0.3498,0.1928 0.8297,0.29 1.4374,0.29 0.4315,0 0.7507,-0.0459 0.9573,-0.138 0.2069,-0.093 0.3104,-0.2297 0.3104,-0.4122 0,-0.0346 -0.004,-0.0729 -0.0116,-0.1125 l -0.4558,-2.2147 c -0.0128,-0.0703 -0.019,-0.1177 -0.019,-0.1418 0,-0.0983 0.0408,-0.1621 0.1224,-0.1953 0.0805,-0.032 0.2325,-0.0485 0.4544,-0.0485 l -0.0229,-0.1737 c -0.4162,-0.1035 -0.7558,-0.1556 -1.0174,-0.1556 -0.1774,0 -0.3166,0.0357 -0.4187,0.106 -0.102,0.0714 -0.1533,0.1811 -0.1533,0.3305 0,0.0357 0.001,0.074 0.005,0.1173 0.004,0.0434 0.0127,0.0922 0.0244,0.1443 l 0.1683,0.8068 z m 0.0678,0.318 0.1978,0.9933 c 0.0153,0.07 0.023,0.1301 0.023,0.18 0,0.0791 -0.0255,0.1363 -0.0765,0.1695 -0.0511,0.0346 -0.1341,0.0513 -0.2489,0.0513 -0.2427,0 -0.4329,-0.0652 -0.5706,-0.1967 -0.1381,-0.1316 -0.2081,-0.3127 -0.2081,-0.5451 0,-0.4405 0.2412,-0.6599 0.7226,-0.6599 0.0547,0 0.1085,0.0025 0.1607,0.0076 z m 3.8973,1.5971 c 0.4366,0.1148 0.7991,0.1723 1.0888,0.1723 0.1661,0 0.2937,-0.0281 0.3804,-0.0856 0.0882,-0.0575 0.1316,-0.1505 0.1316,-0.2784 0,-0.0586 -0.005,-0.1111 -0.0153,-0.153 l -0.2872,-1.3967 -0.0947,-0.3447 0.2135,0.281 c 0.5091,0.6944 0.9088,1.1973 1.201,1.5063 0.2911,0.309 0.6384,0.4634 1.0392,0.4634 0.1723,0 0.3283,-0.0127 0.4686,-0.0371 -0.0627,-0.2222 -0.1455,-0.4773 -0.2478,-0.7659 l -0.019,-0.0102 c -0.157,0.0524 -0.3155,0.0779 -0.4751,0.0779 -0.1811,0 -0.3498,-0.0462 -0.5065,-0.1366 -0.1559,-0.0907 -0.3677,-0.2849 -0.6372,-0.5822 0.0703,-0.1341 0.1417,-0.2707 0.2171,-0.4085 0.074,-0.1392 0.1494,-0.2718 0.2248,-0.4008 0.074,-0.1276 0.1454,-0.2463 0.2143,-0.3563 0.0689,-0.1097 0.1315,-0.2004 0.1891,-0.2719 0.0623,-0.0805 0.1184,-0.1417 0.1697,-0.1851 0.0511,-0.0433 0.1072,-0.0765 0.1673,-0.0969 0.0598,-0.0218 0.1275,-0.0346 0.2055,-0.0383 0.0765,-0.004 0.1749,-0.0051 0.2908,-0.0051 l -0.0139,-0.1763 c -0.4492,-0.1378 -0.7724,-0.2067 -0.9688,-0.2067 -0.0856,0 -0.1596,0.0052 -0.2223,0.0154 -0.0638,0.0102 -0.1213,0.024 -0.1723,0.0445 -0.051,0.0204 -0.097,0.0462 -0.1392,0.0805 -0.0408,0.0331 -0.0816,0.0739 -0.1213,0.1213 -0.0445,0.055 -0.0955,0.1264 -0.1531,0.2146 -0.0575,0.0893 -0.1162,0.1851 -0.176,0.2883 -0.059,0.1034 -0.1188,0.2094 -0.1789,0.3191 -0.0601,0.11 -0.1162,0.2157 -0.1684,0.3181 -0.1774,-0.2146 -0.341,-0.419 -0.4904,-0.6129 l -0.1417,-0.6894 -1.0327,-0.0371 0.5721,2.8228 c 0.0102,0.0496 0.0178,0.0904 0.0229,0.1213 0.005,0.0317 0.008,0.0561 0.008,0.0725 0,0.0678 -0.0306,0.1151 -0.0896,0.1432 -0.0598,0.0266 -0.2183,0.0408 -0.4748,0.0408 l 0.0218,0.1724 z m 6.4072,0.18 c 0.5386,0 0.9689,-0.1406 1.2906,-0.4201 0.3215,-0.281 0.4825,-0.6574 0.4825,-1.1311 0,-0.5986 -0.1953,-1.0953 -0.586,-1.4884 -0.3894,-0.3946 -0.8937,-0.5911 -1.5128,-0.5911 -0.5462,0 -0.978,0.1404 -1.2957,0.4199 -0.3178,0.2809 -0.4762,0.6525 -0.4762,1.1131 0,0.6052 0.1916,1.1069 0.5757,1.5027 0.3843,0.3971 0.8912,0.595 1.5219,0.595 z m -0.0448,-0.383 c -0.2769,0 -0.5068,-0.1698 -0.688,-0.5108 -0.1825,-0.3407 -0.2721,-0.7492 -0.2695,-1.2229 0.002,-0.3549 0.0663,-0.6318 0.1902,-0.8311 0.1253,-0.2004 0.3027,-0.2999 0.5312,-0.2999 0.2846,0 0.5145,0.1749 0.6879,0.5258 0.1749,0.3512 0.2631,0.7546 0.2631,1.2116 0,0.3549 -0.0638,0.6307 -0.1916,0.8297 -0.1276,0.1978 -0.3011,0.2976 -0.5233,0.2976" style="fill:#000003;fill-opacity:1;fill-rule:nonzero;stroke:none" id="path30" inkscape:connector-curvature="0"/><path d="m 166.6066,15.5483 1.025,0.0408 -0.5718,-2.7878 c -0.0127,-0.0703 -0.0192,-0.1228 -0.0192,-0.1571 0,-0.0995 0.0397,-0.1661 0.1176,-0.1967 0.0791,-0.0318 0.2336,-0.0471 0.4621,-0.0471 l -0.0219,-0.1737 c -0.4263,-0.1035 -0.771,-0.1556 -1.0326,-0.1556 -0.1866,0 -0.332,0.0357 -0.434,0.1071 -0.1024,0.0703 -0.1534,0.1814 -0.1534,0.3308 0,0.0802 0.0102,0.167 0.0295,0.2616 l 0.3294,1.5381 0.0867,0.3447 -1.7577,-2.5211 -0.3141,-0.0372 c -0.078,0.8694 -0.1942,1.6648 -0.3487,2.3823 -0.0714,-0.3217 -0.1479,-0.6063 -0.2259,-0.8527 -0.0791,-0.2477 -0.1621,-0.4802 -0.2489,-0.6996 -0.0652,-0.1584 -0.1326,-0.2911 -0.2041,-0.3997 -0.0703,-0.1085 -0.1457,-0.1953 -0.2262,-0.2616 -0.0791,-0.0663 -0.1647,-0.1137 -0.2551,-0.1417 -0.0921,-0.0295 -0.1876,-0.0434 -0.2911,-0.0434 -0.1607,0 -0.3512,0.0318 -0.5681,0.097 0.0525,0.2922 0.1174,0.5541 0.1939,0.7863 l 0.0386,0.0065 c 0.2041,-0.1647 0.3727,-0.2463 0.504,-0.2463 0.1048,0 0.1967,0.0382 0.2732,0.1159 0.078,0.0768 0.1469,0.1891 0.2095,0.337 0.0624,0.1494 0.1239,0.3192 0.1851,0.5083 0.0612,0.1902 0.1188,0.3779 0.1709,0.5655 0.0525,0.1862 0.097,0.36 0.1341,0.5182 0.0372,0.1584 0.0663,0.2809 0.0856,0.3676 -0.009,0.046 -0.0269,0.0805 -0.0499,0.1046 -0.0241,0.0258 -0.0586,0.0437 -0.1071,0.055 -0.0474,0.0117 -0.1097,0.0179 -0.1865,0.0204 -0.0777,0.0026 -0.1735,0.004 -0.2883,0.004 l 0.0229,0.1724 c 0.4683,0.1148 0.8068,0.1723 1.0134,0.1723 0.1571,0 0.2875,-0.032 0.3921,-0.0972 0.1046,-0.0649 0.1785,-0.1786 0.2208,-0.3408 0.0754,-0.282 0.1392,-0.572 0.1916,-0.8693 0.0522,-0.2974 0.0981,-0.6027 0.1378,-0.9139 z m 4.7324,1.4171 c 0.1494,0.1749 0.328,0.3013 0.5361,0.3804 0.208,0.0779 0.4558,0.1176 0.7429,0.1176 0.0766,0 0.1636,-0.004 0.2591,-0.0128 0.0958,-0.009 0.1967,-0.0232 0.3013,-0.0436 -0.008,-0.0547 -0.0178,-0.1148 -0.0317,-0.1786 -0.0142,-0.0638 -0.0284,-0.1275 -0.0437,-0.1902 -0.0139,-0.0638 -0.0292,-0.1264 -0.0445,-0.1851 -0.0142,-0.0601 -0.028,-0.1122 -0.0408,-0.157 l -0.0524,-0.0153 c -0.1199,0.1442 -0.2285,0.2503 -0.3269,0.3152 -0.0983,0.0663 -0.1749,0.0997 -0.2296,0.0997 -0.0856,0 -0.1584,-0.0204 -0.2197,-0.06 -0.0612,-0.0397 -0.1136,-0.0984 -0.1584,-0.1738 -0.0445,-0.0765 -0.0842,-0.1698 -0.1185,-0.2806 -0.0332,-0.1112 -0.0652,-0.2376 -0.0947,-0.3793 l -0.157,-0.7518 c 0.3639,0.1415 0.6244,0.2132 0.7815,0.2132 0.2934,0 0.5323,-0.129 0.7135,-0.3855 0.1825,-0.2568 0.2732,-0.5604 0.2732,-0.9116 0,-0.5962 -0.1876,-1.1325 -0.5629,-1.6098 -0.3753,-0.4774 -0.8093,-0.7161 -1.3034,-0.7161 -0.1942,0 -0.3844,0.0496 -0.572,0.1494 -0.0689,-0.3115 -0.1571,-0.5848 -0.2617,-0.8209 -0.1046,-0.235 -0.2208,-0.4303 -0.3472,-0.5848 -0.148,-0.18 -0.3254,-0.3075 -0.5335,-0.3841 -0.2083,-0.0754 -0.4584,-0.1136 -0.7495,-0.1136 -0.0728,0 -0.1621,0.0051 -0.2681,0.0153 -0.1061,0.0102 -0.2016,0.0255 -0.2897,0.0484 0.008,0.0525 0.0178,0.1112 0.032,0.1749 0.0139,0.0638 0.0281,0.1265 0.0434,0.1902 0.0153,0.0638 0.0292,0.1251 0.0445,0.184 0.0153,0.0587 0.028,0.1097 0.0408,0.1545 l 0.0485,0.0153 c 0.1176,-0.1341 0.2262,-0.2375 0.3242,-0.309 0.0984,-0.0703 0.1764,-0.106 0.2339,-0.106 0.0765,0 0.148,0.0216 0.2106,0.0638 0.0638,0.0422 0.1225,0.1122 0.176,0.2095 0.0536,0.0969 0.1046,0.2245 0.152,0.3829 0.0473,0.1582 0.0944,0.3524 0.1417,0.5845 l 0.0714,0.3589 c -0.3738,-0.1417 -0.6358,-0.2132 -0.7863,-0.2132 -0.2962,0 -0.5349,0.1276 -0.7163,0.383 -0.18,0.2551 -0.2704,0.559 -0.2704,0.9102 0,0.6038 0.1913,1.1424 0.5743,1.6175 0.3829,0.4748 0.8132,0.7123 1.292,0.7123 0.1862,0 0.3779,-0.0536 0.5718,-0.161 0.0677,0.3217 0.1533,0.6077 0.2579,0.8566 0.1046,0.2503 0.2234,0.4519 0.3563,0.6064 z m -1.006,-1.6543 c -0.2846,0 -0.5221,-0.1851 -0.7138,-0.5554 -0.1902,-0.3702 -0.2857,-0.7837 -0.2857,-1.2421 0,-0.3192 0.0383,-0.5669 0.1123,-0.743 0.0754,-0.1749 0.1851,-0.263 0.3293,-0.263 0.0893,0 0.2056,0.0193 0.3484,0.0561 l 0.5414,2.6388 c -0.115,0.0728 -0.2247,0.1086 -0.3319,0.1086 z m 1.0505,-2.9183 c 0.2821,0 0.5196,0.1837 0.7124,0.5527 0.1927,0.3688 0.2897,0.7838 0.2897,1.2447 0,0.2617 -0.0369,0.4952 -0.1123,0.6996 -0.0754,0.2041 -0.1888,0.3062 -0.3433,0.3062 -0.0856,0 -0.1967,-0.0204 -0.3333,-0.0598 l -0.5426,-2.6351 c 0.1075,-0.0726 0.2172,-0.1083 0.3294,-0.1083 z m 4.735,3.2783 c 0.5386,0 0.9689,-0.1406 1.2906,-0.4201 0.3215,-0.281 0.4825,-0.6574 0.4825,-1.1311 0,-0.5986 -0.1953,-1.0953 -0.5859,-1.4884 -0.3895,-0.3946 -0.8938,-0.5911 -1.5129,-0.5911 -0.5462,0 -0.9779,0.1404 -1.2957,0.4199 -0.3178,0.2809 -0.4762,0.6525 -0.4762,1.1131 0,0.6052 0.1916,1.1069 0.5757,1.5027 0.3844,0.3971 0.8912,0.595 1.5219,0.595 z m -0.0448,-0.383 c -0.2769,0 -0.5068,-0.1698 -0.6879,-0.5108 -0.1826,-0.3407 -0.2722,-0.7492 -0.2696,-1.2229 0.002,-0.3549 0.0663,-0.6318 0.1902,-0.8311 0.1253,-0.2004 0.3027,-0.2999 0.5312,-0.2999 0.2846,0 0.5145,0.1749 0.688,0.5258 0.1749,0.3512 0.263,0.7546 0.263,1.2116 0,0.3549 -0.0637,0.6307 -0.1916,0.8297 -0.1276,0.1978 -0.301,0.2976 -0.5233,0.2976 z m 1.6455,-4.7795 0.4493,0.1276 c 0.0703,0.0215 0.11,0.0601 0.1202,0.1148 0.0216,0.0932 0.0471,0.2069 0.0766,0.3421 0.028,0.1366 0.0612,0.2974 0.0983,0.4839 l 0.692,3.3675 c 0.0204,0.0995 0.0306,0.1636 0.0306,0.1917 0,0.0663 -0.0295,0.1136 -0.0856,0.1417 -0.0601,0.0266 -0.2197,0.0408 -0.4788,0.0408 l 0.0218,0.1724 c 0.434,0.1148 0.7889,0.1723 1.0658,0.1723 0.1647,0 0.2923,-0.0281 0.383,-0.0856 0.0919,-0.0575 0.1366,-0.1505 0.1366,-0.2769 l -0.004,-0.046 h 0.008 c 0.536,0.2719 0.8946,0.4085 1.0772,0.4085 0.2987,0 0.5502,-0.1253 0.7534,-0.3767 0.203,-0.2503 0.305,-0.5528 0.305,-0.9077 0,-0.6879 -0.2182,-1.2484 -0.6562,-1.6812 -0.4379,-0.4329 -1.0071,-0.6497 -1.7081,-0.6497 -0.1287,0 -0.2693,0.0102 -0.4224,0.0292 l -0.157,-0.7747 c -0.027,-0.1264 -0.0485,-0.2325 -0.0652,-0.3166 -0.0165,-0.0842 -0.0281,-0.1534 -0.0358,-0.2056 -0.0102,-0.0739 0.0153,-0.1187 0.0754,-0.134 l 0.5426,-0.1378 -0.0383,-0.184 c -0.4904,0.0077 -0.8643,0.0117 -1.1208,0.0117 -0.3027,0 -0.6639,-0.004 -1.0851,-0.0117 z m 1.9341,1.9148 c 0.1072,-0.0204 0.2041,-0.0306 0.2923,-0.0306 0.4135,0 0.7393,0.18 0.9779,0.54 0.2376,0.36 0.3575,0.7787 0.3575,1.256 0,0.2733 -0.0383,0.4952 -0.1123,0.6664 -0.0754,0.171 -0.1902,0.2566 -0.3447,0.2566 -0.1865,0 -0.4084,-0.0715 -0.6653,-0.2157 z m 3.3727,-0.3053 0.5797,2.8264 c 0.0204,0.0995 0.0306,0.1661 0.0306,0.1979 0,0.0422 -0.0116,0.0754 -0.0357,0.0998 -0.0233,0.0229 -0.059,0.0408 -0.106,0.0521 -0.0485,0.0117 -0.1075,0.0179 -0.1789,0.0204 -0.07,0.0026 -0.152,0.004 -0.2438,0.004 l 0.0218,0.1724 c 0.4442,0.1148 0.7838,0.1723 1.0211,0.1723 0.1723,0 0.3115,-0.032 0.4175,-0.0947 0.106,-0.0623 0.1585,-0.1556 0.1585,-0.2795 0,-0.0051 0,-0.0139 -0.001,-0.0255 -0.001,-0.0127 -0.004,-0.0295 -0.006,-0.0499 0.4862,0.3002 0.9306,0.4496 1.3315,0.4496 0.411,0 0.6766,-0.1621 0.7965,-0.4864 0.536,0.3243 1.0173,0.4864 1.4437,0.4864 0.2721,0 0.4827,-0.0717 0.6346,-0.2157 0.1506,-0.1432 0.226,-0.3371 0.226,-0.5811 0,-0.1072 -0.0142,-0.222 -0.0408,-0.3444 l -0.3742,-1.7734 c -0.005,-0.0204 -0.009,-0.0394 -0.0116,-0.0587 -0.003,-0.0178 -0.004,-0.0357 -0.004,-0.0535 0,-0.0525 0.0127,-0.0933 0.0371,-0.1239 0.0255,-0.0295 0.0624,-0.051 0.1108,-0.0652 0.0488,-0.0139 0.1086,-0.023 0.1815,-0.0266 0.0714,-0.004 0.1544,-0.0052 0.2463,-0.0052 l -0.0153,-0.1712 c -0.3742,-0.1162 -0.7161,-0.1734 -1.0276,-0.1734 -0.1953,0 -0.341,0.0357 -0.4391,0.1085 -0.0997,0.0715 -0.1482,0.1902 -0.1482,0.3549 0,0.0766 0.0102,0.1673 0.0295,0.2693 l 0.337,1.5613 c 0.0266,0.1287 0.0408,0.2373 0.0408,0.3255 0,0.1493 -0.0331,0.259 -0.1009,0.3305 -0.0677,0.0703 -0.1647,0.106 -0.2911,0.106 -0.1928,0 -0.4544,-0.0805 -0.7863,-0.2412 0,-0.1097 -0.0128,-0.2311 -0.0409,-0.3637 l -0.4864,-2.367 -1.0505,-0.0371 0.4595,2.247 c 0.0281,0.1364 0.0422,0.2449 0.0422,0.324 0,0.1508 -0.032,0.2605 -0.0958,0.332 -0.0638,0.0703 -0.1596,0.106 -0.286,0.106 -0.1902,0 -0.4482,-0.0791 -0.775,-0.2373 l -0.5564,-2.7346 -1.0443,-0.0371 z m 10.4309,0.6832 c -0.0127,-0.0652 -0.0193,-0.1177 -0.0193,-0.1571 0,-0.0995 0.0423,-0.1661 0.1239,-0.1967 0.0819,-0.0318 0.235,-0.0471 0.4558,-0.0471 l -0.0218,-0.1737 c -0.4263,-0.1035 -0.771,-0.1556 -1.0327,-0.1556 -0.1837,0 -0.3279,0.0357 -0.4314,0.1085 -0.1035,0.0726 -0.1556,0.1826 -0.1556,0.3305 0,0.0703 0.0102,0.1582 0.0306,0.2631 l 0.2092,1.0137 h -1.2458 l -0.3334,-1.6317 -1.0505,-0.0371 0.572,2.8228 c 0.0204,0.0994 0.0306,0.1646 0.0306,0.1938 0,0.0678 -0.0294,0.1151 -0.0856,0.1432 -0.0575,0.0266 -0.2171,0.0408 -0.4787,0.0408 l 0.0218,0.1724 c 0.4467,0.1148 0.8093,0.1723 1.0888,0.1723 0.1661,0 0.2973,-0.0295 0.3906,-0.0882 0.0932,-0.0586 0.1406,-0.1493 0.1406,-0.2743 0,-0.0525 -0.005,-0.1035 -0.0153,-0.1534 l -0.2095,-1.0086 h 1.2447 l 0.2962,1.4094 1.0468,0.0408 z m 3.3511,2.8698 c 0.5386,0 0.9689,-0.1406 1.2906,-0.4201 0.3215,-0.281 0.4825,-0.6574 0.4825,-1.1311 0,-0.5986 -0.1953,-1.0953 -0.5859,-1.4884 -0.3895,-0.3946 -0.8938,-0.5911 -1.5129,-0.5911 -0.5462,0 -0.9779,0.1404 -1.2957,0.4199 -0.3177,0.2809 -0.4762,0.6525 -0.4762,1.1131 0,0.6052 0.1916,1.1069 0.5757,1.5027 0.3844,0.3971 0.8912,0.595 1.5219,0.595 z m -0.0448,-0.383 c -0.2769,0 -0.5068,-0.1698 -0.6879,-0.5108 -0.1826,-0.3407 -0.2722,-0.7492 -0.2696,-1.2229 0.003,-0.3549 0.0663,-0.6318 0.1902,-0.8311 0.1253,-0.2004 0.3027,-0.2999 0.5312,-0.2999 0.2846,0 0.5145,0.1749 0.688,0.5258 0.1749,0.3512 0.263,0.7546 0.263,1.2116 0,0.3549 -0.0637,0.6307 -0.1916,0.8297 -0.1275,0.1978 -0.301,0.2976 -0.5233,0.2976 z m 2.492,0.0306 0.0218,0.1724 c 0.4365,0.1148 0.7991,0.1723 1.0888,0.1723 0.1672,0 0.2962,-0.0281 0.3869,-0.0856 0.0904,-0.0575 0.1364,-0.1505 0.1364,-0.2784 0,-0.0601 -0.005,-0.1111 -0.0153,-0.153 l -0.3739,-1.7005 c -0.0219,-0.1097 -0.0332,-0.2107 -0.0332,-0.3025 0,-0.1698 0.0369,-0.3027 0.1097,-0.3957 0.074,-0.0933 0.1738,-0.1406 0.3013,-0.1406 0.2248,0 0.4927,0.1431 0.8042,0.4277 l 0.5236,2.5135 1.0505,0.0371 -0.572,-2.7765 c -0.0153,-0.0728 -0.0216,-0.1315 -0.0216,-0.1763 0,-0.0496 0.009,-0.0904 0.0267,-0.1199 0.0192,-0.0295 0.051,-0.0536 0.0958,-0.0689 0.0448,-0.0167 0.1046,-0.0269 0.1774,-0.032 0.074,-0.0051 0.1661,-0.0088 0.2758,-0.0114 l -0.0229,-0.1737 c -0.4366,-0.1035 -0.7634,-0.1556 -0.9805,-0.1556 -0.1863,0 -0.3345,0.0433 -0.4431,0.1289 -0.1083,0.0854 -0.1621,0.2081 -0.1621,0.3677 0,0.0229 0.001,0.0459 0.004,0.0714 -0.4135,-0.4048 -0.822,-0.6063 -1.2228,-0.6063 -0.2951,0 -0.5312,0.0879 -0.7087,0.2642 -0.1786,0.1749 -0.2681,0.4161 -0.2681,0.72 0,0.0677 0.005,0.1377 0.0127,0.2092 0.009,0.0728 0.0218,0.1482 0.036,0.2248 l 0.3076,1.4899 c 0.019,0.0969 0.0292,0.1621 0.0292,0.1938 0,0.0678 -0.0292,0.1151 -0.0893,0.1432 -0.0598,0.0266 -0.2183,0.0408 -0.4748,0.0408 z m 1.9352,1.8765 c 0.0972,-0.3778 0.309,-0.5669 0.6358,-0.5669 0.4314,0 0.7597,0.2387 0.9867,0.7163 l 0.2325,-0.0969 c -0.1468,-0.4113 -0.3436,-0.7124 -0.5899,-0.9051 -0.2449,-0.1931 -0.5324,-0.2886 -0.8617,-0.2886 -0.6075,0 -0.9803,0.286 -1.1183,0.8566 l 0.6729,0.3 z m 3.7108,-6.6866 0.4493,0.1276 c 0.0703,0.0215 0.11,0.0601 0.1202,0.1148 0.0216,0.0932 0.0471,0.2069 0.0765,0.3421 0.0281,0.1366 0.0613,0.2974 0.0984,0.4839 l 0.6919,3.3675 c 0.0205,0.0995 0.0307,0.1636 0.0307,0.1917 0,0.0663 -0.0295,0.1136 -0.0856,0.1417 -0.0601,0.0266 -0.2197,0.0408 -0.4788,0.0408 l 0.0218,0.1724 c 0.434,0.1148 0.7889,0.1723 1.0658,0.1723 0.1647,0 0.2923,-0.0281 0.383,-0.0856 0.0918,-0.0575 0.1366,-0.1505 0.1366,-0.2769 l -0.004,-0.046 h 0.008 c 0.536,0.2719 0.8946,0.4085 1.0772,0.4085 0.2987,0 0.5502,-0.1253 0.7534,-0.3767 0.203,-0.2503 0.305,-0.5528 0.305,-0.9077 0,-0.6879 -0.2183,-1.2484 -0.6562,-1.6812 -0.438,-0.4329 -1.0072,-0.6497 -1.7082,-0.6497 -0.1287,0 -0.2693,0.0102 -0.4223,0.0292 l -0.1571,-0.7747 c -0.0269,-0.1264 -0.0484,-0.2325 -0.0652,-0.3166 -0.0164,-0.0842 -0.028,-0.1534 -0.0357,-0.2056 -0.0102,-0.0739 0.0153,-0.1187 0.0754,-0.134 l 0.5426,-0.1378 -0.0383,-0.184 c -0.4904,0.0077 -0.8643,0.0117 -1.1208,0.0117 -0.3028,0 -0.6639,-0.004 -1.0851,-0.0117 z m 1.9341,1.9148 c 0.1072,-0.0204 0.2041,-0.0306 0.2923,-0.0306 0.4135,0 0.7392,0.18 0.9779,0.54 0.2376,0.36 0.3575,0.7787 0.3575,1.256 0,0.2733 -0.0383,0.4952 -0.1123,0.6664 -0.0754,0.171 -0.1902,0.2566 -0.3447,0.2566 -0.1865,0 -0.4085,-0.0715 -0.6653,-0.2157 z m 7.1053,3.1992 c -0.0918,-0.3053 -0.1851,-0.6945 -0.2809,-1.1696 l -0.3356,-1.667 c -0.0128,-0.0576 -0.0193,-0.1049 -0.0193,-0.1418 0,-0.0524 0.0102,-0.0944 0.0321,-0.1264 0.0218,-0.0306 0.0549,-0.0561 0.1009,-0.074 0.0459,-0.0193 0.106,-0.0306 0.18,-0.0357 0.0728,-0.0051 0.1632,-0.0077 0.2707,-0.0077 l -0.0258,-0.1737 c -0.4366,-0.1035 -0.7659,-0.1556 -0.9879,-0.1556 -0.1865,0 -0.3334,0.0419 -0.4391,0.1264 -0.106,0.0842 -0.1596,0.2041 -0.1596,0.3625 v 0.0751 c -0.4507,-0.3968 -0.7761,-0.5947 -0.9754,-0.5947 -0.3396,0 -0.6216,0.1302 -0.845,0.3907 -0.2248,0.2605 -0.337,0.591 -0.337,0.9932 0,0.6304 0.2143,1.1628 0.6446,1.5956 0.4303,0.434 0.974,0.6512 1.6288,0.6512 0.2899,0 0.6015,-0.046 0.936,-0.1381 0.1836,0.032 0.3676,0.0754 0.5488,0.1304 z m -1.1551,-0.3895 c -0.1355,0.0626 -0.2886,0.0933 -0.4598,0.0933 -0.3268,0 -0.5961,-0.1866 -0.8078,-0.5604 -0.2121,-0.3728 -0.3181,-0.7736 -0.3181,-1.2028 0,-0.2514 0.0383,-0.4722 0.1176,-0.6624 0.0791,-0.1902 0.1684,-0.2861 0.2705,-0.2861 0.1406,0 0.3869,0.133 0.7418,0.3983 z m 6.0778,2.5441 0.1902,-0.1083 c -0.1661,-0.3844 -0.3257,-0.6525 -0.4788,-0.8045 -0.1519,-0.1516 -0.337,-0.2284 -0.5567,-0.2284 -0.0802,0 -0.231,0.0294 -0.4533,0.087 -0.2208,0.0573 -0.4198,0.0867 -0.5936,0.0867 -0.4416,0 -0.7951,-0.5119 -1.0595,-1.5369 0.4124,0.2296 0.7801,0.3447 1.1043,0.3447 0.4264,0 0.7813,-0.1418 1.0659,-0.4252 0.2834,-0.2821 0.4266,-0.6384 0.4266,-1.0673 0,-0.5822 -0.203,-1.0749 -0.6066,-1.4782 -0.4034,-0.4048 -0.9165,-0.6064 -1.537,-0.6064 -0.5539,0 -0.9791,0.1608 -1.2778,0.4825 -0.2974,0.3217 -0.4468,0.7787 -0.4468,1.3722 0,0.3793 0.0536,0.7328 0.1607,1.0585 0.1075,0.3268 0.2478,0.6228 0.4216,0.8884 0.1734,0.2656 0.3687,0.5017 0.587,0.7072 0.2183,0.2055 0.438,0.3793 0.6574,0.5185 0.2211,0.1389 0.4328,0.2449 0.6372,0.3177 0.203,0.0729 0.3753,0.1086 0.517,0.1086 0.0854,0 0.2041,-0.0127 0.3575,-0.0397 0.1531,-0.0255 0.282,-0.0382 0.3866,-0.0382 0.0907,0 0.1687,0.0204 0.2336,0.0626 0.0666,0.0434 0.1545,0.1429 0.2645,0.2985 z m -3.0181,-2.8148 c -0.0827,-0.434 -0.1238,-0.8297 -0.1238,-1.1872 0,-0.4226 0.0626,-0.7545 0.1865,-0.9958 0.125,-0.2423 0.3101,-0.3637 0.5539,-0.3637 0.2848,0 0.5145,0.1684 0.6908,0.5055 0.1749,0.337 0.263,0.7137 0.263,1.131 0,0.3498 -0.0728,0.6165 -0.2171,0.7991 -0.1443,0.1839 -0.3535,0.2758 -0.6282,0.2758 -0.2041,0 -0.4467,-0.0547 -0.7251,-0.1647 z m 5.3632,0.7087 c 0.5386,0 0.9689,-0.1406 1.2906,-0.4201 0.3214,-0.281 0.4824,-0.6574 0.4824,-1.1311 0,-0.5986 -0.1953,-1.0953 -0.5859,-1.4884 -0.3895,-0.3946 -0.8937,-0.5911 -1.5128,-0.5911 -0.5463,0 -0.978,0.1404 -1.2957,0.4199 -0.3178,0.2809 -0.4763,0.6525 -0.4763,1.1131 0,0.6052 0.1917,1.1069 0.5758,1.5027 0.3843,0.3971 0.8912,0.595 1.5219,0.595 z m -0.0448,-0.383 c -0.277,0 -0.5068,-0.1698 -0.688,-0.5108 -0.1825,-0.3407 -0.2721,-0.7492 -0.2696,-1.2229 0.003,-0.3549 0.0664,-0.6318 0.1903,-0.8311 0.1252,-0.2004 0.3027,-0.2999 0.5312,-0.2999 0.2846,0 0.5145,0.1749 0.6879,0.5258 0.1749,0.3512 0.2631,0.7546 0.2631,1.2116 0,0.3549 -0.0638,0.6307 -0.1916,0.8297 -0.1276,0.1978 -0.3011,0.2976 -0.5233,0.2976 z m 2.5021,-3.17 0.5797,2.8264 c 0.0204,0.0995 0.0306,0.1661 0.0306,0.1979 0,0.0422 -0.0116,0.0754 -0.0357,0.0998 -0.0232,0.0229 -0.0589,0.0408 -0.106,0.0521 -0.0485,0.0117 -0.1074,0.0179 -0.1789,0.0204 -0.07,0.0026 -0.1519,0.004 -0.2437,0.004 l 0.0218,0.1724 c 0.4442,0.1148 0.7838,0.1723 1.021,0.1723 0.1724,0 0.3115,-0.032 0.4176,-0.0947 0.106,-0.0623 0.1584,-0.1556 0.1584,-0.2795 0,-0.0051 0,-0.0139 -0.001,-0.0255 -0.001,-0.0127 -0.004,-0.0295 -0.006,-0.0499 0.4861,0.3002 0.9306,0.4496 1.3314,0.4496 0.411,0 0.6766,-0.1621 0.7965,-0.4864 0.5361,0.3243 1.0174,0.4864 1.4437,0.4864 0.2721,0 0.4828,-0.0717 0.6347,-0.2157 0.1505,-0.1432 0.2259,-0.3371 0.2259,-0.5811 0,-0.1072 -0.0142,-0.222 -0.0408,-0.3444 l -0.3742,-1.7734 c -0.005,-0.0204 -0.009,-0.0394 -0.0116,-0.0587 -0.002,-0.0178 -0.004,-0.0357 -0.004,-0.0535 0,-0.0525 0.0128,-0.0933 0.0372,-0.1239 0.0255,-0.0295 0.0623,-0.051 0.1108,-0.0652 0.0487,-0.0139 0.1086,-0.023 0.1814,-0.0266 0.0714,-0.004 0.1545,-0.0052 0.2463,-0.0052 l -0.0153,-0.1712 c -0.3741,-0.1162 -0.716,-0.1734 -1.0275,-0.1734 -0.1953,0 -0.341,0.0357 -0.4391,0.1085 -0.0998,0.0715 -0.1483,0.1902 -0.1483,0.3549 0,0.0766 0.0102,0.1673 0.0295,0.2693 l 0.3371,1.5613 c 0.0266,0.1287 0.0408,0.2373 0.0408,0.3255 0,0.1493 -0.0332,0.259 -0.1009,0.3305 -0.0678,0.0703 -0.1647,0.106 -0.2912,0.106 -0.1927,0 -0.4544,-0.0805 -0.7863,-0.2412 0,-0.1097 -0.0127,-0.2311 -0.0408,-0.3637 l -0.4864,-2.367 -1.0506,-0.0371 0.4595,2.247 c 0.0281,0.1364 0.0423,0.2449 0.0423,0.324 0,0.1508 -0.0321,0.2605 -0.0958,0.332 -0.0638,0.0703 -0.1596,0.106 -0.2861,0.106 -0.1902,0 -0.4481,-0.0791 -0.7749,-0.2373 l -0.5565,-2.7346 -1.0443,-0.0371 z m 8.2953,1.6699 c -0.0269,-0.1276 -0.055,-0.2616 -0.0819,-0.4022 -0.028,-0.1404 -0.0419,-0.2719 -0.0419,-0.3943 0,-0.1851 0.0368,-0.332 0.1111,-0.4417 0.0726,-0.11 0.1851,-0.1647 0.3345,-0.1647 0.1964,0 0.3523,0.0791 0.4657,0.2373 0.1137,0.1585 0.1698,0.36 0.1698,0.6038 0,0.2032 -0.0445,0.3563 -0.1341,0.4623 -0.0904,0.106 -0.2296,0.1596 -0.4187,0.1596 -0.1224,0 -0.2576,-0.0204 -0.4045,-0.0601 z m 2.4829,1.7031 c 0.4467,0.1148 0.8093,0.1723 1.0888,0.1723 0.1672,0 0.2976,-0.0295 0.3909,-0.0882 0.093,-0.0586 0.1403,-0.1505 0.1403,-0.2758 0,-0.0521 -0.005,-0.1034 -0.0153,-0.153 l -0.4901,-2.3604 c -0.0116,-0.0652 -0.0182,-0.1126 -0.0182,-0.1418 0,-0.0995 0.0411,-0.1661 0.1228,-0.1967 0.083,-0.0318 0.2347,-0.0471 0.4569,-0.0471 l -0.0229,-0.1737 c -0.4264,-0.1035 -0.7699,-0.1556 -1.0316,-0.1556 -0.1851,0 -0.3293,0.0357 -0.4328,0.1085 -0.1032,0.0726 -0.1542,0.1826 -0.1542,0.3294 0,0.07 0.0102,0.1568 0.0292,0.2616 l 0.4493,2.1703 c 0.0193,0.0994 0.0295,0.1646 0.0295,0.1938 0,0.0678 -0.0281,0.1151 -0.0856,0.1432 -0.0573,0.0266 -0.2169,0.0408 -0.4788,0.0408 z m -3.803,0 c 0.4417,0.1148 0.8031,0.1723 1.0851,0.1723 0.1659,0 0.2963,-0.0281 0.3907,-0.0856 0.0932,-0.0575 0.1403,-0.1494 0.1403,-0.2769 0,-0.027 -0.001,-0.0525 -0.004,-0.078 -0.003,-0.0244 -0.006,-0.0499 -0.0116,-0.074 l -0.2169,-1.0494 c 0.2566,0.0678 0.5018,0.1009 0.7365,0.1009 0.3843,0 0.697,-0.0793 0.9408,-0.2375 0.2426,-0.1582 0.3639,-0.3793 0.3639,-0.6613 0,-0.402 -0.1865,-0.7149 -0.5604,-0.9394 -0.3741,-0.2248 -0.8144,-0.3371 -1.3201,-0.3371 -0.4518,0 -0.7965,0.0752 -1.0366,0.226 -0.2387,0.1505 -0.3586,0.3764 -0.3586,0.6752 0,0.1199 0.0179,0.2681 0.0525,0.4442 l 0.3101,1.5704 c 0.0102,0.0496 0.0178,0.0918 0.0229,0.1238 0.005,0.0318 0.008,0.0562 0.008,0.07 0,0.0678 -0.0295,0.1151 -0.0867,0.1432 -0.0601,0.0266 -0.2197,0.0408 -0.4788,0.0408 z" style="fill:#000003;fill-opacity:1;fill-rule:nonzero;stroke:none" id="path32" inkscape:connector-curvature="0"/></g></g></g></svg>